<svg xmlns="http://www.w3.org/2000/svg" xmlns:xlink="http://www.w3.org/1999/xlink" width="501" zoomAndPan="magnify" viewBox="0 0 375.75 240.749995" height="321" preserveAspectRatio="xMidYMid meet" version="1.0"><defs><g/><clipPath id="288ea4c483"><path d="M 105 0.355469 L 232 0.355469 L 232 52 L 105 52 Z M 105 0.355469 " clip-rule="nonzero"/></clipPath><clipPath id="98b054fc68"><rect x="0" width="340" y="0" height="223"/></clipPath></defs><g transform="matrix(1, 0, 0, 1, 19, 3)"><g clip-path="url(#98b054fc68)"><g clip-path="url(#288ea4c483)"><path fill="#ffffff" d="M 223.109375 39.261719 L 205.652344 26.917969 L 205.652344 11.363281 L 196.003906 11.363281 L 196.003906 20.09375 L 168.445312 0.609375 L 113.78125 39.261719 L 105.28125 45.273438 L 113.78125 51.28125 L 122.28125 45.273438 L 168.445312 12.628906 L 214.609375 45.273438 L 223.109375 51.28125 L 231.609375 45.273438 Z M 223.109375 39.261719 " fill-opacity="1" fill-rule="nonzero"/></g><path fill="#a78248" d="M 156.46875 103.003906 L 149.65625 109.980469 L 130.355469 109.921875 L 130.355469 66.320312 L 137.167969 66.398438 L 137.167969 103.003906 L 149.65625 103.003906 L 149.65625 60.359375 L 137.167969 60.359375 L 130.355469 60.28125 L 130.355469 53.589844 L 149.65625 53.546875 L 156.46875 60.359375 Z M 122.652344 53.660156 L 122.652344 119.042969 L 164.171875 119.042969 L 164.171875 24.304688 Z M 122.652344 53.660156 " fill-opacity="1" fill-rule="nonzero"/><path fill="#ffffff" d="M 206.535156 73.207031 L 199.722656 73.207031 L 199.722656 60.359375 L 187.234375 60.359375 L 187.234375 79.304688 L 206.535156 79.304688 L 206.535156 109.976562 L 180.421875 109.917969 L 180.421875 91.542969 L 187.234375 91.621094 L 187.234375 103 L 199.722656 103 L 199.722656 86.117188 L 187.234375 86.117188 L 180.421875 86.039062 L 180.421875 53.46875 L 206.535156 53.546875 Z M 190.808594 37.097656 L 172.71875 24.304688 L 172.71875 119.042969 L 214.238281 119.042969 L 214.238281 53.660156 Z M 190.808594 37.097656 " fill-opacity="1" fill-rule="nonzero"/><g fill="#ffffff" fill-opacity="1"><g transform="translate(0.814475, 162.061342)"><g><path d="M 1.078125 0 C 0.992188 0 0.941406 -0.0195312 0.921875 -0.0625 C 0.910156 -0.113281 0.90625 -0.144531 0.90625 -0.15625 L 0.90625 -1.03125 C 0.90625 -1.039062 0.910156 -1.066406 0.921875 -1.109375 C 0.941406 -1.160156 0.992188 -1.1875 1.078125 -1.1875 L 1.515625 -1.1875 C 1.796875 -1.1875 2.144531 -1.203125 2.5625 -1.234375 C 2.976562 -1.273438 3.378906 -1.375 3.765625 -1.53125 C 4.160156 -1.6875 4.5 -1.921875 4.78125 -2.234375 C 5.0625 -2.546875 5.203125 -2.976562 5.203125 -3.53125 L 5.203125 -25.09375 C 5.203125 -25.507812 5.109375 -25.863281 4.921875 -26.15625 C 4.742188 -26.445312 4.515625 -26.679688 4.234375 -26.859375 C 3.960938 -27.035156 3.65625 -27.164062 3.3125 -27.25 C 2.976562 -27.332031 2.660156 -27.375 2.359375 -27.375 L 1.078125 -27.375 C 0.992188 -27.375 0.941406 -27.394531 0.921875 -27.4375 C 0.910156 -27.488281 0.90625 -27.519531 0.90625 -27.53125 L 0.90625 -28.40625 C 0.90625 -28.414062 0.910156 -28.441406 0.921875 -28.484375 C 0.941406 -28.535156 0.992188 -28.5625 1.078125 -28.5625 L 1.515625 -28.5625 L 9.828125 -28.703125 C 10.609375 -28.722656 11.453125 -28.734375 12.359375 -28.734375 C 13.273438 -28.742188 14.125 -28.75 14.90625 -28.75 C 15.75 -28.75 16.507812 -28.738281 17.1875 -28.71875 C 17.863281 -28.695312 18.507812 -28.65625 19.125 -28.59375 C 19.75 -28.53125 20.375 -28.453125 21 -28.359375 C 21.632812 -28.265625 22.34375 -28.140625 23.125 -27.984375 C 24.625 -27.671875 26.015625 -27.097656 27.296875 -26.265625 C 28.585938 -25.429688 29.703125 -24.421875 30.640625 -23.234375 C 31.578125 -22.046875 32.3125 -20.726562 32.84375 -19.28125 C 33.375 -17.84375 33.640625 -16.367188 33.640625 -14.859375 C 33.640625 -13.398438 33.4375 -12.019531 33.03125 -10.71875 C 32.625 -9.425781 32.0625 -8.226562 31.34375 -7.125 C 30.625 -6.03125 29.769531 -5.039062 28.78125 -4.15625 C 27.789062 -3.269531 26.703125 -2.519531 25.515625 -1.90625 C 24.328125 -1.289062 23.066406 -0.816406 21.734375 -0.484375 C 20.398438 -0.160156 19.03125 0 17.625 0 Z M 10.953125 -3.140625 C 10.953125 -2.742188 11.078125 -2.4375 11.328125 -2.21875 C 11.578125 -2.007812 11.90625 -1.851562 12.3125 -1.75 C 12.726562 -1.644531 13.210938 -1.585938 13.765625 -1.578125 C 14.316406 -1.566406 14.894531 -1.5625 15.5 -1.5625 C 19.507812 -1.5625 22.515625 -2.664062 24.515625 -4.875 C 26.515625 -7.082031 27.515625 -10.300781 27.515625 -14.53125 C 27.515625 -16.394531 27.285156 -18.101562 26.828125 -19.65625 C 26.378906 -21.207031 25.691406 -22.539062 24.765625 -23.65625 C 23.847656 -24.769531 22.691406 -25.632812 21.296875 -26.25 C 19.898438 -26.875 18.253906 -27.1875 16.359375 -27.1875 L 11.46875 -27.1875 C 11.257812 -27.1875 11.117188 -27.144531 11.046875 -27.0625 C 10.984375 -26.976562 10.953125 -26.835938 10.953125 -26.640625 Z M 10.953125 -3.140625 "/></g></g></g><g fill="#ffffff" fill-opacity="1"><g transform="translate(36.258973, 162.061342)"><g><path d="M 1.515625 -9.4375 C 1.515625 -10.707031 1.789062 -11.921875 2.34375 -13.078125 C 2.90625 -14.234375 3.660156 -15.253906 4.609375 -16.140625 C 5.554688 -17.035156 6.65625 -17.742188 7.90625 -18.265625 C 9.15625 -18.796875 10.476562 -19.0625 11.875 -19.0625 C 13.320312 -19.0625 14.695312 -18.8125 16 -18.3125 C 17.3125 -17.8125 18.460938 -17.128906 19.453125 -16.265625 C 20.453125 -15.398438 21.238281 -14.375 21.8125 -13.1875 C 22.394531 -12.007812 22.6875 -10.734375 22.6875 -9.359375 C 22.6875 -7.960938 22.421875 -6.660156 21.890625 -5.453125 C 21.359375 -4.242188 20.617188 -3.191406 19.671875 -2.296875 C 18.722656 -1.410156 17.597656 -0.710938 16.296875 -0.203125 C 15.003906 0.296875 13.585938 0.546875 12.046875 0.546875 C 10.523438 0.546875 9.117188 0.285156 7.828125 -0.234375 C 6.546875 -0.753906 5.4375 -1.460938 4.5 -2.359375 C 3.5625 -3.253906 2.828125 -4.304688 2.296875 -5.515625 C 1.773438 -6.734375 1.515625 -8.039062 1.515625 -9.4375 Z M 6.6875 -10.71875 C 6.6875 -9.988281 6.738281 -9.234375 6.84375 -8.453125 C 6.957031 -7.679688 7.117188 -6.925781 7.328125 -6.1875 C 7.546875 -5.457031 7.820312 -4.769531 8.15625 -4.125 C 8.488281 -3.476562 8.882812 -2.90625 9.34375 -2.40625 C 9.800781 -1.914062 10.316406 -1.53125 10.890625 -1.25 C 11.472656 -0.96875 12.128906 -0.828125 12.859375 -0.828125 C 13.648438 -0.828125 14.332031 -1.03125 14.90625 -1.4375 C 15.476562 -1.851562 15.945312 -2.390625 16.3125 -3.046875 C 16.6875 -3.710938 16.960938 -4.457031 17.140625 -5.28125 C 17.316406 -6.101562 17.40625 -6.925781 17.40625 -7.75 C 17.40625 -8.40625 17.34375 -9.097656 17.21875 -9.828125 C 17.101562 -10.566406 16.921875 -11.296875 16.671875 -12.015625 C 16.429688 -12.734375 16.132812 -13.421875 15.78125 -14.078125 C 15.4375 -14.742188 15.03125 -15.328125 14.5625 -15.828125 C 14.101562 -16.335938 13.585938 -16.738281 13.015625 -17.03125 C 12.441406 -17.332031 11.816406 -17.484375 11.140625 -17.484375 C 10.390625 -17.484375 9.734375 -17.273438 9.171875 -16.859375 C 8.609375 -16.453125 8.144531 -15.921875 7.78125 -15.265625 C 7.414062 -14.617188 7.140625 -13.894531 6.953125 -13.09375 C 6.773438 -12.289062 6.6875 -11.5 6.6875 -10.71875 Z M 6.6875 -10.71875 "/></g></g></g><g fill="#ffffff" fill-opacity="1"><g transform="translate(60.447737, 162.061342)"><g><path d="M 3.984375 -0.125 C 3.859375 -0.125 3.75 -0.0859375 3.65625 -0.015625 C 3.5625 0.046875 3.46875 0.117188 3.375 0.203125 C 3.289062 0.296875 3.207031 0.375 3.125 0.4375 C 3.050781 0.507812 2.957031 0.546875 2.84375 0.546875 L 2.125 0.546875 C 2.09375 0.546875 2.050781 0.351562 2 -0.03125 C 1.945312 -0.425781 1.890625 -0.894531 1.828125 -1.4375 C 1.765625 -1.988281 1.710938 -2.554688 1.671875 -3.140625 C 1.640625 -3.722656 1.625 -4.210938 1.625 -4.609375 C 1.625 -4.828125 1.695312 -4.960938 1.84375 -5.015625 C 2 -5.078125 2.164062 -5.109375 2.34375 -5.109375 C 2.4375 -5.109375 2.539062 -5.070312 2.65625 -5 C 2.769531 -4.9375 2.878906 -4.851562 2.984375 -4.75 C 3.085938 -4.65625 3.175781 -4.550781 3.25 -4.4375 C 3.332031 -4.332031 3.394531 -4.242188 3.4375 -4.171875 C 3.664062 -3.671875 3.894531 -3.21875 4.125 -2.8125 C 4.351562 -2.40625 4.613281 -2.0625 4.90625 -1.78125 C 5.207031 -1.5 5.5625 -1.28125 5.96875 -1.125 C 6.375 -0.96875 6.859375 -0.890625 7.421875 -0.890625 C 7.847656 -0.890625 8.195312 -0.960938 8.46875 -1.109375 C 8.738281 -1.253906 8.945312 -1.445312 9.09375 -1.6875 C 9.25 -1.9375 9.347656 -2.21875 9.390625 -2.53125 C 9.441406 -2.84375 9.46875 -3.164062 9.46875 -3.5 C 9.46875 -4.175781 9.265625 -4.742188 8.859375 -5.203125 C 8.453125 -5.671875 7.945312 -6.101562 7.34375 -6.5 C 6.75 -6.90625 6.097656 -7.316406 5.390625 -7.734375 C 4.679688 -8.160156 4.023438 -8.648438 3.421875 -9.203125 C 2.828125 -9.753906 2.328125 -10.410156 1.921875 -11.171875 C 1.515625 -11.929688 1.3125 -12.867188 1.3125 -13.984375 C 1.3125 -14.640625 1.515625 -15.269531 1.921875 -15.875 C 2.328125 -16.488281 2.851562 -17.03125 3.5 -17.5 C 4.144531 -17.976562 4.867188 -18.359375 5.671875 -18.640625 C 6.472656 -18.921875 7.269531 -19.0625 8.0625 -19.0625 C 8.476562 -19.0625 8.898438 -19.023438 9.328125 -18.953125 C 9.753906 -18.878906 10.144531 -18.796875 10.5 -18.703125 C 10.851562 -18.609375 11.15625 -18.515625 11.40625 -18.421875 C 11.65625 -18.328125 11.816406 -18.257812 11.890625 -18.21875 C 11.984375 -18.144531 12.0625 -18.035156 12.125 -17.890625 C 12.1875 -17.753906 12.222656 -17.53125 12.234375 -17.21875 C 12.253906 -16.914062 12.269531 -16.503906 12.28125 -15.984375 C 12.289062 -15.460938 12.296875 -14.785156 12.296875 -13.953125 C 12.296875 -13.722656 12.207031 -13.554688 12.03125 -13.453125 C 11.863281 -13.347656 11.703125 -13.296875 11.546875 -13.296875 C 11.398438 -13.296875 11.253906 -13.320312 11.109375 -13.375 C 10.960938 -13.4375 10.875 -13.523438 10.84375 -13.640625 C 10.675781 -14.066406 10.488281 -14.488281 10.28125 -14.90625 C 10.082031 -15.332031 9.851562 -15.71875 9.59375 -16.0625 C 9.332031 -16.40625 9.023438 -16.679688 8.671875 -16.890625 C 8.316406 -17.097656 7.910156 -17.203125 7.453125 -17.203125 C 7.191406 -17.203125 6.925781 -17.164062 6.65625 -17.09375 C 6.382812 -17.03125 6.140625 -16.898438 5.921875 -16.703125 C 5.703125 -16.515625 5.53125 -16.25 5.40625 -15.90625 C 5.28125 -15.570312 5.21875 -15.144531 5.21875 -14.625 C 5.21875 -14.164062 5.425781 -13.738281 5.84375 -13.34375 C 6.269531 -12.945312 6.800781 -12.550781 7.4375 -12.15625 C 8.070312 -11.757812 8.765625 -11.332031 9.515625 -10.875 C 10.265625 -10.414062 10.953125 -9.890625 11.578125 -9.296875 C 12.210938 -8.703125 12.742188 -8.015625 13.171875 -7.234375 C 13.597656 -6.460938 13.8125 -5.554688 13.8125 -4.515625 C 13.8125 -3.734375 13.609375 -3.023438 13.203125 -2.390625 C 12.796875 -1.765625 12.273438 -1.234375 11.640625 -0.796875 C 11.003906 -0.367188 10.300781 -0.0390625 9.53125 0.1875 C 8.757812 0.425781 8.003906 0.546875 7.265625 0.546875 C 6.878906 0.546875 6.5 0.507812 6.125 0.4375 C 5.75 0.375 5.40625 0.296875 5.09375 0.203125 C 4.78125 0.117188 4.519531 0.046875 4.3125 -0.015625 C 4.113281 -0.0859375 4.003906 -0.125 3.984375 -0.125 Z M 3.984375 -0.125 "/></g></g></g><g fill="#ffffff" fill-opacity="1"><g transform="translate(75.765257, 162.061342)"><g><path d="M 3.984375 -0.125 C 3.859375 -0.125 3.75 -0.0859375 3.65625 -0.015625 C 3.5625 0.046875 3.46875 0.117188 3.375 0.203125 C 3.289062 0.296875 3.207031 0.375 3.125 0.4375 C 3.050781 0.507812 2.957031 0.546875 2.84375 0.546875 L 2.125 0.546875 C 2.09375 0.546875 2.050781 0.351562 2 -0.03125 C 1.945312 -0.425781 1.890625 -0.894531 1.828125 -1.4375 C 1.765625 -1.988281 1.710938 -2.554688 1.671875 -3.140625 C 1.640625 -3.722656 1.625 -4.210938 1.625 -4.609375 C 1.625 -4.828125 1.695312 -4.960938 1.84375 -5.015625 C 2 -5.078125 2.164062 -5.109375 2.34375 -5.109375 C 2.4375 -5.109375 2.539062 -5.070312 2.65625 -5 C 2.769531 -4.9375 2.878906 -4.851562 2.984375 -4.75 C 3.085938 -4.65625 3.175781 -4.550781 3.25 -4.4375 C 3.332031 -4.332031 3.394531 -4.242188 3.4375 -4.171875 C 3.664062 -3.671875 3.894531 -3.21875 4.125 -2.8125 C 4.351562 -2.40625 4.613281 -2.0625 4.90625 -1.78125 C 5.207031 -1.5 5.5625 -1.28125 5.96875 -1.125 C 6.375 -0.96875 6.859375 -0.890625 7.421875 -0.890625 C 7.847656 -0.890625 8.195312 -0.960938 8.46875 -1.109375 C 8.738281 -1.253906 8.945312 -1.445312 9.09375 -1.6875 C 9.25 -1.9375 9.347656 -2.21875 9.390625 -2.53125 C 9.441406 -2.84375 9.46875 -3.164062 9.46875 -3.5 C 9.46875 -4.175781 9.265625 -4.742188 8.859375 -5.203125 C 8.453125 -5.671875 7.945312 -6.101562 7.34375 -6.5 C 6.75 -6.90625 6.097656 -7.316406 5.390625 -7.734375 C 4.679688 -8.160156 4.023438 -8.648438 3.421875 -9.203125 C 2.828125 -9.753906 2.328125 -10.410156 1.921875 -11.171875 C 1.515625 -11.929688 1.3125 -12.867188 1.3125 -13.984375 C 1.3125 -14.640625 1.515625 -15.269531 1.921875 -15.875 C 2.328125 -16.488281 2.851562 -17.03125 3.5 -17.5 C 4.144531 -17.976562 4.867188 -18.359375 5.671875 -18.640625 C 6.472656 -18.921875 7.269531 -19.0625 8.0625 -19.0625 C 8.476562 -19.0625 8.898438 -19.023438 9.328125 -18.953125 C 9.753906 -18.878906 10.144531 -18.796875 10.5 -18.703125 C 10.851562 -18.609375 11.15625 -18.515625 11.40625 -18.421875 C 11.65625 -18.328125 11.816406 -18.257812 11.890625 -18.21875 C 11.984375 -18.144531 12.0625 -18.035156 12.125 -17.890625 C 12.1875 -17.753906 12.222656 -17.53125 12.234375 -17.21875 C 12.253906 -16.914062 12.269531 -16.503906 12.28125 -15.984375 C 12.289062 -15.460938 12.296875 -14.785156 12.296875 -13.953125 C 12.296875 -13.722656 12.207031 -13.554688 12.03125 -13.453125 C 11.863281 -13.347656 11.703125 -13.296875 11.546875 -13.296875 C 11.398438 -13.296875 11.253906 -13.320312 11.109375 -13.375 C 10.960938 -13.4375 10.875 -13.523438 10.84375 -13.640625 C 10.675781 -14.066406 10.488281 -14.488281 10.28125 -14.90625 C 10.082031 -15.332031 9.851562 -15.71875 9.59375 -16.0625 C 9.332031 -16.40625 9.023438 -16.679688 8.671875 -16.890625 C 8.316406 -17.097656 7.910156 -17.203125 7.453125 -17.203125 C 7.191406 -17.203125 6.925781 -17.164062 6.65625 -17.09375 C 6.382812 -17.03125 6.140625 -16.898438 5.921875 -16.703125 C 5.703125 -16.515625 5.53125 -16.25 5.40625 -15.90625 C 5.28125 -15.570312 5.21875 -15.144531 5.21875 -14.625 C 5.21875 -14.164062 5.425781 -13.738281 5.84375 -13.34375 C 6.269531 -12.945312 6.800781 -12.550781 7.4375 -12.15625 C 8.070312 -11.757812 8.765625 -11.332031 9.515625 -10.875 C 10.265625 -10.414062 10.953125 -9.890625 11.578125 -9.296875 C 12.210938 -8.703125 12.742188 -8.015625 13.171875 -7.234375 C 13.597656 -6.460938 13.8125 -5.554688 13.8125 -4.515625 C 13.8125 -3.734375 13.609375 -3.023438 13.203125 -2.390625 C 12.796875 -1.765625 12.273438 -1.234375 11.640625 -0.796875 C 11.003906 -0.367188 10.300781 -0.0390625 9.53125 0.1875 C 8.757812 0.425781 8.003906 0.546875 7.265625 0.546875 C 6.878906 0.546875 6.5 0.507812 6.125 0.4375 C 5.75 0.375 5.40625 0.296875 5.09375 0.203125 C 4.78125 0.117188 4.519531 0.046875 4.3125 -0.015625 C 4.113281 -0.0859375 4.003906 -0.125 3.984375 -0.125 Z M 3.984375 -0.125 "/></g></g></g><g fill="#ffffff" fill-opacity="1"><g transform="translate(91.082777, 162.061342)"><g/></g></g><g fill="#ffffff" fill-opacity="1"><g transform="translate(102.197073, 162.061342)"><g><path d="M 23.921875 -3.515625 C 24.203125 -3.035156 24.519531 -2.609375 24.875 -2.234375 C 25.226562 -1.859375 25.628906 -1.671875 26.078125 -1.671875 C 26.210938 -1.671875 26.414062 -1.710938 26.6875 -1.796875 C 26.957031 -1.890625 27.238281 -1.992188 27.53125 -2.109375 C 27.820312 -2.222656 28.097656 -2.320312 28.359375 -2.40625 C 28.628906 -2.5 28.84375 -2.546875 29 -2.546875 C 29.1875 -2.546875 29.335938 -2.507812 29.453125 -2.4375 C 29.566406 -2.375 29.648438 -2.300781 29.703125 -2.21875 C 29.753906 -2.144531 29.785156 -2.066406 29.796875 -1.984375 C 29.816406 -1.910156 29.828125 -1.863281 29.828125 -1.84375 C 29.828125 -1.789062 29.804688 -1.707031 29.765625 -1.59375 C 29.722656 -1.476562 29.59375 -1.34375 29.375 -1.1875 C 28.625 -0.707031 27.8125 -0.285156 26.9375 0.078125 C 26.070312 0.441406 25.125 0.625 24.09375 0.625 C 23.445312 0.625 22.878906 0.519531 22.390625 0.3125 C 21.910156 0.101562 21.476562 -0.164062 21.09375 -0.5 C 20.707031 -0.84375 20.359375 -1.234375 20.046875 -1.671875 C 19.734375 -2.109375 19.425781 -2.554688 19.125 -3.015625 C 18.988281 -3.203125 18.859375 -3.394531 18.734375 -3.59375 C 18.609375 -3.800781 18.46875 -4.003906 18.3125 -4.203125 C 17.664062 -3.640625 16.960938 -3.070312 16.203125 -2.5 C 15.441406 -1.9375 14.640625 -1.425781 13.796875 -0.96875 C 12.953125 -0.519531 12.078125 -0.15625 11.171875 0.125 C 10.265625 0.40625 9.332031 0.546875 8.375 0.546875 C 7.25 0.546875 6.203125 0.3125 5.234375 -0.15625 C 4.273438 -0.632812 3.441406 -1.253906 2.734375 -2.015625 C 2.023438 -2.785156 1.46875 -3.660156 1.0625 -4.640625 C 0.664062 -5.617188 0.46875 -6.613281 0.46875 -7.625 C 0.46875 -8.644531 0.660156 -9.566406 1.046875 -10.390625 C 1.429688 -11.210938 1.960938 -11.960938 2.640625 -12.640625 C 3.316406 -13.328125 4.113281 -13.9375 5.03125 -14.46875 C 5.945312 -15.007812 6.945312 -15.507812 8.03125 -15.96875 C 7.570312 -16.425781 7.15625 -16.878906 6.78125 -17.328125 C 6.414062 -17.773438 6.101562 -18.226562 5.84375 -18.6875 C 5.582031 -19.144531 5.382812 -19.617188 5.25 -20.109375 C 5.113281 -20.609375 5.046875 -21.15625 5.046875 -21.75 C 5.046875 -22.644531 5.242188 -23.425781 5.640625 -24.09375 C 6.046875 -24.757812 6.570312 -25.316406 7.21875 -25.765625 C 7.863281 -26.210938 8.597656 -26.546875 9.421875 -26.765625 C 10.242188 -26.992188 11.078125 -27.109375 11.921875 -27.109375 C 12.671875 -27.109375 13.414062 -26.988281 14.15625 -26.75 C 14.894531 -26.507812 15.5625 -26.164062 16.15625 -25.71875 C 16.75 -25.28125 17.226562 -24.75 17.59375 -24.125 C 17.957031 -23.5 18.140625 -22.800781 18.140625 -22.03125 C 18.140625 -21.414062 18.007812 -20.84375 17.75 -20.3125 C 17.488281 -19.78125 17.15625 -19.285156 16.75 -18.828125 C 16.351562 -18.378906 15.898438 -17.96875 15.390625 -17.59375 C 14.878906 -17.226562 14.363281 -16.894531 13.84375 -16.59375 C 13.789062 -16.550781 13.753906 -16.523438 13.734375 -16.515625 C 13.710938 -16.503906 13.703125 -16.476562 13.703125 -16.4375 C 13.703125 -16.375 13.742188 -16.3125 13.828125 -16.25 C 13.878906 -16.207031 14.03125 -16.070312 14.28125 -15.84375 C 14.539062 -15.613281 14.921875 -15.25 15.421875 -14.75 C 15.921875 -14.257812 16.546875 -13.609375 17.296875 -12.796875 C 18.054688 -11.984375 18.957031 -10.976562 20 -9.78125 L 24.34375 -16.359375 C 24.46875 -16.546875 24.5625 -16.71875 24.625 -16.875 C 24.6875 -17.039062 24.71875 -17.242188 24.71875 -17.484375 C 24.71875 -17.828125 24.632812 -18.046875 24.46875 -18.140625 C 24.3125 -18.234375 24.148438 -18.289062 23.984375 -18.3125 C 23.796875 -18.351562 23.613281 -18.390625 23.4375 -18.421875 C 23.257812 -18.460938 23.101562 -18.507812 22.96875 -18.5625 C 22.832031 -18.625 22.722656 -18.707031 22.640625 -18.8125 C 22.554688 -18.914062 22.515625 -19.039062 22.515625 -19.1875 C 22.515625 -19.238281 22.519531 -19.300781 22.53125 -19.375 C 22.539062 -19.445312 22.570312 -19.519531 22.625 -19.59375 C 22.6875 -19.675781 22.78125 -19.738281 22.90625 -19.78125 C 23.03125 -19.832031 23.207031 -19.859375 23.4375 -19.859375 L 31.34375 -19.859375 C 31.488281 -19.628906 31.570312 -19.453125 31.59375 -19.328125 C 31.625 -19.203125 31.640625 -19.128906 31.640625 -19.109375 C 31.640625 -18.804688 31.554688 -18.609375 31.390625 -18.515625 C 31.234375 -18.421875 31.015625 -18.363281 30.734375 -18.34375 C 30.421875 -18.300781 30.101562 -18.257812 29.78125 -18.21875 C 29.46875 -18.1875 29.160156 -18.128906 28.859375 -18.046875 C 28.566406 -17.972656 28.289062 -17.847656 28.03125 -17.671875 C 27.769531 -17.503906 27.546875 -17.273438 27.359375 -16.984375 L 21.484375 -7.6875 Z M 10.3125 -2.46875 C 10.90625 -2.46875 11.5 -2.582031 12.09375 -2.8125 C 12.6875 -3.039062 13.257812 -3.316406 13.8125 -3.640625 C 14.375 -3.972656 14.914062 -4.332031 15.4375 -4.71875 C 15.96875 -5.101562 16.457031 -5.457031 16.90625 -5.78125 C 17.050781 -5.882812 17.125 -5.984375 17.125 -6.078125 C 17.125 -6.117188 17.109375 -6.171875 17.078125 -6.234375 C 16.109375 -7.953125 15.015625 -9.492188 13.796875 -10.859375 C 12.585938 -12.222656 11.269531 -13.492188 9.84375 -14.671875 C 9.78125 -14.648438 9.664062 -14.59375 9.5 -14.5 C 9.34375 -14.40625 9.207031 -14.320312 9.09375 -14.25 C 8.570312 -13.9375 8.09375 -13.550781 7.65625 -13.09375 C 7.21875 -12.632812 6.835938 -12.125 6.515625 -11.5625 C 6.203125 -11.007812 5.957031 -10.410156 5.78125 -9.765625 C 5.601562 -9.128906 5.515625 -8.488281 5.515625 -7.84375 C 5.515625 -7.15625 5.640625 -6.488281 5.890625 -5.84375 C 6.140625 -5.195312 6.484375 -4.625 6.921875 -4.125 C 7.359375 -3.625 7.867188 -3.222656 8.453125 -2.921875 C 9.035156 -2.617188 9.65625 -2.46875 10.3125 -2.46875 Z M 9.4375 -22.546875 C 9.4375 -22.066406 9.5 -21.597656 9.625 -21.140625 C 9.757812 -20.679688 9.9375 -20.25 10.15625 -19.84375 C 10.382812 -19.445312 10.648438 -19.078125 10.953125 -18.734375 C 11.265625 -18.390625 11.601562 -18.085938 11.96875 -17.828125 C 12.289062 -17.953125 12.578125 -18.164062 12.828125 -18.46875 C 13.085938 -18.78125 13.304688 -19.128906 13.484375 -19.515625 C 13.660156 -19.898438 13.796875 -20.296875 13.890625 -20.703125 C 13.984375 -21.117188 14.03125 -21.492188 14.03125 -21.828125 C 14.03125 -22.316406 13.984375 -22.773438 13.890625 -23.203125 C 13.804688 -23.628906 13.664062 -23.992188 13.46875 -24.296875 C 13.28125 -24.609375 13.03125 -24.851562 12.71875 -25.03125 C 12.40625 -25.207031 12.019531 -25.296875 11.5625 -25.296875 C 10.875 -25.296875 10.347656 -25.03125 9.984375 -24.5 C 9.617188 -23.976562 9.4375 -23.328125 9.4375 -22.546875 Z M 9.4375 -22.546875 "/></g></g></g><g fill="#ffffff" fill-opacity="1"><g transform="translate(134.367906, 162.061342)"><g/></g></g><g fill="#ffffff" fill-opacity="1"><g transform="translate(145.482202, 162.061342)"><g><path d="M 2.75 -0.546875 C 2.570312 -0.546875 2.460938 -0.6875 2.421875 -0.96875 C 2.273438 -2.238281 2.160156 -3.222656 2.078125 -3.921875 C 2.003906 -4.617188 1.945312 -5.144531 1.90625 -5.5 C 1.875 -5.851562 1.851562 -6.078125 1.84375 -6.171875 C 1.84375 -6.273438 1.84375 -6.347656 1.84375 -6.390625 C 1.84375 -6.535156 1.910156 -6.695312 2.046875 -6.875 C 2.179688 -7.050781 2.34375 -7.140625 2.53125 -7.140625 C 2.664062 -7.140625 2.804688 -7.054688 2.953125 -6.890625 C 3.109375 -6.734375 3.257812 -6.546875 3.40625 -6.328125 C 3.550781 -6.109375 3.671875 -5.890625 3.765625 -5.671875 C 3.867188 -5.460938 3.9375 -5.3125 3.96875 -5.21875 C 4.3125 -4.476562 4.6875 -3.851562 5.09375 -3.34375 C 5.507812 -2.84375 5.976562 -2.4375 6.5 -2.125 C 7.03125 -1.820312 7.625 -1.601562 8.28125 -1.46875 C 8.945312 -1.34375 9.703125 -1.28125 10.546875 -1.28125 C 11.992188 -1.28125 13.117188 -1.625 13.921875 -2.3125 C 14.722656 -3 15.125 -4.101562 15.125 -5.625 C 15.125 -6.5 14.929688 -7.289062 14.546875 -8 C 14.160156 -8.71875 13.65625 -9.382812 13.03125 -10 C 12.414062 -10.613281 11.707031 -11.195312 10.90625 -11.75 C 10.113281 -12.300781 9.300781 -12.859375 8.46875 -13.421875 C 7.632812 -13.992188 6.816406 -14.582031 6.015625 -15.1875 C 5.222656 -15.800781 4.515625 -16.476562 3.890625 -17.21875 C 3.273438 -17.96875 2.773438 -18.789062 2.390625 -19.6875 C 2.003906 -20.59375 1.8125 -21.613281 1.8125 -22.75 C 1.8125 -23.4375 1.9375 -24.078125 2.1875 -24.671875 C 2.4375 -25.265625 2.769531 -25.800781 3.1875 -26.28125 C 3.613281 -26.769531 4.101562 -27.203125 4.65625 -27.578125 C 5.21875 -27.960938 5.816406 -28.285156 6.453125 -28.546875 C 7.085938 -28.816406 7.726562 -29.019531 8.375 -29.15625 C 9.03125 -29.289062 9.671875 -29.359375 10.296875 -29.359375 C 10.785156 -29.359375 11.285156 -29.3125 11.796875 -29.21875 C 12.304688 -29.132812 12.804688 -29.03125 13.296875 -28.90625 C 13.785156 -28.789062 14.28125 -28.660156 14.78125 -28.515625 C 15.28125 -28.378906 15.769531 -28.25 16.25 -28.125 L 17.59375 -28.25 C 17.707031 -28.25 17.78125 -28.195312 17.8125 -28.09375 C 17.851562 -27.988281 17.878906 -27.894531 17.890625 -27.8125 L 18.484375 -23.0625 C 18.484375 -23 18.394531 -22.953125 18.21875 -22.921875 C 18.039062 -22.898438 17.90625 -22.890625 17.8125 -22.890625 C 17.726562 -22.890625 17.601562 -22.898438 17.4375 -22.921875 C 17.28125 -22.941406 17.191406 -22.960938 17.171875 -22.984375 C 17.128906 -23.023438 17.078125 -23.109375 17.015625 -23.234375 C 16.953125 -23.367188 16.882812 -23.507812 16.8125 -23.65625 C 16.75 -23.8125 16.679688 -23.96875 16.609375 -24.125 C 16.535156 -24.289062 16.457031 -24.4375 16.375 -24.5625 C 15.726562 -25.5625 14.898438 -26.304688 13.890625 -26.796875 C 12.878906 -27.285156 11.765625 -27.53125 10.546875 -27.53125 C 10.023438 -27.53125 9.535156 -27.46875 9.078125 -27.34375 C 8.617188 -27.226562 8.21875 -27.039062 7.875 -26.78125 C 7.539062 -26.519531 7.273438 -26.1875 7.078125 -25.78125 C 6.890625 -25.375 6.796875 -24.890625 6.796875 -24.328125 C 6.796875 -23.503906 6.988281 -22.757812 7.375 -22.09375 C 7.757812 -21.425781 8.265625 -20.796875 8.890625 -20.203125 C 9.515625 -19.617188 10.226562 -19.050781 11.03125 -18.5 C 11.832031 -17.945312 12.644531 -17.382812 13.46875 -16.8125 C 14.300781 -16.238281 15.117188 -15.628906 15.921875 -14.984375 C 16.722656 -14.335938 17.4375 -13.625 18.0625 -12.84375 C 18.6875 -12.0625 19.191406 -11.191406 19.578125 -10.234375 C 19.960938 -9.273438 20.15625 -8.195312 20.15625 -7 C 20.15625 -6.195312 20.015625 -5.453125 19.734375 -4.765625 C 19.460938 -4.078125 19.085938 -3.453125 18.609375 -2.890625 C 18.140625 -2.335938 17.585938 -1.84375 16.953125 -1.40625 C 16.328125 -0.976562 15.648438 -0.617188 14.921875 -0.328125 C 14.203125 -0.046875 13.460938 0.164062 12.703125 0.3125 C 11.941406 0.46875 11.195312 0.546875 10.46875 0.546875 C 9.550781 0.546875 8.753906 0.476562 8.078125 0.34375 C 7.398438 0.207031 6.8125 0.0546875 6.3125 -0.109375 C 5.820312 -0.273438 5.40625 -0.425781 5.0625 -0.5625 C 4.726562 -0.695312 4.445312 -0.765625 4.21875 -0.765625 C 4.144531 -0.765625 4.085938 -0.757812 4.046875 -0.75 Z M 2.75 -0.546875 "/></g></g></g><g fill="#ffffff" fill-opacity="1"><g transform="translate(167.448106, 162.061342)"><g><path d="M 7.421875 -19.609375 C 7.472656 -19.640625 7.53125 -19.664062 7.59375 -19.6875 C 7.65625 -19.71875 7.695312 -19.734375 7.71875 -19.734375 C 7.945312 -19.734375 8.0625 -19.570312 8.0625 -19.25 L 8.0625 -17.109375 C 8.0625 -17.035156 8.09375 -16.976562 8.15625 -16.9375 C 8.21875 -16.894531 8.269531 -16.875 8.3125 -16.875 C 8.375 -16.875 8.4375 -16.890625 8.5 -16.921875 C 8.5625 -16.960938 8.617188 -17 8.671875 -17.03125 C 9.210938 -17.351562 9.695312 -17.625 10.125 -17.84375 C 10.5625 -18.0625 10.972656 -18.234375 11.359375 -18.359375 C 11.753906 -18.492188 12.160156 -18.585938 12.578125 -18.640625 C 12.992188 -18.691406 13.460938 -18.71875 13.984375 -18.71875 C 15.128906 -18.71875 16.15625 -18.441406 17.0625 -17.890625 C 17.976562 -17.347656 18.753906 -16.632812 19.390625 -15.75 C 20.023438 -14.875 20.507812 -13.882812 20.84375 -12.78125 C 21.175781 -11.675781 21.34375 -10.5625 21.34375 -9.4375 C 21.34375 -8.613281 21.226562 -7.789062 21 -6.96875 C 20.769531 -6.144531 20.453125 -5.363281 20.046875 -4.625 C 19.648438 -3.894531 19.164062 -3.210938 18.59375 -2.578125 C 18.03125 -1.953125 17.40625 -1.40625 16.71875 -0.9375 C 16.039062 -0.476562 15.316406 -0.117188 14.546875 0.140625 C 13.773438 0.410156 12.976562 0.546875 12.15625 0.546875 C 11.539062 0.546875 10.945312 0.503906 10.375 0.421875 C 9.800781 0.335938 9.171875 0.222656 8.484375 0.078125 C 8.253906 0.078125 8.128906 0.15625 8.109375 0.3125 C 8.097656 0.476562 8.082031 0.648438 8.0625 0.828125 L 8.0625 9.0625 C 8.0625 9.445312 8.144531 9.769531 8.3125 10.03125 C 8.488281 10.300781 8.707031 10.519531 8.96875 10.6875 C 9.226562 10.851562 9.515625 10.976562 9.828125 11.0625 C 10.148438 11.15625 10.457031 11.226562 10.75 11.28125 C 11.050781 11.332031 11.320312 11.375 11.5625 11.40625 C 11.800781 11.445312 11.984375 11.492188 12.109375 11.546875 C 12.242188 11.597656 12.3125 11.6875 12.3125 11.8125 C 12.3125 12 12.242188 12.101562 12.109375 12.125 L 0.4375 12.125 C 0.3125 12.101562 0.25 12 0.25 11.8125 C 0.25 11.6875 0.3125 11.597656 0.4375 11.546875 C 0.613281 11.460938 0.863281 11.394531 1.1875 11.34375 C 1.507812 11.300781 1.832031 11.207031 2.15625 11.0625 C 2.488281 10.925781 2.773438 10.707031 3.015625 10.40625 C 3.253906 10.101562 3.375 9.65625 3.375 9.0625 L 3.375 -14.03125 C 3.375 -14.351562 3.285156 -14.601562 3.109375 -14.78125 C 2.929688 -14.96875 2.707031 -15.109375 2.4375 -15.203125 C 2.175781 -15.296875 1.890625 -15.375 1.578125 -15.4375 C 1.265625 -15.5 0.96875 -15.570312 0.6875 -15.65625 C 0.601562 -15.675781 0.535156 -15.707031 0.484375 -15.75 C 0.441406 -15.800781 0.421875 -15.898438 0.421875 -16.046875 C 0.421875 -16.117188 0.441406 -16.1875 0.484375 -16.25 C 0.523438 -16.320312 0.609375 -16.390625 0.734375 -16.453125 Z M 12.1875 -16.4375 C 11.457031 -16.4375 10.789062 -16.332031 10.1875 -16.125 C 9.59375 -15.925781 8.988281 -15.597656 8.375 -15.140625 C 8.34375 -15.128906 8.3125 -15.101562 8.28125 -15.0625 C 8.25 -15.03125 8.21875 -15.003906 8.1875 -14.984375 L 8.0625 -14.859375 L 8.0625 -4.0625 C 8.0625 -4.019531 8.066406 -3.90625 8.078125 -3.71875 C 8.097656 -3.539062 8.117188 -3.378906 8.140625 -3.234375 C 8.179688 -2.953125 8.359375 -2.691406 8.671875 -2.453125 C 8.984375 -2.222656 9.335938 -2.019531 9.734375 -1.84375 C 10.128906 -1.675781 10.523438 -1.546875 10.921875 -1.453125 C 11.328125 -1.367188 11.648438 -1.328125 11.890625 -1.328125 C 12.773438 -1.328125 13.523438 -1.488281 14.140625 -1.8125 C 14.753906 -2.144531 15.25 -2.582031 15.625 -3.125 C 16 -3.664062 16.269531 -4.300781 16.4375 -5.03125 C 16.613281 -5.757812 16.703125 -6.535156 16.703125 -7.359375 C 16.703125 -7.992188 16.664062 -8.65625 16.59375 -9.34375 C 16.53125 -10.039062 16.425781 -10.722656 16.28125 -11.390625 C 16.144531 -12.066406 15.957031 -12.707031 15.71875 -13.3125 C 15.476562 -13.925781 15.191406 -14.460938 14.859375 -14.921875 C 14.535156 -15.378906 14.148438 -15.742188 13.703125 -16.015625 C 13.265625 -16.296875 12.757812 -16.4375 12.1875 -16.4375 Z M 12.1875 -16.4375 "/></g></g></g><g fill="#ffffff" fill-opacity="1"><g transform="translate(191.010413, 162.061342)"><g><path d="M 9.84375 -0.40625 C 9.394531 -0.09375 8.867188 0.148438 8.265625 0.328125 C 7.660156 0.503906 7.054688 0.59375 6.453125 0.59375 C 4.804688 0.59375 3.554688 0.222656 2.703125 -0.515625 C 1.847656 -1.265625 1.421875 -2.269531 1.421875 -3.53125 C 1.421875 -4.257812 1.582031 -4.882812 1.90625 -5.40625 C 2.238281 -5.9375 2.726562 -6.40625 3.375 -6.8125 C 4.019531 -7.21875 4.816406 -7.582031 5.765625 -7.90625 C 6.722656 -8.238281 7.828125 -8.566406 9.078125 -8.890625 C 9.753906 -9.066406 10.296875 -9.253906 10.703125 -9.453125 C 11.117188 -9.660156 11.5 -9.859375 11.84375 -10.046875 C 12.070312 -10.171875 12.203125 -10.28125 12.234375 -10.375 C 12.273438 -10.46875 12.296875 -10.554688 12.296875 -10.640625 L 12.296875 -14.15625 C 12.296875 -14.59375 12.226562 -15.003906 12.09375 -15.390625 C 11.96875 -15.773438 11.773438 -16.109375 11.515625 -16.390625 C 11.265625 -16.679688 10.957031 -16.90625 10.59375 -17.0625 C 10.226562 -17.226562 9.816406 -17.3125 9.359375 -17.3125 C 8.972656 -17.3125 8.609375 -17.242188 8.265625 -17.109375 C 7.929688 -16.972656 7.640625 -16.773438 7.390625 -16.515625 C 7.148438 -16.265625 6.957031 -15.960938 6.8125 -15.609375 C 6.675781 -15.253906 6.609375 -14.859375 6.609375 -14.421875 C 6.609375 -14.378906 6.609375 -14.316406 6.609375 -14.234375 C 6.617188 -14.148438 6.628906 -14.0625 6.640625 -13.96875 C 6.660156 -13.882812 6.675781 -13.804688 6.6875 -13.734375 C 6.707031 -13.671875 6.71875 -13.632812 6.71875 -13.625 C 6.695312 -13.601562 6.582031 -13.550781 6.375 -13.46875 C 6.164062 -13.382812 5.910156 -13.289062 5.609375 -13.1875 C 5.304688 -13.09375 4.972656 -12.992188 4.609375 -12.890625 C 4.242188 -12.785156 3.894531 -12.6875 3.5625 -12.59375 C 3.238281 -12.5 2.953125 -12.414062 2.703125 -12.34375 C 2.453125 -12.269531 2.28125 -12.226562 2.1875 -12.21875 C 2.039062 -12.21875 1.945312 -12.289062 1.90625 -12.4375 C 1.875 -12.59375 1.859375 -12.75 1.859375 -12.90625 C 1.859375 -13.6875 2.09375 -14.445312 2.5625 -15.1875 C 3.039062 -15.925781 3.671875 -16.582031 4.453125 -17.15625 C 5.242188 -17.726562 6.148438 -18.1875 7.171875 -18.53125 C 8.203125 -18.882812 9.265625 -19.0625 10.359375 -19.0625 C 11.328125 -19.0625 12.191406 -18.9375 12.953125 -18.6875 C 13.722656 -18.4375 14.378906 -18.09375 14.921875 -17.65625 C 15.460938 -17.21875 15.875 -16.710938 16.15625 -16.140625 C 16.4375 -15.566406 16.578125 -14.957031 16.578125 -14.3125 L 16.578125 -4.671875 C 16.578125 -4.316406 16.707031 -4 16.96875 -3.71875 C 17.226562 -3.445312 17.570312 -3.3125 18 -3.3125 C 18.238281 -3.3125 18.453125 -3.351562 18.640625 -3.4375 C 18.835938 -3.53125 19.015625 -3.632812 19.171875 -3.75 C 19.328125 -3.863281 19.457031 -3.960938 19.5625 -4.046875 C 19.675781 -4.140625 19.773438 -4.1875 19.859375 -4.1875 C 19.960938 -4.1875 20.019531 -4.140625 20.03125 -4.046875 C 20.050781 -3.960938 20.0625 -3.890625 20.0625 -3.828125 C 20.0625 -3.597656 20.03125 -3.363281 19.96875 -3.125 C 19.90625 -2.882812 19.800781 -2.710938 19.65625 -2.609375 C 18.988281 -2.109375 18.398438 -1.660156 17.890625 -1.265625 C 17.378906 -0.867188 16.914062 -0.523438 16.5 -0.234375 C 16.082031 0.046875 15.703125 0.257812 15.359375 0.40625 C 15.023438 0.550781 14.710938 0.625 14.421875 0.625 C 14.148438 0.625 13.910156 0.550781 13.703125 0.40625 C 13.492188 0.257812 13.3125 0.078125 13.15625 -0.140625 C 13 -0.359375 12.863281 -0.59375 12.75 -0.84375 C 12.644531 -1.09375 12.554688 -1.320312 12.484375 -1.53125 C 12.410156 -1.75 12.351562 -1.925781 12.3125 -2.0625 C 12.269531 -2.195312 12.238281 -2.257812 12.21875 -2.25 Z M 6.125 -4.015625 C 6.125 -3.660156 6.191406 -3.367188 6.328125 -3.140625 C 6.472656 -2.910156 6.660156 -2.734375 6.890625 -2.609375 C 7.117188 -2.484375 7.378906 -2.394531 7.671875 -2.34375 C 7.960938 -2.300781 8.265625 -2.28125 8.578125 -2.28125 C 8.859375 -2.28125 9.207031 -2.347656 9.625 -2.484375 C 10.039062 -2.628906 10.445312 -2.820312 10.84375 -3.0625 C 11.238281 -3.300781 11.578125 -3.570312 11.859375 -3.875 C 12.148438 -4.175781 12.296875 -4.484375 12.296875 -4.796875 L 12.296875 -8.125 C 12.296875 -8.269531 12.238281 -8.34375 12.125 -8.34375 C 12.101562 -8.34375 12.078125 -8.335938 12.046875 -8.328125 L 7.359375 -6.140625 C 7.171875 -6.003906 7 -5.878906 6.84375 -5.765625 C 6.6875 -5.648438 6.550781 -5.515625 6.4375 -5.359375 C 6.332031 -5.210938 6.253906 -5.035156 6.203125 -4.828125 C 6.148438 -4.617188 6.125 -4.347656 6.125 -4.015625 Z M 6.125 -4.015625 "/></g></g></g><g fill="#ffffff" fill-opacity="1"><g transform="translate(211.56177, 162.061342)"><g><path d="M 3.3125 -14.765625 C 3.269531 -15.148438 3.09375 -15.476562 2.78125 -15.75 C 2.46875 -16.03125 2.128906 -16.210938 1.765625 -16.296875 C 1.671875 -16.328125 1.566406 -16.34375 1.453125 -16.34375 C 1.335938 -16.351562 1.226562 -16.367188 1.125 -16.390625 C 1.03125 -16.410156 0.953125 -16.441406 0.890625 -16.484375 C 0.835938 -16.535156 0.8125 -16.617188 0.8125 -16.734375 C 0.8125 -16.847656 0.828125 -16.941406 0.859375 -17.015625 C 0.890625 -17.097656 0.976562 -17.160156 1.125 -17.203125 L 7.296875 -18.984375 C 7.378906 -19.015625 7.460938 -19.035156 7.546875 -19.046875 C 7.640625 -19.054688 7.722656 -19.0625 7.796875 -19.0625 C 7.929688 -19.0625 8 -18.945312 8 -18.71875 L 8 -5.078125 C 8 -4.617188 8.101562 -4.203125 8.3125 -3.828125 C 8.53125 -3.460938 8.804688 -3.148438 9.140625 -2.890625 C 9.472656 -2.628906 9.851562 -2.429688 10.28125 -2.296875 C 10.71875 -2.171875 11.164062 -2.109375 11.625 -2.109375 C 11.945312 -2.109375 12.28125 -2.160156 12.625 -2.265625 C 12.976562 -2.367188 13.316406 -2.503906 13.640625 -2.671875 C 13.960938 -2.847656 14.265625 -3.046875 14.546875 -3.265625 C 14.835938 -3.484375 15.070312 -3.71875 15.25 -3.96875 L 15.25 -14.78125 C 15.207031 -15.164062 15.023438 -15.492188 14.703125 -15.765625 C 14.390625 -16.046875 14.050781 -16.226562 13.6875 -16.3125 C 13.59375 -16.34375 13.488281 -16.359375 13.375 -16.359375 C 13.257812 -16.367188 13.15625 -16.382812 13.0625 -16.40625 C 12.96875 -16.425781 12.890625 -16.457031 12.828125 -16.5 C 12.765625 -16.550781 12.734375 -16.640625 12.734375 -16.765625 C 12.734375 -16.867188 12.75 -16.960938 12.78125 -17.046875 C 12.820312 -17.128906 12.914062 -17.1875 13.0625 -17.21875 L 19.234375 -18.984375 C 19.304688 -19.015625 19.382812 -19.035156 19.46875 -19.046875 C 19.5625 -19.054688 19.648438 -19.0625 19.734375 -19.0625 C 19.867188 -19.0625 19.9375 -19.003906 19.9375 -18.890625 L 19.9375 -4.9375 C 20 -4.34375 20.164062 -3.914062 20.4375 -3.65625 C 20.707031 -3.40625 21.144531 -3.28125 21.75 -3.28125 L 22.921875 -3.359375 C 22.984375 -3.359375 23.019531 -3.265625 23.03125 -3.078125 C 23.039062 -2.898438 23.046875 -2.769531 23.046875 -2.6875 C 23.046875 -2.664062 23.03125 -2.578125 23 -2.421875 C 22.96875 -2.273438 22.882812 -2.171875 22.75 -2.109375 L 16.59375 0.421875 C 16.570312 0.429688 16.503906 0.453125 16.390625 0.484375 C 16.285156 0.523438 16.226562 0.546875 16.21875 0.546875 C 16.125 0.546875 16.066406 0.488281 16.046875 0.375 C 16.023438 0.257812 16.015625 0.148438 16.015625 0.046875 L 16.015625 -1.90625 C 15.972656 -1.957031 15.90625 -1.984375 15.8125 -1.984375 C 15.78125 -1.984375 15.75 -1.984375 15.71875 -1.984375 C 15.695312 -1.984375 15.6875 -1.96875 15.6875 -1.9375 L 12.453125 -0.359375 C 12.160156 -0.253906 11.882812 -0.148438 11.625 -0.046875 C 11.363281 0.046875 11.109375 0.140625 10.859375 0.234375 C 10.617188 0.335938 10.351562 0.414062 10.0625 0.46875 C 9.78125 0.519531 9.472656 0.546875 9.140625 0.546875 C 8.578125 0.546875 7.953125 0.488281 7.265625 0.375 C 6.585938 0.257812 5.953125 0.078125 5.359375 -0.171875 C 4.773438 -0.421875 4.285156 -0.738281 3.890625 -1.125 C 3.503906 -1.519531 3.3125 -1.992188 3.3125 -2.546875 Z M 3.3125 -14.765625 "/></g></g></g><g fill="#ffffff" fill-opacity="1"><g transform="translate(235.811142, 162.061342)"><g><path d="M 11.359375 -0.609375 C 11.359375 -0.523438 11.34375 -0.410156 11.3125 -0.265625 C 11.289062 -0.117188 11.238281 -0.03125 11.15625 0 L 0.609375 0 C 0.523438 -0.03125 0.46875 -0.117188 0.4375 -0.265625 C 0.414062 -0.410156 0.40625 -0.523438 0.40625 -0.609375 C 0.40625 -0.671875 0.425781 -0.773438 0.46875 -0.921875 C 0.507812 -1.078125 0.554688 -1.164062 0.609375 -1.1875 C 0.785156 -1.269531 1.035156 -1.332031 1.359375 -1.375 C 1.679688 -1.425781 2.003906 -1.519531 2.328125 -1.65625 C 2.648438 -1.800781 2.929688 -2.023438 3.171875 -2.328125 C 3.410156 -2.640625 3.53125 -3.085938 3.53125 -3.671875 L 3.53125 -27.25 C 3.53125 -27.570312 3.441406 -27.820312 3.265625 -28 C 3.097656 -28.1875 2.878906 -28.328125 2.609375 -28.421875 C 2.335938 -28.515625 2.046875 -28.59375 1.734375 -28.65625 C 1.429688 -28.71875 1.132812 -28.789062 0.84375 -28.875 C 0.675781 -28.9375 0.59375 -29.125 0.59375 -29.4375 C 0.59375 -29.5 0.609375 -29.585938 0.640625 -29.703125 C 0.679688 -29.816406 0.765625 -29.910156 0.890625 -29.984375 L 7.578125 -33.140625 C 7.628906 -33.160156 7.6875 -33.1875 7.75 -33.21875 C 7.820312 -33.25 7.898438 -33.265625 7.984375 -33.265625 C 8.085938 -33.265625 8.15625 -33.222656 8.1875 -33.140625 C 8.21875 -33.066406 8.234375 -32.941406 8.234375 -32.765625 L 8.234375 -3.671875 C 8.234375 -3.085938 8.351562 -2.640625 8.59375 -2.328125 C 8.832031 -2.023438 9.113281 -1.800781 9.4375 -1.65625 C 9.757812 -1.519531 10.082031 -1.425781 10.40625 -1.375 C 10.726562 -1.332031 10.976562 -1.269531 11.15625 -1.1875 C 11.207031 -1.164062 11.253906 -1.078125 11.296875 -0.921875 C 11.335938 -0.773438 11.359375 -0.671875 11.359375 -0.609375 Z M 11.359375 -0.609375 "/></g></g></g><g fill="#ffffff" fill-opacity="1"><g transform="translate(247.875219, 162.061342)"><g><path d="M 19.40625 -33.140625 C 19.457031 -33.160156 19.515625 -33.1875 19.578125 -33.21875 C 19.640625 -33.25 19.6875 -33.265625 19.71875 -33.265625 C 19.945312 -33.265625 20.0625 -33.097656 20.0625 -32.765625 L 20.0625 -4.625 C 20.0625 -4.03125 20.210938 -3.601562 20.515625 -3.34375 C 20.816406 -3.09375 21.269531 -2.96875 21.875 -2.96875 L 23.046875 -3.046875 C 23.097656 -3.046875 23.128906 -3.007812 23.140625 -2.9375 C 23.160156 -2.863281 23.171875 -2.785156 23.171875 -2.703125 C 23.171875 -2.679688 23.148438 -2.644531 23.109375 -2.59375 C 23.078125 -2.550781 22.992188 -2.503906 22.859375 -2.453125 L 15.953125 0.421875 C 15.921875 0.429688 15.851562 0.453125 15.75 0.484375 C 15.644531 0.523438 15.582031 0.546875 15.5625 0.546875 C 15.46875 0.546875 15.410156 0.488281 15.390625 0.375 C 15.367188 0.257812 15.359375 0.148438 15.359375 0.046875 L 15.359375 -1.359375 C 15.359375 -1.492188 15.3125 -1.5625 15.21875 -1.5625 C 15.175781 -1.5625 15.117188 -1.539062 15.046875 -1.5 C 14.566406 -1.226562 14.117188 -0.96875 13.703125 -0.71875 C 13.285156 -0.46875 12.863281 -0.25 12.4375 -0.0625 C 12.019531 0.125 11.578125 0.269531 11.109375 0.375 C 10.640625 0.488281 10.125 0.546875 9.5625 0.546875 C 8.351562 0.546875 7.257812 0.296875 6.28125 -0.203125 C 5.3125 -0.703125 4.488281 -1.367188 3.8125 -2.203125 C 3.144531 -3.035156 2.628906 -3.988281 2.265625 -5.0625 C 1.898438 -6.144531 1.71875 -7.273438 1.71875 -8.453125 C 1.71875 -9.867188 1.992188 -11.179688 2.546875 -12.390625 C 3.109375 -13.609375 3.859375 -14.660156 4.796875 -15.546875 C 5.734375 -16.429688 6.820312 -17.125 8.0625 -17.625 C 9.300781 -18.132812 10.601562 -18.390625 11.96875 -18.390625 C 12.332031 -18.390625 12.648438 -18.359375 12.921875 -18.296875 C 13.191406 -18.234375 13.441406 -18.160156 13.671875 -18.078125 C 13.898438 -18.003906 14.128906 -17.929688 14.359375 -17.859375 C 14.585938 -17.796875 14.84375 -17.765625 15.125 -17.765625 C 15.164062 -17.765625 15.210938 -17.78125 15.265625 -17.8125 C 15.328125 -17.84375 15.359375 -17.914062 15.359375 -18.03125 L 15.359375 -27.5625 C 15.359375 -27.882812 15.269531 -28.132812 15.09375 -28.3125 C 14.925781 -28.5 14.707031 -28.640625 14.4375 -28.734375 C 14.164062 -28.828125 13.875 -28.898438 13.5625 -28.953125 C 13.25 -29.015625 12.953125 -29.085938 12.671875 -29.171875 C 12.597656 -29.203125 12.535156 -29.238281 12.484375 -29.28125 C 12.429688 -29.332031 12.40625 -29.429688 12.40625 -29.578125 C 12.40625 -29.648438 12.425781 -29.71875 12.46875 -29.78125 C 12.507812 -29.84375 12.59375 -29.910156 12.71875 -29.984375 Z M 6.3125 -9.359375 C 6.3125 -8.390625 6.421875 -7.457031 6.640625 -6.5625 C 6.859375 -5.664062 7.203125 -4.875 7.671875 -4.1875 C 8.140625 -3.507812 8.726562 -2.96875 9.4375 -2.5625 C 10.15625 -2.164062 11 -1.96875 11.96875 -1.96875 C 12.113281 -1.96875 12.375 -2.003906 12.75 -2.078125 C 13.132812 -2.160156 13.515625 -2.265625 13.890625 -2.390625 C 14.273438 -2.523438 14.613281 -2.675781 14.90625 -2.84375 C 15.207031 -3.019531 15.359375 -3.210938 15.359375 -3.421875 L 15.359375 -13.46875 C 15.359375 -14.394531 15.023438 -15.144531 14.359375 -15.71875 C 13.691406 -16.300781 12.738281 -16.59375 11.5 -16.59375 C 10.601562 -16.59375 9.828125 -16.378906 9.171875 -15.953125 C 8.515625 -15.535156 7.972656 -14.984375 7.546875 -14.296875 C 7.128906 -13.609375 6.816406 -12.832031 6.609375 -11.96875 C 6.410156 -11.101562 6.3125 -10.234375 6.3125 -9.359375 Z M 6.3125 -9.359375 "/></g></g></g><g fill="#ffffff" fill-opacity="1"><g transform="translate(271.437526, 162.061342)"><g><path d="M 1.421875 0 C 1.335938 -0.03125 1.28125 -0.117188 1.25 -0.265625 C 1.226562 -0.421875 1.21875 -0.539062 1.21875 -0.625 C 1.21875 -0.695312 1.234375 -0.804688 1.265625 -0.953125 C 1.304688 -1.097656 1.359375 -1.1875 1.421875 -1.21875 C 1.585938 -1.289062 1.832031 -1.347656 2.15625 -1.390625 C 2.488281 -1.441406 2.816406 -1.539062 3.140625 -1.6875 C 3.460938 -1.832031 3.742188 -2.054688 3.984375 -2.359375 C 4.222656 -2.660156 4.34375 -3.109375 4.34375 -3.703125 L 4.34375 -13.40625 C 4.34375 -13.726562 4.253906 -13.976562 4.078125 -14.15625 C 3.910156 -14.34375 3.691406 -14.484375 3.421875 -14.578125 C 3.148438 -14.671875 2.859375 -14.75 2.546875 -14.8125 C 2.234375 -14.875 1.9375 -14.941406 1.65625 -15.015625 C 1.570312 -15.046875 1.503906 -15.082031 1.453125 -15.125 C 1.410156 -15.175781 1.390625 -15.273438 1.390625 -15.421875 C 1.390625 -15.492188 1.410156 -15.5625 1.453125 -15.625 C 1.492188 -15.695312 1.578125 -15.765625 1.703125 -15.828125 L 8.390625 -18.984375 C 8.441406 -19.015625 8.5 -19.039062 8.5625 -19.0625 C 8.625 -19.09375 8.664062 -19.109375 8.6875 -19.109375 C 8.914062 -19.109375 9.03125 -18.945312 9.03125 -18.625 L 9.03125 -3.703125 C 9.03125 -3.109375 9.148438 -2.660156 9.390625 -2.359375 C 9.640625 -2.054688 9.925781 -1.832031 10.25 -1.6875 C 10.570312 -1.539062 10.894531 -1.441406 11.21875 -1.390625 C 11.539062 -1.347656 11.789062 -1.289062 11.96875 -1.21875 C 12.019531 -1.1875 12.066406 -1.097656 12.109375 -0.953125 C 12.148438 -0.804688 12.171875 -0.695312 12.171875 -0.625 C 12.171875 -0.539062 12.15625 -0.421875 12.125 -0.265625 C 12.101562 -0.117188 12.050781 -0.03125 11.96875 0 Z M 3.484375 -26.421875 C 3.484375 -27.285156 3.738281 -27.972656 4.25 -28.484375 C 4.757812 -28.992188 5.445312 -29.25 6.3125 -29.25 C 7.175781 -29.25 7.863281 -28.992188 8.375 -28.484375 C 8.882812 -27.972656 9.140625 -27.285156 9.140625 -26.421875 C 9.140625 -25.554688 8.882812 -24.867188 8.375 -24.359375 C 7.863281 -23.859375 7.175781 -23.609375 6.3125 -23.609375 C 5.445312 -23.609375 4.757812 -23.859375 4.25 -24.359375 C 3.738281 -24.867188 3.484375 -25.554688 3.484375 -26.421875 Z M 3.484375 -26.421875 "/></g></g></g><g fill="#ffffff" fill-opacity="1"><g transform="translate(284.613019, 162.061342)"><g><path d="M 8.234375 -19.609375 C 8.285156 -19.640625 8.335938 -19.664062 8.390625 -19.6875 C 8.453125 -19.71875 8.5 -19.734375 8.53125 -19.734375 C 8.757812 -19.734375 8.875 -19.570312 8.875 -19.25 L 8.875 -16.09375 C 8.914062 -15.957031 8.96875 -15.890625 9.03125 -15.890625 C 9.101562 -15.890625 9.160156 -15.890625 9.203125 -15.890625 C 9.242188 -15.898438 9.296875 -15.925781 9.359375 -15.96875 C 10.222656 -16.414062 10.953125 -16.789062 11.546875 -17.09375 C 12.148438 -17.394531 12.671875 -17.648438 13.109375 -17.859375 C 13.546875 -18.066406 13.9375 -18.226562 14.28125 -18.34375 C 14.625 -18.457031 14.96875 -18.546875 15.3125 -18.609375 C 15.664062 -18.671875 16.050781 -18.707031 16.46875 -18.71875 C 16.894531 -18.726562 17.410156 -18.734375 18.015625 -18.734375 C 18.671875 -18.734375 19.238281 -18.59375 19.71875 -18.3125 C 20.207031 -18.03125 20.617188 -17.65625 20.953125 -17.1875 C 21.285156 -16.726562 21.554688 -16.195312 21.765625 -15.59375 C 21.972656 -15 22.128906 -14.382812 22.234375 -13.75 C 22.347656 -13.125 22.421875 -12.503906 22.453125 -11.890625 C 22.492188 -11.285156 22.515625 -10.734375 22.515625 -10.234375 C 22.515625 -9.753906 22.503906 -9.3125 22.484375 -8.90625 C 22.472656 -8.507812 22.457031 -8.070312 22.4375 -7.59375 C 22.414062 -7.113281 22.394531 -6.566406 22.375 -5.953125 C 22.351562 -5.347656 22.34375 -4.617188 22.34375 -3.765625 C 22.34375 -3.359375 22.414062 -3.019531 22.5625 -2.75 C 22.707031 -2.476562 22.898438 -2.253906 23.140625 -2.078125 C 23.378906 -1.898438 23.640625 -1.769531 23.921875 -1.6875 C 24.203125 -1.601562 24.476562 -1.53125 24.75 -1.46875 C 25.019531 -1.414062 25.265625 -1.375 25.484375 -1.34375 C 25.703125 -1.3125 25.875 -1.269531 26 -1.21875 C 26.050781 -1.1875 26.097656 -1.097656 26.140625 -0.953125 C 26.179688 -0.804688 26.203125 -0.695312 26.203125 -0.625 C 26.203125 -0.539062 26.1875 -0.421875 26.15625 -0.265625 C 26.132812 -0.117188 26.082031 -0.03125 26 0 L 14.71875 0 C 14.632812 -0.03125 14.578125 -0.117188 14.546875 -0.265625 C 14.523438 -0.421875 14.515625 -0.539062 14.515625 -0.625 C 14.515625 -0.695312 14.535156 -0.804688 14.578125 -0.953125 C 14.617188 -1.097656 14.664062 -1.1875 14.71875 -1.21875 C 14.894531 -1.289062 15.125 -1.347656 15.40625 -1.390625 C 15.695312 -1.441406 15.992188 -1.550781 16.296875 -1.71875 C 16.609375 -1.882812 16.890625 -2.128906 17.140625 -2.453125 C 17.390625 -2.785156 17.550781 -3.273438 17.625 -3.921875 C 17.65625 -4.117188 17.679688 -4.304688 17.703125 -4.484375 C 17.722656 -4.660156 17.738281 -4.835938 17.75 -5.015625 C 17.757812 -5.203125 17.769531 -5.398438 17.78125 -5.609375 C 17.789062 -5.828125 17.796875 -6.082031 17.796875 -6.375 C 17.796875 -6.976562 17.785156 -7.625 17.765625 -8.3125 C 17.753906 -9 17.75 -9.765625 17.75 -10.609375 C 17.75 -11.273438 17.71875 -11.929688 17.65625 -12.578125 C 17.59375 -13.222656 17.441406 -13.800781 17.203125 -14.3125 C 16.972656 -14.820312 16.628906 -15.238281 16.171875 -15.5625 C 15.710938 -15.882812 15.082031 -16.046875 14.28125 -16.046875 C 13.988281 -16.046875 13.734375 -16.03125 13.515625 -16 C 13.296875 -15.96875 13.023438 -15.890625 12.703125 -15.765625 C 12.390625 -15.648438 11.972656 -15.46875 11.453125 -15.21875 C 10.941406 -14.976562 10.257812 -14.648438 9.40625 -14.234375 C 9.289062 -14.160156 9.175781 -14.082031 9.0625 -14 C 8.945312 -13.914062 8.882812 -13.804688 8.875 -13.671875 L 8.875 -3.765625 C 8.875 -3.148438 8.992188 -2.6875 9.234375 -2.375 C 9.484375 -2.0625 9.769531 -1.832031 10.09375 -1.6875 C 10.414062 -1.539062 10.738281 -1.441406 11.0625 -1.390625 C 11.382812 -1.347656 11.632812 -1.289062 11.8125 -1.21875 C 11.863281 -1.1875 11.910156 -1.097656 11.953125 -0.953125 C 11.992188 -0.804688 12.015625 -0.695312 12.015625 -0.625 C 12.015625 -0.539062 12 -0.421875 11.96875 -0.265625 C 11.9375 -0.117188 11.882812 -0.03125 11.8125 0 L 1.25 0 C 1.164062 -0.03125 1.109375 -0.117188 1.078125 -0.265625 C 1.054688 -0.421875 1.046875 -0.539062 1.046875 -0.625 C 1.046875 -0.695312 1.066406 -0.804688 1.109375 -0.953125 C 1.148438 -1.097656 1.195312 -1.1875 1.25 -1.21875 C 1.425781 -1.289062 1.675781 -1.347656 2 -1.390625 C 2.320312 -1.441406 2.644531 -1.539062 2.96875 -1.6875 C 3.289062 -1.832031 3.570312 -2.0625 3.8125 -2.375 C 4.0625 -2.6875 4.1875 -3.148438 4.1875 -3.765625 L 4.1875 -14.03125 C 4.1875 -14.351562 4.097656 -14.601562 3.921875 -14.78125 C 3.742188 -14.96875 3.519531 -15.109375 3.25 -15.203125 C 2.976562 -15.296875 2.6875 -15.375 2.375 -15.4375 C 2.070312 -15.5 1.78125 -15.570312 1.5 -15.65625 C 1.414062 -15.675781 1.347656 -15.707031 1.296875 -15.75 C 1.253906 -15.800781 1.234375 -15.898438 1.234375 -16.046875 C 1.234375 -16.117188 1.253906 -16.1875 1.296875 -16.25 C 1.335938 -16.320312 1.414062 -16.390625 1.53125 -16.453125 Z M 8.234375 -19.609375 "/></g></g></g><g fill="#ffffff" fill-opacity="1"><g transform="translate(311.206497, 162.061342)"><g><path d="M 11.765625 -19.0625 C 13.054688 -19.0625 14.210938 -18.890625 15.234375 -18.546875 C 16.265625 -18.210938 17.125 -17.722656 17.8125 -17.078125 C 18.65625 -17.109375 19.460938 -17.15625 20.234375 -17.21875 C 21.015625 -17.289062 21.851562 -17.328125 22.75 -17.328125 C 23.050781 -17.328125 23.300781 -17.316406 23.5 -17.296875 C 23.695312 -17.273438 23.847656 -17.238281 23.953125 -17.1875 C 24.066406 -17.144531 24.148438 -17.085938 24.203125 -17.015625 C 24.253906 -16.941406 24.296875 -16.847656 24.328125 -16.734375 C 24.421875 -16.398438 24.484375 -16.097656 24.515625 -15.828125 C 24.554688 -15.554688 24.578125 -15.28125 24.578125 -15 C 24.578125 -14.769531 24.492188 -14.617188 24.328125 -14.546875 C 24.160156 -14.472656 23.820312 -14.4375 23.3125 -14.4375 L 19.609375 -14.4375 C 19.796875 -14.125 19.976562 -13.757812 20.15625 -13.34375 C 20.34375 -12.925781 20.4375 -12.394531 20.4375 -11.75 C 20.4375 -10.820312 20.226562 -9.914062 19.8125 -9.03125 C 19.394531 -8.144531 18.78125 -7.363281 17.96875 -6.6875 C 17.164062 -6.019531 16.179688 -5.476562 15.015625 -5.0625 C 13.847656 -4.65625 12.515625 -4.453125 11.015625 -4.453125 C 10.554688 -4.453125 10.1875 -4.46875 9.90625 -4.5 C 9.625 -4.53125 9.328125 -4.585938 9.015625 -4.671875 C 8.828125 -4.503906 8.59375 -4.359375 8.3125 -4.234375 C 8.03125 -4.109375 7.753906 -3.960938 7.484375 -3.796875 C 7.210938 -3.640625 6.984375 -3.457031 6.796875 -3.25 C 6.609375 -3.039062 6.515625 -2.773438 6.515625 -2.453125 C 6.515625 -1.878906 7.007812 -1.46875 8 -1.21875 C 8.988281 -0.96875 10.585938 -0.835938 12.796875 -0.828125 C 14.484375 -0.816406 16.015625 -0.769531 17.390625 -0.6875 C 18.773438 -0.601562 19.957031 -0.390625 20.9375 -0.046875 C 21.925781 0.296875 22.691406 0.828125 23.234375 1.546875 C 23.773438 2.265625 24.046875 3.269531 24.046875 4.5625 C 24.046875 5.101562 23.914062 5.6875 23.65625 6.3125 C 23.394531 6.945312 23.003906 7.570312 22.484375 8.1875 C 21.972656 8.8125 21.328125 9.410156 20.546875 9.984375 C 19.765625 10.554688 18.84375 11.0625 17.78125 11.5 C 16.71875 11.9375 15.519531 12.285156 14.1875 12.546875 C 12.851562 12.804688 11.382812 12.9375 9.78125 12.9375 C 8.363281 12.9375 7.128906 12.796875 6.078125 12.515625 C 5.035156 12.242188 4.171875 11.878906 3.484375 11.421875 C 2.796875 10.960938 2.28125 10.441406 1.9375 9.859375 C 1.59375 9.273438 1.421875 8.671875 1.421875 8.046875 C 1.421875 7.578125 1.515625 7.148438 1.703125 6.765625 C 1.890625 6.390625 2.132812 6.039062 2.4375 5.71875 C 2.75 5.40625 3.097656 5.109375 3.484375 4.828125 C 3.867188 4.554688 4.253906 4.273438 4.640625 3.984375 C 5.035156 3.703125 5.414062 3.398438 5.78125 3.078125 C 6.144531 2.765625 6.460938 2.40625 6.734375 2 C 6.015625 1.90625 5.363281 1.734375 4.78125 1.484375 C 4.195312 1.242188 3.695312 0.960938 3.28125 0.640625 C 2.875 0.316406 2.554688 -0.03125 2.328125 -0.40625 C 2.097656 -0.789062 1.984375 -1.179688 1.984375 -1.578125 C 1.984375 -1.941406 2.078125 -2.257812 2.265625 -2.53125 C 2.460938 -2.800781 2.71875 -3.039062 3.03125 -3.25 C 3.351562 -3.457031 3.71875 -3.644531 4.125 -3.8125 C 4.53125 -3.988281 4.945312 -4.160156 5.375 -4.328125 C 5.644531 -4.429688 5.929688 -4.546875 6.234375 -4.671875 C 6.535156 -4.804688 6.847656 -4.988281 7.171875 -5.21875 C 5.566406 -5.863281 4.351562 -6.703125 3.53125 -7.734375 C 2.71875 -8.773438 2.3125 -9.976562 2.3125 -11.34375 C 2.3125 -12.414062 2.550781 -13.425781 3.03125 -14.375 C 3.519531 -15.320312 4.1875 -16.140625 5.03125 -16.828125 C 5.882812 -17.523438 6.882812 -18.070312 8.03125 -18.46875 C 9.1875 -18.863281 10.429688 -19.0625 11.765625 -19.0625 Z M 6.03125 6.390625 C 6.03125 6.953125 6.203125 7.519531 6.546875 8.09375 C 6.890625 8.664062 7.351562 9.179688 7.9375 9.640625 C 8.519531 10.097656 9.207031 10.472656 10 10.765625 C 10.800781 11.054688 11.65625 11.203125 12.5625 11.203125 C 13.5 11.203125 14.410156 11.039062 15.296875 10.71875 C 16.191406 10.40625 16.984375 9.984375 17.671875 9.453125 C 18.359375 8.929688 18.910156 8.320312 19.328125 7.625 C 19.742188 6.9375 19.953125 6.210938 19.953125 5.453125 C 19.953125 5.015625 19.878906 4.625 19.734375 4.28125 C 19.597656 3.945312 19.40625 3.664062 19.15625 3.4375 C 18.914062 3.207031 18.632812 3.023438 18.3125 2.890625 C 17.988281 2.753906 17.65625 2.675781 17.3125 2.65625 C 17.019531 2.625 16.546875 2.597656 15.890625 2.578125 C 15.234375 2.554688 14.492188 2.53125 13.671875 2.5 C 13.171875 2.488281 12.675781 2.476562 12.1875 2.46875 C 11.707031 2.46875 11.257812 2.457031 10.84375 2.4375 C 10.4375 2.425781 10.066406 2.414062 9.734375 2.40625 C 9.398438 2.394531 9.140625 2.375 8.953125 2.34375 C 8.703125 2.644531 8.40625 2.925781 8.0625 3.1875 C 7.726562 3.445312 7.410156 3.726562 7.109375 4.03125 C 6.804688 4.332031 6.550781 4.671875 6.34375 5.046875 C 6.132812 5.429688 6.03125 5.878906 6.03125 6.390625 Z M 15.59375 -11.296875 C 15.59375 -12.335938 15.484375 -13.265625 15.265625 -14.078125 C 15.046875 -14.898438 14.738281 -15.585938 14.34375 -16.140625 C 13.945312 -16.703125 13.476562 -17.128906 12.9375 -17.421875 C 12.394531 -17.710938 11.800781 -17.859375 11.15625 -17.859375 C 10.769531 -17.859375 10.34375 -17.78125 9.875 -17.625 C 9.40625 -17.46875 8.96875 -17.179688 8.5625 -16.765625 C 8.164062 -16.359375 7.832031 -15.796875 7.5625 -15.078125 C 7.289062 -14.367188 7.15625 -13.453125 7.15625 -12.328125 C 7.15625 -11.617188 7.234375 -10.875 7.390625 -10.09375 C 7.554688 -9.3125 7.816406 -8.585938 8.171875 -7.921875 C 8.535156 -7.265625 9 -6.722656 9.5625 -6.296875 C 10.125 -5.867188 10.8125 -5.65625 11.625 -5.65625 C 12.226562 -5.65625 12.769531 -5.789062 13.25 -6.0625 C 13.738281 -6.34375 14.15625 -6.726562 14.5 -7.21875 C 14.84375 -7.71875 15.109375 -8.3125 15.296875 -9 C 15.492188 -9.695312 15.59375 -10.460938 15.59375 -11.296875 Z M 15.59375 -11.296875 "/></g></g></g><g fill="#ffffff" fill-opacity="1"><g transform="translate(72.672046, 206.175342)"><g><path d="M 2.015625 0 C 1.910156 0 1.859375 -0.0664062 1.859375 -0.203125 L 1.859375 -1.046875 C 1.859375 -1.066406 1.863281 -1.097656 1.875 -1.140625 C 1.894531 -1.191406 1.941406 -1.21875 2.015625 -1.21875 C 2.472656 -1.21875 2.898438 -1.285156 3.296875 -1.421875 C 3.703125 -1.554688 4.050781 -1.738281 4.34375 -1.96875 C 4.644531 -2.195312 4.878906 -2.472656 5.046875 -2.796875 C 5.222656 -3.117188 5.3125 -3.46875 5.3125 -3.84375 L 5.3125 -24.375 C 5.3125 -25.050781 5.242188 -25.582031 5.109375 -25.96875 C 4.972656 -26.351562 4.773438 -26.640625 4.515625 -26.828125 C 4.253906 -27.023438 3.925781 -27.148438 3.53125 -27.203125 C 3.132812 -27.253906 2.671875 -27.28125 2.140625 -27.28125 L 1.234375 -27.28125 C 1.085938 -27.28125 0.976562 -27.363281 0.90625 -27.53125 C 0.84375 -27.695312 0.8125 -27.84375 0.8125 -27.96875 C 0.8125 -28.03125 0.820312 -28.128906 0.84375 -28.265625 C 0.875 -28.398438 0.953125 -28.476562 1.078125 -28.5 C 1.085938 -28.5 1.128906 -28.5 1.203125 -28.5 C 1.273438 -28.5 1.40625 -28.503906 1.59375 -28.515625 C 1.78125 -28.523438 2.03125 -28.53125 2.34375 -28.53125 C 2.664062 -28.539062 3.082031 -28.550781 3.59375 -28.5625 C 4.332031 -28.582031 5.125 -28.601562 5.96875 -28.625 C 6.8125 -28.65625 7.664062 -28.679688 8.53125 -28.703125 C 9.394531 -28.734375 10.25 -28.757812 11.09375 -28.78125 C 11.9375 -28.800781 12.726562 -28.8125 13.46875 -28.8125 L 16.3125 -28.8125 C 17.394531 -28.8125 18.445312 -28.628906 19.46875 -28.265625 C 20.488281 -27.898438 21.394531 -27.363281 22.1875 -26.65625 C 22.988281 -25.945312 23.628906 -25.066406 24.109375 -24.015625 C 24.597656 -22.960938 24.84375 -21.75 24.84375 -20.375 C 24.84375 -19.507812 24.710938 -18.679688 24.453125 -17.890625 C 24.203125 -17.109375 23.859375 -16.382812 23.421875 -15.71875 C 22.984375 -15.0625 22.476562 -14.46875 21.90625 -13.9375 C 21.332031 -13.40625 20.734375 -12.957031 20.109375 -12.59375 C 19.484375 -12.226562 18.847656 -11.953125 18.203125 -11.765625 C 17.628906 -11.617188 17.09375 -11.546875 16.59375 -11.546875 C 16.519531 -11.546875 16.445312 -11.546875 16.375 -11.546875 L 11.546875 -11.78125 C 11.535156 -11.78125 11.476562 -11.78125 11.375 -11.78125 C 11.28125 -11.78125 11.21875 -11.769531 11.1875 -11.75 C 11.144531 -11.71875 11.113281 -11.6875 11.09375 -11.65625 C 11.082031 -11.632812 11.078125 -11.582031 11.078125 -11.5 L 11.078125 -3.90625 C 11.078125 -3.375 11.222656 -2.9375 11.515625 -2.59375 C 11.804688 -2.25 12.179688 -1.972656 12.640625 -1.765625 C 13.109375 -1.566406 13.628906 -1.425781 14.203125 -1.34375 C 14.785156 -1.257812 15.363281 -1.21875 15.9375 -1.21875 C 16.007812 -1.21875 16.050781 -1.195312 16.0625 -1.15625 C 16.082031 -1.113281 16.09375 -1.078125 16.09375 -1.046875 L 16.09375 -0.15625 C 16.09375 -0.132812 16.082031 -0.101562 16.0625 -0.0625 C 16.039062 -0.0195312 16 0 15.9375 0 Z M 11.125 -14.078125 C 11.132812 -13.960938 11.160156 -13.859375 11.203125 -13.765625 C 11.253906 -13.679688 11.351562 -13.632812 11.5 -13.625 C 11.550781 -13.625 11.648438 -13.617188 11.796875 -13.609375 C 11.941406 -13.597656 12.109375 -13.582031 12.296875 -13.5625 C 12.484375 -13.550781 12.6875 -13.535156 12.90625 -13.515625 C 13.132812 -13.503906 13.351562 -13.5 13.5625 -13.5 C 14.46875 -13.5 15.257812 -13.679688 15.9375 -14.046875 C 16.625 -14.410156 17.191406 -14.921875 17.640625 -15.578125 C 18.085938 -16.234375 18.421875 -17.007812 18.640625 -17.90625 C 18.867188 -18.800781 18.984375 -19.785156 18.984375 -20.859375 C 18.984375 -23.085938 18.535156 -24.71875 17.640625 -25.75 C 16.753906 -26.789062 15.453125 -27.3125 13.734375 -27.3125 C 13.535156 -27.3125 13.351562 -27.304688 13.1875 -27.296875 C 13.03125 -27.296875 12.867188 -27.289062 12.703125 -27.28125 C 12.546875 -27.28125 12.375 -27.273438 12.1875 -27.265625 C 12.007812 -27.253906 11.804688 -27.242188 11.578125 -27.234375 C 11.503906 -27.234375 11.398438 -27.210938 11.265625 -27.171875 C 11.140625 -27.140625 11.078125 -27.050781 11.078125 -26.90625 L 11.078125 -14.671875 Z M 11.125 -14.078125 "/></g></g></g><g fill="#ffffff" fill-opacity="1"><g transform="translate(98.962422, 206.175342)"><g><path d="M 8.234375 -18.984375 C 8.285156 -19.015625 8.335938 -19.039062 8.390625 -19.0625 C 8.453125 -19.09375 8.5 -19.109375 8.53125 -19.109375 C 8.757812 -19.109375 8.875 -18.945312 8.875 -18.625 L 8.875 -15.1875 C 8.875 -15.144531 8.875 -15.09375 8.875 -15.03125 C 8.882812 -14.96875 8.925781 -14.9375 9 -14.9375 C 9.0625 -14.9375 9.113281 -14.957031 9.15625 -15 C 9.195312 -15.050781 9.238281 -15.097656 9.28125 -15.140625 C 9.519531 -15.460938 9.789062 -15.820312 10.09375 -16.21875 C 10.394531 -16.625 10.71875 -17 11.0625 -17.34375 C 11.40625 -17.695312 11.757812 -17.988281 12.125 -18.21875 C 12.488281 -18.457031 12.847656 -18.578125 13.203125 -18.578125 C 13.441406 -18.578125 13.753906 -18.507812 14.140625 -18.375 C 14.535156 -18.238281 14.914062 -18.078125 15.28125 -17.890625 C 15.65625 -17.710938 15.972656 -17.523438 16.234375 -17.328125 C 16.503906 -17.140625 16.640625 -16.984375 16.640625 -16.859375 C 16.640625 -16.742188 16.578125 -16.519531 16.453125 -16.1875 C 16.335938 -15.851562 16.1875 -15.515625 16 -15.171875 C 15.820312 -14.835938 15.628906 -14.539062 15.421875 -14.28125 C 15.210938 -14.019531 15.019531 -13.890625 14.84375 -13.890625 L 14.796875 -13.890625 C 14.554688 -13.972656 14.3125 -14.070312 14.0625 -14.1875 C 13.8125 -14.300781 13.554688 -14.414062 13.296875 -14.53125 C 13.046875 -14.644531 12.785156 -14.738281 12.515625 -14.8125 C 12.253906 -14.882812 11.988281 -14.921875 11.71875 -14.921875 C 11.320312 -14.921875 10.945312 -14.835938 10.59375 -14.671875 C 10.238281 -14.503906 9.9375 -14.285156 9.6875 -14.015625 C 9.445312 -13.753906 9.25 -13.460938 9.09375 -13.140625 C 8.945312 -12.816406 8.875 -12.507812 8.875 -12.21875 L 8.875 -3.671875 C 8.875 -3.285156 8.957031 -2.960938 9.125 -2.703125 C 9.289062 -2.441406 9.503906 -2.222656 9.765625 -2.046875 C 10.035156 -1.878906 10.328125 -1.75 10.640625 -1.65625 C 10.960938 -1.570312 11.269531 -1.503906 11.5625 -1.453125 C 11.863281 -1.398438 12.132812 -1.359375 12.375 -1.328125 C 12.613281 -1.296875 12.796875 -1.25 12.921875 -1.1875 C 13.054688 -1.132812 13.125 -0.945312 13.125 -0.625 C 13.125 -0.238281 13.054688 -0.03125 12.921875 0 L 1.25 0 C 1.113281 -0.03125 1.046875 -0.238281 1.046875 -0.625 C 1.046875 -0.945312 1.113281 -1.132812 1.25 -1.1875 C 1.425781 -1.269531 1.675781 -1.332031 2 -1.375 C 2.320312 -1.425781 2.644531 -1.519531 2.96875 -1.65625 C 3.289062 -1.800781 3.570312 -2.023438 3.8125 -2.328125 C 4.0625 -2.640625 4.1875 -3.085938 4.1875 -3.671875 L 4.1875 -13.40625 C 4.1875 -13.726562 4.097656 -13.976562 3.921875 -14.15625 C 3.742188 -14.34375 3.519531 -14.484375 3.25 -14.578125 C 2.976562 -14.671875 2.6875 -14.75 2.375 -14.8125 C 2.070312 -14.875 1.78125 -14.941406 1.5 -15.015625 C 1.414062 -15.046875 1.347656 -15.082031 1.296875 -15.125 C 1.253906 -15.175781 1.234375 -15.273438 1.234375 -15.421875 C 1.234375 -15.492188 1.253906 -15.5625 1.296875 -15.625 C 1.335938 -15.695312 1.414062 -15.765625 1.53125 -15.828125 Z M 8.234375 -18.984375 "/></g></g></g><g fill="#ffffff" fill-opacity="1"><g transform="translate(115.593464, 206.175342)"><g><path d="M 1.515625 -9.4375 C 1.515625 -10.707031 1.789062 -11.921875 2.34375 -13.078125 C 2.90625 -14.234375 3.660156 -15.253906 4.609375 -16.140625 C 5.554688 -17.035156 6.65625 -17.742188 7.90625 -18.265625 C 9.15625 -18.796875 10.476562 -19.0625 11.875 -19.0625 C 13.320312 -19.0625 14.695312 -18.8125 16 -18.3125 C 17.3125 -17.8125 18.460938 -17.128906 19.453125 -16.265625 C 20.453125 -15.398438 21.238281 -14.375 21.8125 -13.1875 C 22.394531 -12.007812 22.6875 -10.734375 22.6875 -9.359375 C 22.6875 -7.960938 22.421875 -6.660156 21.890625 -5.453125 C 21.359375 -4.242188 20.617188 -3.191406 19.671875 -2.296875 C 18.722656 -1.410156 17.597656 -0.710938 16.296875 -0.203125 C 15.003906 0.296875 13.585938 0.546875 12.046875 0.546875 C 10.523438 0.546875 9.117188 0.285156 7.828125 -0.234375 C 6.546875 -0.753906 5.4375 -1.460938 4.5 -2.359375 C 3.5625 -3.253906 2.828125 -4.304688 2.296875 -5.515625 C 1.773438 -6.734375 1.515625 -8.039062 1.515625 -9.4375 Z M 6.6875 -10.71875 C 6.6875 -9.988281 6.738281 -9.234375 6.84375 -8.453125 C 6.957031 -7.679688 7.117188 -6.925781 7.328125 -6.1875 C 7.546875 -5.457031 7.820312 -4.769531 8.15625 -4.125 C 8.488281 -3.476562 8.882812 -2.90625 9.34375 -2.40625 C 9.800781 -1.914062 10.316406 -1.53125 10.890625 -1.25 C 11.472656 -0.96875 12.128906 -0.828125 12.859375 -0.828125 C 13.648438 -0.828125 14.332031 -1.03125 14.90625 -1.4375 C 15.476562 -1.851562 15.945312 -2.390625 16.3125 -3.046875 C 16.6875 -3.710938 16.960938 -4.457031 17.140625 -5.28125 C 17.316406 -6.101562 17.40625 -6.925781 17.40625 -7.75 C 17.40625 -8.40625 17.34375 -9.097656 17.21875 -9.828125 C 17.101562 -10.566406 16.921875 -11.296875 16.671875 -12.015625 C 16.429688 -12.734375 16.132812 -13.421875 15.78125 -14.078125 C 15.4375 -14.742188 15.03125 -15.328125 14.5625 -15.828125 C 14.101562 -16.335938 13.585938 -16.738281 13.015625 -17.03125 C 12.441406 -17.332031 11.816406 -17.484375 11.140625 -17.484375 C 10.390625 -17.484375 9.734375 -17.273438 9.171875 -16.859375 C 8.609375 -16.453125 8.144531 -15.921875 7.78125 -15.265625 C 7.414062 -14.617188 7.140625 -13.894531 6.953125 -13.09375 C 6.773438 -12.289062 6.6875 -11.5 6.6875 -10.71875 Z M 6.6875 -10.71875 "/></g></g></g><g fill="#ffffff" fill-opacity="1"><g transform="translate(139.782227, 206.175342)"><g><path d="M 7.421875 -19.609375 C 7.472656 -19.640625 7.53125 -19.664062 7.59375 -19.6875 C 7.65625 -19.71875 7.695312 -19.734375 7.71875 -19.734375 C 7.945312 -19.734375 8.0625 -19.570312 8.0625 -19.25 L 8.0625 -17.109375 C 8.0625 -17.035156 8.09375 -16.976562 8.15625 -16.9375 C 8.21875 -16.894531 8.269531 -16.875 8.3125 -16.875 C 8.375 -16.875 8.4375 -16.890625 8.5 -16.921875 C 8.5625 -16.960938 8.617188 -17 8.671875 -17.03125 C 9.210938 -17.351562 9.695312 -17.625 10.125 -17.84375 C 10.5625 -18.0625 10.972656 -18.234375 11.359375 -18.359375 C 11.753906 -18.492188 12.160156 -18.585938 12.578125 -18.640625 C 12.992188 -18.691406 13.460938 -18.71875 13.984375 -18.71875 C 15.128906 -18.71875 16.15625 -18.441406 17.0625 -17.890625 C 17.976562 -17.347656 18.753906 -16.632812 19.390625 -15.75 C 20.023438 -14.875 20.507812 -13.882812 20.84375 -12.78125 C 21.175781 -11.675781 21.34375 -10.5625 21.34375 -9.4375 C 21.34375 -8.613281 21.226562 -7.789062 21 -6.96875 C 20.769531 -6.144531 20.453125 -5.363281 20.046875 -4.625 C 19.648438 -3.894531 19.164062 -3.210938 18.59375 -2.578125 C 18.03125 -1.953125 17.40625 -1.40625 16.71875 -0.9375 C 16.039062 -0.476562 15.316406 -0.117188 14.546875 0.140625 C 13.773438 0.410156 12.976562 0.546875 12.15625 0.546875 C 11.539062 0.546875 10.945312 0.503906 10.375 0.421875 C 9.800781 0.335938 9.171875 0.222656 8.484375 0.078125 C 8.253906 0.078125 8.128906 0.15625 8.109375 0.3125 C 8.097656 0.476562 8.082031 0.648438 8.0625 0.828125 L 8.0625 9.0625 C 8.0625 9.445312 8.144531 9.769531 8.3125 10.03125 C 8.488281 10.300781 8.707031 10.519531 8.96875 10.6875 C 9.226562 10.851562 9.515625 10.976562 9.828125 11.0625 C 10.148438 11.15625 10.457031 11.226562 10.75 11.28125 C 11.050781 11.332031 11.320312 11.375 11.5625 11.40625 C 11.800781 11.445312 11.984375 11.492188 12.109375 11.546875 C 12.242188 11.597656 12.3125 11.6875 12.3125 11.8125 C 12.3125 12 12.242188 12.101562 12.109375 12.125 L 0.4375 12.125 C 0.3125 12.101562 0.25 12 0.25 11.8125 C 0.25 11.6875 0.3125 11.597656 0.4375 11.546875 C 0.613281 11.460938 0.863281 11.394531 1.1875 11.34375 C 1.507812 11.300781 1.832031 11.207031 2.15625 11.0625 C 2.488281 10.925781 2.773438 10.707031 3.015625 10.40625 C 3.253906 10.101562 3.375 9.65625 3.375 9.0625 L 3.375 -14.03125 C 3.375 -14.351562 3.285156 -14.601562 3.109375 -14.78125 C 2.929688 -14.96875 2.707031 -15.109375 2.4375 -15.203125 C 2.175781 -15.296875 1.890625 -15.375 1.578125 -15.4375 C 1.265625 -15.5 0.96875 -15.570312 0.6875 -15.65625 C 0.601562 -15.675781 0.535156 -15.707031 0.484375 -15.75 C 0.441406 -15.800781 0.421875 -15.898438 0.421875 -16.046875 C 0.421875 -16.117188 0.441406 -16.1875 0.484375 -16.25 C 0.523438 -16.320312 0.609375 -16.390625 0.734375 -16.453125 Z M 12.1875 -16.4375 C 11.457031 -16.4375 10.789062 -16.332031 10.1875 -16.125 C 9.59375 -15.925781 8.988281 -15.597656 8.375 -15.140625 C 8.34375 -15.128906 8.3125 -15.101562 8.28125 -15.0625 C 8.25 -15.03125 8.21875 -15.003906 8.1875 -14.984375 L 8.0625 -14.859375 L 8.0625 -4.0625 C 8.0625 -4.019531 8.066406 -3.90625 8.078125 -3.71875 C 8.097656 -3.539062 8.117188 -3.378906 8.140625 -3.234375 C 8.179688 -2.953125 8.359375 -2.691406 8.671875 -2.453125 C 8.984375 -2.222656 9.335938 -2.019531 9.734375 -1.84375 C 10.128906 -1.675781 10.523438 -1.546875 10.921875 -1.453125 C 11.328125 -1.367188 11.648438 -1.328125 11.890625 -1.328125 C 12.773438 -1.328125 13.523438 -1.488281 14.140625 -1.8125 C 14.753906 -2.144531 15.25 -2.582031 15.625 -3.125 C 16 -3.664062 16.269531 -4.300781 16.4375 -5.03125 C 16.613281 -5.757812 16.703125 -6.535156 16.703125 -7.359375 C 16.703125 -7.992188 16.664062 -8.65625 16.59375 -9.34375 C 16.53125 -10.039062 16.425781 -10.722656 16.28125 -11.390625 C 16.144531 -12.066406 15.957031 -12.707031 15.71875 -13.3125 C 15.476562 -13.925781 15.191406 -14.460938 14.859375 -14.921875 C 14.535156 -15.378906 14.148438 -15.742188 13.703125 -16.015625 C 13.265625 -16.296875 12.757812 -16.4375 12.1875 -16.4375 Z M 12.1875 -16.4375 "/></g></g></g><g fill="#ffffff" fill-opacity="1"><g transform="translate(163.344534, 206.175342)"><g><path d="M 1.421875 -8.1875 C 1.421875 -9.757812 1.640625 -11.207031 2.078125 -12.53125 C 2.523438 -13.863281 3.164062 -15.015625 4 -15.984375 C 4.832031 -16.960938 5.851562 -17.71875 7.0625 -18.25 C 8.269531 -18.789062 9.644531 -19.0625 11.1875 -19.0625 C 11.644531 -19.0625 12.050781 -19.03125 12.40625 -18.96875 C 12.769531 -18.914062 13.101562 -18.835938 13.40625 -18.734375 C 13.71875 -18.628906 14.003906 -18.503906 14.265625 -18.359375 C 14.523438 -18.222656 14.789062 -18.070312 15.0625 -17.90625 C 15.375 -17.75 15.726562 -17.460938 16.125 -17.046875 C 16.519531 -16.628906 16.890625 -16.144531 17.234375 -15.59375 C 17.585938 -15.039062 17.882812 -14.445312 18.125 -13.8125 C 18.375 -13.1875 18.5 -12.585938 18.5 -12.015625 C 18.5 -11.816406 18.460938 -11.609375 18.390625 -11.390625 C 18.316406 -11.171875 18.191406 -11.0625 18.015625 -11.0625 L 6.078125 -11.0625 C 5.953125 -11.0625 5.863281 -10.9375 5.8125 -10.6875 C 5.757812 -10.445312 5.734375 -10.15625 5.734375 -9.8125 C 5.734375 -8.625 5.90625 -7.566406 6.25 -6.640625 C 6.59375 -5.710938 7.054688 -4.929688 7.640625 -4.296875 C 8.222656 -3.660156 8.890625 -3.175781 9.640625 -2.84375 C 10.398438 -2.507812 11.195312 -2.34375 12.03125 -2.34375 C 12.550781 -2.34375 13.054688 -2.410156 13.546875 -2.546875 C 14.035156 -2.691406 14.5 -2.878906 14.9375 -3.109375 C 15.382812 -3.335938 15.800781 -3.59375 16.1875 -3.875 C 16.582031 -4.164062 16.957031 -4.453125 17.3125 -4.734375 C 17.382812 -4.753906 17.4375 -4.765625 17.46875 -4.765625 C 17.507812 -4.765625 17.5625 -4.734375 17.625 -4.671875 C 17.75 -4.566406 17.867188 -4.441406 17.984375 -4.296875 C 18.109375 -4.148438 18.207031 -4.03125 18.28125 -3.9375 C 18.320312 -3.894531 18.34375 -3.859375 18.34375 -3.828125 C 18.34375 -3.785156 18.3125 -3.734375 18.25 -3.671875 C 17.8125 -3.148438 17.269531 -2.632812 16.625 -2.125 C 15.976562 -1.625 15.285156 -1.175781 14.546875 -0.78125 C 13.804688 -0.382812 13.050781 -0.0664062 12.28125 0.171875 C 11.519531 0.421875 10.796875 0.546875 10.109375 0.546875 C 8.722656 0.546875 7.488281 0.296875 6.40625 -0.203125 C 5.332031 -0.710938 4.421875 -1.378906 3.671875 -2.203125 C 2.929688 -3.023438 2.367188 -3.957031 1.984375 -5 C 1.609375 -6.050781 1.421875 -7.113281 1.421875 -8.1875 Z M 13.28125 -12.609375 C 13.632812 -12.609375 13.8125 -12.765625 13.8125 -13.078125 C 13.8125 -13.609375 13.722656 -14.101562 13.546875 -14.5625 C 13.378906 -15.03125 13.140625 -15.441406 12.828125 -15.796875 C 12.523438 -16.160156 12.15625 -16.441406 11.71875 -16.640625 C 11.28125 -16.835938 10.789062 -16.9375 10.25 -16.9375 C 9.601562 -16.9375 9.035156 -16.796875 8.546875 -16.515625 C 8.066406 -16.242188 7.65625 -15.910156 7.3125 -15.515625 C 6.976562 -15.128906 6.726562 -14.726562 6.5625 -14.3125 C 6.394531 -13.894531 6.3125 -13.539062 6.3125 -13.25 C 6.3125 -13.019531 6.34375 -12.851562 6.40625 -12.75 C 6.476562 -12.65625 6.566406 -12.609375 6.671875 -12.609375 Z M 13.28125 -12.609375 "/></g></g></g><g fill="#ffffff" fill-opacity="1"><g transform="translate(183.835254, 206.175342)"><g><path d="M 8.234375 -18.984375 C 8.285156 -19.015625 8.335938 -19.039062 8.390625 -19.0625 C 8.453125 -19.09375 8.5 -19.109375 8.53125 -19.109375 C 8.757812 -19.109375 8.875 -18.945312 8.875 -18.625 L 8.875 -15.1875 C 8.875 -15.144531 8.875 -15.09375 8.875 -15.03125 C 8.882812 -14.96875 8.925781 -14.9375 9 -14.9375 C 9.0625 -14.9375 9.113281 -14.957031 9.15625 -15 C 9.195312 -15.050781 9.238281 -15.097656 9.28125 -15.140625 C 9.519531 -15.460938 9.789062 -15.820312 10.09375 -16.21875 C 10.394531 -16.625 10.71875 -17 11.0625 -17.34375 C 11.40625 -17.695312 11.757812 -17.988281 12.125 -18.21875 C 12.488281 -18.457031 12.847656 -18.578125 13.203125 -18.578125 C 13.441406 -18.578125 13.753906 -18.507812 14.140625 -18.375 C 14.535156 -18.238281 14.914062 -18.078125 15.28125 -17.890625 C 15.65625 -17.710938 15.972656 -17.523438 16.234375 -17.328125 C 16.503906 -17.140625 16.640625 -16.984375 16.640625 -16.859375 C 16.640625 -16.742188 16.578125 -16.519531 16.453125 -16.1875 C 16.335938 -15.851562 16.1875 -15.515625 16 -15.171875 C 15.820312 -14.835938 15.628906 -14.539062 15.421875 -14.28125 C 15.210938 -14.019531 15.019531 -13.890625 14.84375 -13.890625 L 14.796875 -13.890625 C 14.554688 -13.972656 14.3125 -14.070312 14.0625 -14.1875 C 13.8125 -14.300781 13.554688 -14.414062 13.296875 -14.53125 C 13.046875 -14.644531 12.785156 -14.738281 12.515625 -14.8125 C 12.253906 -14.882812 11.988281 -14.921875 11.71875 -14.921875 C 11.320312 -14.921875 10.945312 -14.835938 10.59375 -14.671875 C 10.238281 -14.503906 9.9375 -14.285156 9.6875 -14.015625 C 9.445312 -13.753906 9.25 -13.460938 9.09375 -13.140625 C 8.945312 -12.816406 8.875 -12.507812 8.875 -12.21875 L 8.875 -3.671875 C 8.875 -3.285156 8.957031 -2.960938 9.125 -2.703125 C 9.289062 -2.441406 9.503906 -2.222656 9.765625 -2.046875 C 10.035156 -1.878906 10.328125 -1.75 10.640625 -1.65625 C 10.960938 -1.570312 11.269531 -1.503906 11.5625 -1.453125 C 11.863281 -1.398438 12.132812 -1.359375 12.375 -1.328125 C 12.613281 -1.296875 12.796875 -1.25 12.921875 -1.1875 C 13.054688 -1.132812 13.125 -0.945312 13.125 -0.625 C 13.125 -0.238281 13.054688 -0.03125 12.921875 0 L 1.25 0 C 1.113281 -0.03125 1.046875 -0.238281 1.046875 -0.625 C 1.046875 -0.945312 1.113281 -1.132812 1.25 -1.1875 C 1.425781 -1.269531 1.675781 -1.332031 2 -1.375 C 2.320312 -1.425781 2.644531 -1.519531 2.96875 -1.65625 C 3.289062 -1.800781 3.570312 -2.023438 3.8125 -2.328125 C 4.0625 -2.640625 4.1875 -3.085938 4.1875 -3.671875 L 4.1875 -13.40625 C 4.1875 -13.726562 4.097656 -13.976562 3.921875 -14.15625 C 3.742188 -14.34375 3.519531 -14.484375 3.25 -14.578125 C 2.976562 -14.671875 2.6875 -14.75 2.375 -14.8125 C 2.070312 -14.875 1.78125 -14.941406 1.5 -15.015625 C 1.414062 -15.046875 1.347656 -15.082031 1.296875 -15.125 C 1.253906 -15.175781 1.234375 -15.273438 1.234375 -15.421875 C 1.234375 -15.492188 1.253906 -15.5625 1.296875 -15.625 C 1.335938 -15.695312 1.414062 -15.765625 1.53125 -15.828125 Z M 8.234375 -18.984375 "/></g></g></g><g fill="#ffffff" fill-opacity="1"><g transform="translate(200.466296, 206.175342)"><g><path d="M 3.046875 -15.59375 L 1.53125 -15.59375 C 1.34375 -15.59375 1.195312 -15.640625 1.09375 -15.734375 C 0.988281 -15.828125 0.925781 -15.925781 0.90625 -16.03125 C 0.90625 -16.101562 0.914062 -16.175781 0.9375 -16.25 C 0.96875 -16.332031 1.003906 -16.390625 1.046875 -16.421875 C 1.316406 -16.597656 1.609375 -16.800781 1.921875 -17.03125 C 2.242188 -17.269531 2.5625 -17.515625 2.875 -17.765625 C 3.1875 -18.023438 3.488281 -18.28125 3.78125 -18.53125 C 4.070312 -18.789062 4.332031 -19.03125 4.5625 -19.25 C 4.695312 -19.394531 4.882812 -19.613281 5.125 -19.90625 C 5.363281 -20.207031 5.632812 -20.503906 5.9375 -20.796875 C 6.238281 -21.085938 6.5625 -21.34375 6.90625 -21.5625 C 7.257812 -21.78125 7.617188 -21.890625 7.984375 -21.890625 C 8.066406 -21.890625 8.160156 -21.863281 8.265625 -21.8125 C 8.378906 -21.757812 8.4375 -21.691406 8.4375 -21.609375 C 8.4375 -21.515625 8.410156 -21.367188 8.359375 -21.171875 C 8.316406 -20.984375 8.257812 -20.765625 8.1875 -20.515625 C 8.125 -20.273438 8.050781 -20.019531 7.96875 -19.75 C 7.882812 -19.476562 7.8125 -19.21875 7.75 -18.96875 C 7.75 -18.851562 7.765625 -18.757812 7.796875 -18.6875 C 7.828125 -18.625 7.914062 -18.585938 8.0625 -18.578125 L 13.21875 -18.578125 C 13.4375 -18.578125 13.582031 -18.539062 13.65625 -18.46875 C 13.738281 -18.394531 13.800781 -18.296875 13.84375 -18.171875 C 13.875 -18.109375 13.898438 -17.972656 13.921875 -17.765625 C 13.953125 -17.554688 13.976562 -17.328125 14 -17.078125 C 14.03125 -16.828125 14.054688 -16.578125 14.078125 -16.328125 C 14.097656 -16.078125 14.109375 -15.867188 14.109375 -15.703125 C 14.109375 -15.628906 14.054688 -15.59375 13.953125 -15.59375 L 7.859375 -15.59375 C 7.796875 -15.59375 7.757812 -15.578125 7.75 -15.546875 C 7.75 -15.515625 7.75 -15.46875 7.75 -15.40625 L 7.75 -5.359375 C 7.75 -4.921875 7.800781 -4.539062 7.90625 -4.21875 C 8.007812 -3.894531 8.144531 -3.625 8.3125 -3.40625 C 8.488281 -3.195312 8.679688 -3.035156 8.890625 -2.921875 C 9.109375 -2.816406 9.328125 -2.765625 9.546875 -2.765625 C 10.160156 -2.765625 10.660156 -2.851562 11.046875 -3.03125 C 11.441406 -3.21875 11.78125 -3.421875 12.0625 -3.640625 C 12.351562 -3.859375 12.601562 -4.054688 12.8125 -4.234375 C 13.03125 -4.421875 13.273438 -4.515625 13.546875 -4.515625 C 13.734375 -4.515625 13.84375 -4.4375 13.875 -4.28125 C 13.914062 -4.132812 13.9375 -4.019531 13.9375 -3.9375 C 13.9375 -3.757812 13.910156 -3.617188 13.859375 -3.515625 C 13.804688 -3.421875 13.769531 -3.347656 13.75 -3.296875 C 13.738281 -3.265625 13.664062 -3.148438 13.53125 -2.953125 C 13.394531 -2.753906 13.210938 -2.507812 12.984375 -2.21875 C 12.753906 -1.9375 12.472656 -1.632812 12.140625 -1.3125 C 11.804688 -0.988281 11.4375 -0.6875 11.03125 -0.40625 C 10.632812 -0.132812 10.195312 0.0859375 9.71875 0.265625 C 9.238281 0.453125 8.734375 0.546875 8.203125 0.546875 C 7.472656 0.546875 6.789062 0.410156 6.15625 0.140625 C 5.53125 -0.128906 4.988281 -0.488281 4.53125 -0.9375 C 4.070312 -1.394531 3.707031 -1.910156 3.4375 -2.484375 C 3.175781 -3.066406 3.046875 -3.664062 3.046875 -4.28125 Z M 3.046875 -15.59375 "/></g></g></g><g fill="#ffffff" fill-opacity="1"><g transform="translate(215.076556, 206.175342)"><g><path d="M 1.421875 0 C 1.335938 -0.03125 1.28125 -0.117188 1.25 -0.265625 C 1.226562 -0.421875 1.21875 -0.539062 1.21875 -0.625 C 1.21875 -0.695312 1.234375 -0.804688 1.265625 -0.953125 C 1.304688 -1.097656 1.359375 -1.1875 1.421875 -1.21875 C 1.585938 -1.289062 1.832031 -1.347656 2.15625 -1.390625 C 2.488281 -1.441406 2.816406 -1.539062 3.140625 -1.6875 C 3.460938 -1.832031 3.742188 -2.054688 3.984375 -2.359375 C 4.222656 -2.660156 4.34375 -3.109375 4.34375 -3.703125 L 4.34375 -13.40625 C 4.34375 -13.726562 4.253906 -13.976562 4.078125 -14.15625 C 3.910156 -14.34375 3.691406 -14.484375 3.421875 -14.578125 C 3.148438 -14.671875 2.859375 -14.75 2.546875 -14.8125 C 2.234375 -14.875 1.9375 -14.941406 1.65625 -15.015625 C 1.570312 -15.046875 1.503906 -15.082031 1.453125 -15.125 C 1.410156 -15.175781 1.390625 -15.273438 1.390625 -15.421875 C 1.390625 -15.492188 1.410156 -15.5625 1.453125 -15.625 C 1.492188 -15.695312 1.578125 -15.765625 1.703125 -15.828125 L 8.390625 -18.984375 C 8.441406 -19.015625 8.5 -19.039062 8.5625 -19.0625 C 8.625 -19.09375 8.664062 -19.109375 8.6875 -19.109375 C 8.914062 -19.109375 9.03125 -18.945312 9.03125 -18.625 L 9.03125 -3.703125 C 9.03125 -3.109375 9.148438 -2.660156 9.390625 -2.359375 C 9.640625 -2.054688 9.925781 -1.832031 10.25 -1.6875 C 10.570312 -1.539062 10.894531 -1.441406 11.21875 -1.390625 C 11.539062 -1.347656 11.789062 -1.289062 11.96875 -1.21875 C 12.019531 -1.1875 12.066406 -1.097656 12.109375 -0.953125 C 12.148438 -0.804688 12.171875 -0.695312 12.171875 -0.625 C 12.171875 -0.539062 12.15625 -0.421875 12.125 -0.265625 C 12.101562 -0.117188 12.050781 -0.03125 11.96875 0 Z M 3.484375 -26.421875 C 3.484375 -27.285156 3.738281 -27.972656 4.25 -28.484375 C 4.757812 -28.992188 5.445312 -29.25 6.3125 -29.25 C 7.175781 -29.25 7.863281 -28.992188 8.375 -28.484375 C 8.882812 -27.972656 9.140625 -27.285156 9.140625 -26.421875 C 9.140625 -25.554688 8.882812 -24.867188 8.375 -24.359375 C 7.863281 -23.859375 7.175781 -23.609375 6.3125 -23.609375 C 5.445312 -23.609375 4.757812 -23.859375 4.25 -24.359375 C 3.738281 -24.867188 3.484375 -25.554688 3.484375 -26.421875 Z M 3.484375 -26.421875 "/></g></g></g><g fill="#ffffff" fill-opacity="1"><g transform="translate(228.252049, 206.175342)"><g><path d="M 1.421875 -8.1875 C 1.421875 -9.757812 1.640625 -11.207031 2.078125 -12.53125 C 2.523438 -13.863281 3.164062 -15.015625 4 -15.984375 C 4.832031 -16.960938 5.851562 -17.71875 7.0625 -18.25 C 8.269531 -18.789062 9.644531 -19.0625 11.1875 -19.0625 C 11.644531 -19.0625 12.050781 -19.03125 12.40625 -18.96875 C 12.769531 -18.914062 13.101562 -18.835938 13.40625 -18.734375 C 13.71875 -18.628906 14.003906 -18.503906 14.265625 -18.359375 C 14.523438 -18.222656 14.789062 -18.070312 15.0625 -17.90625 C 15.375 -17.75 15.726562 -17.460938 16.125 -17.046875 C 16.519531 -16.628906 16.890625 -16.144531 17.234375 -15.59375 C 17.585938 -15.039062 17.882812 -14.445312 18.125 -13.8125 C 18.375 -13.1875 18.5 -12.585938 18.5 -12.015625 C 18.5 -11.816406 18.460938 -11.609375 18.390625 -11.390625 C 18.316406 -11.171875 18.191406 -11.0625 18.015625 -11.0625 L 6.078125 -11.0625 C 5.953125 -11.0625 5.863281 -10.9375 5.8125 -10.6875 C 5.757812 -10.445312 5.734375 -10.15625 5.734375 -9.8125 C 5.734375 -8.625 5.90625 -7.566406 6.25 -6.640625 C 6.59375 -5.710938 7.054688 -4.929688 7.640625 -4.296875 C 8.222656 -3.660156 8.890625 -3.175781 9.640625 -2.84375 C 10.398438 -2.507812 11.195312 -2.34375 12.03125 -2.34375 C 12.550781 -2.34375 13.054688 -2.410156 13.546875 -2.546875 C 14.035156 -2.691406 14.5 -2.878906 14.9375 -3.109375 C 15.382812 -3.335938 15.800781 -3.59375 16.1875 -3.875 C 16.582031 -4.164062 16.957031 -4.453125 17.3125 -4.734375 C 17.382812 -4.753906 17.4375 -4.765625 17.46875 -4.765625 C 17.507812 -4.765625 17.5625 -4.734375 17.625 -4.671875 C 17.75 -4.566406 17.867188 -4.441406 17.984375 -4.296875 C 18.109375 -4.148438 18.207031 -4.03125 18.28125 -3.9375 C 18.320312 -3.894531 18.34375 -3.859375 18.34375 -3.828125 C 18.34375 -3.785156 18.3125 -3.734375 18.25 -3.671875 C 17.8125 -3.148438 17.269531 -2.632812 16.625 -2.125 C 15.976562 -1.625 15.285156 -1.175781 14.546875 -0.78125 C 13.804688 -0.382812 13.050781 -0.0664062 12.28125 0.171875 C 11.519531 0.421875 10.796875 0.546875 10.109375 0.546875 C 8.722656 0.546875 7.488281 0.296875 6.40625 -0.203125 C 5.332031 -0.710938 4.421875 -1.378906 3.671875 -2.203125 C 2.929688 -3.023438 2.367188 -3.957031 1.984375 -5 C 1.609375 -6.050781 1.421875 -7.113281 1.421875 -8.1875 Z M 13.28125 -12.609375 C 13.632812 -12.609375 13.8125 -12.765625 13.8125 -13.078125 C 13.8125 -13.609375 13.722656 -14.101562 13.546875 -14.5625 C 13.378906 -15.03125 13.140625 -15.441406 12.828125 -15.796875 C 12.523438 -16.160156 12.15625 -16.441406 11.71875 -16.640625 C 11.28125 -16.835938 10.789062 -16.9375 10.25 -16.9375 C 9.601562 -16.9375 9.035156 -16.796875 8.546875 -16.515625 C 8.066406 -16.242188 7.65625 -15.910156 7.3125 -15.515625 C 6.976562 -15.128906 6.726562 -14.726562 6.5625 -14.3125 C 6.394531 -13.894531 6.3125 -13.539062 6.3125 -13.25 C 6.3125 -13.019531 6.34375 -12.851562 6.40625 -12.75 C 6.476562 -12.65625 6.566406 -12.609375 6.671875 -12.609375 Z M 13.28125 -12.609375 "/></g></g></g><g fill="#ffffff" fill-opacity="1"><g transform="translate(248.742769, 206.175342)"><g><path d="M 3.984375 -0.125 C 3.859375 -0.125 3.75 -0.0859375 3.65625 -0.015625 C 3.5625 0.046875 3.46875 0.117188 3.375 0.203125 C 3.289062 0.296875 3.207031 0.375 3.125 0.4375 C 3.050781 0.507812 2.957031 0.546875 2.84375 0.546875 L 2.125 0.546875 C 2.09375 0.546875 2.050781 0.351562 2 -0.03125 C 1.945312 -0.425781 1.890625 -0.894531 1.828125 -1.4375 C 1.765625 -1.988281 1.710938 -2.554688 1.671875 -3.140625 C 1.640625 -3.722656 1.625 -4.210938 1.625 -4.609375 C 1.625 -4.828125 1.695312 -4.960938 1.84375 -5.015625 C 2 -5.078125 2.164062 -5.109375 2.34375 -5.109375 C 2.4375 -5.109375 2.539062 -5.070312 2.65625 -5 C 2.769531 -4.9375 2.878906 -4.851562 2.984375 -4.75 C 3.085938 -4.65625 3.175781 -4.550781 3.25 -4.4375 C 3.332031 -4.332031 3.394531 -4.242188 3.4375 -4.171875 C 3.664062 -3.671875 3.894531 -3.21875 4.125 -2.8125 C 4.351562 -2.40625 4.613281 -2.0625 4.90625 -1.78125 C 5.207031 -1.5 5.5625 -1.28125 5.96875 -1.125 C 6.375 -0.96875 6.859375 -0.890625 7.421875 -0.890625 C 7.847656 -0.890625 8.195312 -0.960938 8.46875 -1.109375 C 8.738281 -1.253906 8.945312 -1.445312 9.09375 -1.6875 C 9.25 -1.9375 9.347656 -2.21875 9.390625 -2.53125 C 9.441406 -2.84375 9.46875 -3.164062 9.46875 -3.5 C 9.46875 -4.175781 9.265625 -4.742188 8.859375 -5.203125 C 8.453125 -5.671875 7.945312 -6.101562 7.34375 -6.5 C 6.75 -6.90625 6.097656 -7.316406 5.390625 -7.734375 C 4.679688 -8.160156 4.023438 -8.648438 3.421875 -9.203125 C 2.828125 -9.753906 2.328125 -10.410156 1.921875 -11.171875 C 1.515625 -11.929688 1.3125 -12.867188 1.3125 -13.984375 C 1.3125 -14.640625 1.515625 -15.269531 1.921875 -15.875 C 2.328125 -16.488281 2.851562 -17.03125 3.5 -17.5 C 4.144531 -17.976562 4.867188 -18.359375 5.671875 -18.640625 C 6.472656 -18.921875 7.269531 -19.0625 8.0625 -19.0625 C 8.476562 -19.0625 8.898438 -19.023438 9.328125 -18.953125 C 9.753906 -18.878906 10.144531 -18.796875 10.5 -18.703125 C 10.851562 -18.609375 11.15625 -18.515625 11.40625 -18.421875 C 11.65625 -18.328125 11.816406 -18.257812 11.890625 -18.21875 C 11.984375 -18.144531 12.0625 -18.035156 12.125 -17.890625 C 12.1875 -17.753906 12.222656 -17.53125 12.234375 -17.21875 C 12.253906 -16.914062 12.269531 -16.503906 12.28125 -15.984375 C 12.289062 -15.460938 12.296875 -14.785156 12.296875 -13.953125 C 12.296875 -13.722656 12.207031 -13.554688 12.03125 -13.453125 C 11.863281 -13.347656 11.703125 -13.296875 11.546875 -13.296875 C 11.398438 -13.296875 11.253906 -13.320312 11.109375 -13.375 C 10.960938 -13.4375 10.875 -13.523438 10.84375 -13.640625 C 10.675781 -14.066406 10.488281 -14.488281 10.28125 -14.90625 C 10.082031 -15.332031 9.851562 -15.71875 9.59375 -16.0625 C 9.332031 -16.40625 9.023438 -16.679688 8.671875 -16.890625 C 8.316406 -17.097656 7.910156 -17.203125 7.453125 -17.203125 C 7.191406 -17.203125 6.925781 -17.164062 6.65625 -17.09375 C 6.382812 -17.03125 6.140625 -16.898438 5.921875 -16.703125 C 5.703125 -16.515625 5.53125 -16.25 5.40625 -15.90625 C 5.28125 -15.570312 5.21875 -15.144531 5.21875 -14.625 C 5.21875 -14.164062 5.425781 -13.738281 5.84375 -13.34375 C 6.269531 -12.945312 6.800781 -12.550781 7.4375 -12.15625 C 8.070312 -11.757812 8.765625 -11.332031 9.515625 -10.875 C 10.265625 -10.414062 10.953125 -9.890625 11.578125 -9.296875 C 12.210938 -8.703125 12.742188 -8.015625 13.171875 -7.234375 C 13.597656 -6.460938 13.8125 -5.554688 13.8125 -4.515625 C 13.8125 -3.734375 13.609375 -3.023438 13.203125 -2.390625 C 12.796875 -1.765625 12.273438 -1.234375 11.640625 -0.796875 C 11.003906 -0.367188 10.300781 -0.0390625 9.53125 0.1875 C 8.757812 0.425781 8.003906 0.546875 7.265625 0.546875 C 6.878906 0.546875 6.5 0.507812 6.125 0.4375 C 5.75 0.375 5.40625 0.296875 5.09375 0.203125 C 4.78125 0.117188 4.519531 0.046875 4.3125 -0.015625 C 4.113281 -0.0859375 4.003906 -0.125 3.984375 -0.125 Z M 3.984375 -0.125 "/></g></g></g></g></g></svg>