<svg xmlns="http://www.w3.org/2000/svg" viewBox="47 0 58 52" preserveAspectRatio="xMidYMid meet"><path fill="#ffffff" d="M 98.988281 17.324219 L 91.832031 12.265625 L 91.832031 5.886719 L 87.875 5.886719 L 87.875 9.46875 L 76.578125 1.480469 L 54.167969 17.324219 L 50.683594 19.789062 L 54.167969 22.25 L 57.65625 19.789062 L 76.578125 6.40625 L 95.503906 19.789062 L 98.988281 22.25 L 102.472656 19.789062 Z M 98.988281 17.324219 " fill-opacity="1" fill-rule="nonzero"/><path fill="#a78248" d="M 71.667969 43.453125 L 68.875 46.3125 L 60.964844 46.289062 L 60.964844 28.417969 L 63.757812 28.449219 L 63.757812 43.453125 L 68.875 43.453125 L 68.875 25.972656 L 63.757812 25.972656 L 60.964844 25.941406 L 60.964844 23.199219 L 68.875 23.179688 L 71.667969 25.972656 Z M 57.808594 23.226562 L 57.808594 50.027344 L 74.828125 50.027344 L 74.828125 11.195312 Z M 57.808594 23.226562 " fill-opacity="1" fill-rule="nonzero"/><path fill="#ffffff" d="M 92.191406 31.238281 L 89.398438 31.238281 L 89.398438 25.972656 L 84.28125 25.972656 L 84.28125 33.738281 L 92.191406 33.738281 L 92.191406 46.3125 L 81.488281 46.289062 L 81.488281 38.757812 L 84.28125 38.789062 L 84.28125 43.453125 L 89.398438 43.453125 L 89.398438 36.53125 L 84.28125 36.53125 L 81.488281 36.5 L 81.488281 23.148438 L 92.191406 23.179688 Z M 85.746094 16.4375 L 78.332031 11.195312 L 78.332031 50.027344 L 95.351562 50.027344 L 95.351562 23.226562 Z M 85.746094 16.4375 " fill-opacity="1" fill-rule="nonzero"/></svg>