<svg xmlns="http://www.w3.org/2000/svg" xmlns:xlink="http://www.w3.org/1999/xlink" width="204" zoomAndPan="magnify" viewBox="0 0 153 98.999996" height="132" preserveAspectRatio="xMidYMid meet" version="1.0"><defs><g/><clipPath id="f95f9d0af8"><rect x="0" width="139" y="0" height="42"/></clipPath></defs><path fill="#000000" d="M 98.988281 17.324219 L 91.832031 12.265625 L 91.832031 5.886719 L 87.875 5.886719 L 87.875 9.46875 L 76.578125 1.480469 L 54.167969 17.324219 L 50.683594 19.789062 L 54.167969 22.25 L 57.65625 19.789062 L 76.578125 6.40625 L 95.503906 19.789062 L 98.988281 22.25 L 102.472656 19.789062 Z M 98.988281 17.324219 " fill-opacity="1" fill-rule="nonzero"/><path fill="#a78248" d="M 71.667969 43.453125 L 68.875 46.3125 L 60.964844 46.289062 L 60.964844 28.417969 L 63.757812 28.449219 L 63.757812 43.453125 L 68.875 43.453125 L 68.875 25.972656 L 63.757812 25.972656 L 60.964844 25.941406 L 60.964844 23.199219 L 68.875 23.179688 L 71.667969 25.972656 Z M 57.808594 23.226562 L 57.808594 50.027344 L 74.828125 50.027344 L 74.828125 11.195312 Z M 57.808594 23.226562 " fill-opacity="1" fill-rule="nonzero"/><path fill="#000000" d="M 92.191406 31.238281 L 89.398438 31.238281 L 89.398438 25.972656 L 84.28125 25.972656 L 84.28125 33.738281 L 92.191406 33.738281 L 92.191406 46.3125 L 81.488281 46.289062 L 81.488281 38.757812 L 84.28125 38.789062 L 84.28125 43.453125 L 89.398438 43.453125 L 89.398438 36.53125 L 84.28125 36.53125 L 81.488281 36.5 L 81.488281 23.148438 L 92.191406 23.179688 Z M 85.746094 16.4375 L 78.332031 11.195312 L 78.332031 50.027344 L 95.351562 50.027344 L 95.351562 23.226562 Z M 85.746094 16.4375 " fill-opacity="1" fill-rule="nonzero"/><g transform="matrix(1, 0, 0, 1, 7, 51)"><g clip-path="url(#f95f9d0af8)"><g fill="#000000" fill-opacity="1"><g transform="translate(1.030091, 16.793264)"><g><path d="M 0.4375 0 C 0.40625 0 0.382812 -0.0078125 0.375 -0.03125 C 0.375 -0.0507812 0.375 -0.0625 0.375 -0.0625 L 0.375 -0.421875 C 0.375 -0.421875 0.375 -0.429688 0.375 -0.453125 C 0.382812 -0.472656 0.40625 -0.484375 0.4375 -0.484375 L 0.625 -0.484375 C 0.738281 -0.484375 0.878906 -0.488281 1.046875 -0.5 C 1.210938 -0.519531 1.375 -0.5625 1.53125 -0.625 C 1.695312 -0.6875 1.835938 -0.78125 1.953125 -0.90625 C 2.066406 -1.039062 2.125 -1.21875 2.125 -1.4375 L 2.125 -10.234375 C 2.125 -10.398438 2.082031 -10.539062 2 -10.65625 C 1.925781 -10.78125 1.832031 -10.878906 1.71875 -10.953125 C 1.613281 -11.023438 1.488281 -11.078125 1.34375 -11.109375 C 1.207031 -11.148438 1.082031 -11.171875 0.96875 -11.171875 L 0.4375 -11.171875 C 0.40625 -11.171875 0.382812 -11.175781 0.375 -11.1875 C 0.375 -11.207031 0.375 -11.222656 0.375 -11.234375 L 0.375 -11.59375 C 0.375 -11.59375 0.375 -11.601562 0.375 -11.625 C 0.382812 -11.644531 0.40625 -11.65625 0.4375 -11.65625 L 0.625 -11.65625 L 4.015625 -11.71875 C 4.328125 -11.71875 4.664062 -11.71875 5.03125 -11.71875 C 5.40625 -11.726562 5.753906 -11.734375 6.078125 -11.734375 C 6.421875 -11.734375 6.726562 -11.726562 7 -11.71875 C 7.28125 -11.707031 7.546875 -11.6875 7.796875 -11.65625 C 8.054688 -11.632812 8.3125 -11.601562 8.5625 -11.5625 C 8.820312 -11.53125 9.113281 -11.484375 9.4375 -11.421875 C 10.039062 -11.285156 10.601562 -11.046875 11.125 -10.703125 C 11.65625 -10.367188 12.113281 -9.957031 12.5 -9.46875 C 12.882812 -8.988281 13.179688 -8.453125 13.390625 -7.859375 C 13.609375 -7.273438 13.71875 -6.675781 13.71875 -6.0625 C 13.71875 -5.46875 13.632812 -4.90625 13.46875 -4.375 C 13.3125 -3.84375 13.082031 -3.351562 12.78125 -2.90625 C 12.488281 -2.457031 12.140625 -2.050781 11.734375 -1.6875 C 11.335938 -1.332031 10.894531 -1.03125 10.40625 -0.78125 C 9.925781 -0.53125 9.410156 -0.335938 8.859375 -0.203125 C 8.316406 -0.0664062 7.757812 0 7.1875 0 Z M 4.46875 -1.28125 C 4.46875 -1.125 4.519531 -1 4.625 -0.90625 C 4.726562 -0.820312 4.863281 -0.757812 5.03125 -0.71875 C 5.195312 -0.675781 5.390625 -0.648438 5.609375 -0.640625 C 5.835938 -0.640625 6.078125 -0.640625 6.328125 -0.640625 C 7.960938 -0.640625 9.1875 -1.085938 10 -1.984375 C 10.8125 -2.890625 11.21875 -4.207031 11.21875 -5.9375 C 11.21875 -6.6875 11.125 -7.378906 10.9375 -8.015625 C 10.757812 -8.648438 10.484375 -9.191406 10.109375 -9.640625 C 9.734375 -10.097656 9.257812 -10.453125 8.6875 -10.703125 C 8.113281 -10.960938 7.441406 -11.09375 6.671875 -11.09375 L 4.671875 -11.09375 C 4.585938 -11.09375 4.53125 -11.070312 4.5 -11.03125 C 4.476562 -11 4.46875 -10.945312 4.46875 -10.875 Z M 4.46875 -1.28125 "/></g></g></g><g fill="#000000" fill-opacity="1"><g transform="translate(15.49855, 16.793264)"><g><path d="M 0.625 -3.84375 C 0.625 -4.363281 0.734375 -4.859375 0.953125 -5.328125 C 1.179688 -5.804688 1.488281 -6.226562 1.875 -6.59375 C 2.257812 -6.957031 2.707031 -7.242188 3.21875 -7.453125 C 3.726562 -7.671875 4.269531 -7.78125 4.84375 -7.78125 C 5.4375 -7.78125 6 -7.675781 6.53125 -7.46875 C 7.0625 -7.269531 7.53125 -6.992188 7.9375 -6.640625 C 8.34375 -6.285156 8.660156 -5.863281 8.890625 -5.375 C 9.128906 -4.894531 9.25 -4.375 9.25 -3.8125 C 9.25 -3.238281 9.140625 -2.707031 8.921875 -2.21875 C 8.710938 -1.726562 8.414062 -1.300781 8.03125 -0.9375 C 7.644531 -0.570312 7.1875 -0.285156 6.65625 -0.078125 C 6.125 0.117188 5.546875 0.21875 4.921875 0.21875 C 4.296875 0.21875 3.71875 0.113281 3.1875 -0.09375 C 2.664062 -0.300781 2.210938 -0.585938 1.828125 -0.953125 C 1.453125 -1.328125 1.15625 -1.757812 0.9375 -2.25 C 0.726562 -2.75 0.625 -3.28125 0.625 -3.84375 Z M 2.734375 -4.375 C 2.734375 -4.070312 2.753906 -3.765625 2.796875 -3.453125 C 2.835938 -3.140625 2.898438 -2.832031 2.984375 -2.53125 C 3.078125 -2.226562 3.191406 -1.941406 3.328125 -1.671875 C 3.460938 -1.410156 3.625 -1.179688 3.8125 -0.984375 C 4 -0.785156 4.207031 -0.628906 4.4375 -0.515625 C 4.675781 -0.398438 4.945312 -0.34375 5.25 -0.34375 C 5.570312 -0.34375 5.847656 -0.425781 6.078125 -0.59375 C 6.316406 -0.757812 6.507812 -0.976562 6.65625 -1.25 C 6.8125 -1.519531 6.921875 -1.820312 6.984375 -2.15625 C 7.054688 -2.488281 7.09375 -2.820312 7.09375 -3.15625 C 7.09375 -3.425781 7.066406 -3.710938 7.015625 -4.015625 C 6.972656 -4.316406 6.898438 -4.613281 6.796875 -4.90625 C 6.703125 -5.195312 6.582031 -5.476562 6.4375 -5.75 C 6.300781 -6.019531 6.132812 -6.253906 5.9375 -6.453125 C 5.75 -6.660156 5.535156 -6.828125 5.296875 -6.953125 C 5.066406 -7.078125 4.816406 -7.140625 4.546875 -7.140625 C 4.234375 -7.140625 3.960938 -7.050781 3.734375 -6.875 C 3.503906 -6.707031 3.316406 -6.488281 3.171875 -6.21875 C 3.023438 -5.957031 2.914062 -5.660156 2.84375 -5.328125 C 2.769531 -5.003906 2.734375 -4.6875 2.734375 -4.375 Z M 2.734375 -4.375 "/></g></g></g><g fill="#000000" fill-opacity="1"><g transform="translate(25.372407, 16.793264)"><g><path d="M 1.625 -0.046875 C 1.570312 -0.046875 1.523438 -0.03125 1.484375 0 C 1.453125 0.0195312 1.414062 0.046875 1.375 0.078125 C 1.34375 0.117188 1.3125 0.148438 1.28125 0.171875 C 1.25 0.203125 1.207031 0.21875 1.15625 0.21875 L 0.859375 0.21875 C 0.847656 0.21875 0.832031 0.140625 0.8125 -0.015625 C 0.789062 -0.171875 0.765625 -0.359375 0.734375 -0.578125 C 0.710938 -0.804688 0.691406 -1.039062 0.671875 -1.28125 C 0.660156 -1.519531 0.65625 -1.71875 0.65625 -1.875 C 0.65625 -1.96875 0.6875 -2.023438 0.75 -2.046875 C 0.8125 -2.078125 0.878906 -2.09375 0.953125 -2.09375 C 0.992188 -2.09375 1.035156 -2.078125 1.078125 -2.046875 C 1.128906 -2.015625 1.175781 -1.976562 1.21875 -1.9375 C 1.257812 -1.894531 1.296875 -1.851562 1.328125 -1.8125 C 1.359375 -1.769531 1.382812 -1.734375 1.40625 -1.703125 C 1.5 -1.492188 1.59375 -1.304688 1.6875 -1.140625 C 1.78125 -0.984375 1.882812 -0.84375 2 -0.71875 C 2.125 -0.601562 2.269531 -0.515625 2.4375 -0.453125 C 2.601562 -0.390625 2.800781 -0.359375 3.03125 -0.359375 C 3.207031 -0.359375 3.347656 -0.390625 3.453125 -0.453125 C 3.566406 -0.515625 3.648438 -0.59375 3.703125 -0.6875 C 3.765625 -0.789062 3.804688 -0.90625 3.828125 -1.03125 C 3.847656 -1.15625 3.859375 -1.285156 3.859375 -1.421875 C 3.859375 -1.703125 3.773438 -1.9375 3.609375 -2.125 C 3.441406 -2.3125 3.234375 -2.488281 2.984375 -2.65625 C 2.742188 -2.820312 2.476562 -2.988281 2.1875 -3.15625 C 1.90625 -3.332031 1.640625 -3.53125 1.390625 -3.75 C 1.148438 -3.976562 0.945312 -4.242188 0.78125 -4.546875 C 0.613281 -4.859375 0.53125 -5.242188 0.53125 -5.703125 C 0.53125 -5.972656 0.613281 -6.234375 0.78125 -6.484375 C 0.945312 -6.734375 1.160156 -6.953125 1.421875 -7.140625 C 1.691406 -7.335938 1.988281 -7.492188 2.3125 -7.609375 C 2.632812 -7.722656 2.960938 -7.78125 3.296875 -7.78125 C 3.460938 -7.78125 3.628906 -7.765625 3.796875 -7.734375 C 3.972656 -7.703125 4.132812 -7.664062 4.28125 -7.625 C 4.425781 -7.59375 4.550781 -7.554688 4.65625 -7.515625 C 4.757812 -7.472656 4.820312 -7.445312 4.84375 -7.4375 C 4.882812 -7.40625 4.914062 -7.359375 4.9375 -7.296875 C 4.96875 -7.242188 4.984375 -7.15625 4.984375 -7.03125 C 4.992188 -6.90625 5 -6.734375 5 -6.515625 C 5.007812 -6.304688 5.015625 -6.03125 5.015625 -5.6875 C 5.015625 -5.59375 4.976562 -5.523438 4.90625 -5.484375 C 4.84375 -5.441406 4.773438 -5.421875 4.703125 -5.421875 C 4.648438 -5.421875 4.59375 -5.429688 4.53125 -5.453125 C 4.476562 -5.484375 4.441406 -5.519531 4.421875 -5.5625 C 4.359375 -5.738281 4.285156 -5.910156 4.203125 -6.078125 C 4.117188 -6.253906 4.019531 -6.410156 3.90625 -6.546875 C 3.800781 -6.691406 3.675781 -6.804688 3.53125 -6.890625 C 3.394531 -6.972656 3.234375 -7.015625 3.046875 -7.015625 C 2.929688 -7.015625 2.816406 -7 2.703125 -6.96875 C 2.597656 -6.945312 2.5 -6.894531 2.40625 -6.8125 C 2.320312 -6.738281 2.253906 -6.628906 2.203125 -6.484375 C 2.148438 -6.347656 2.125 -6.175781 2.125 -5.96875 C 2.125 -5.78125 2.207031 -5.601562 2.375 -5.4375 C 2.550781 -5.28125 2.769531 -5.117188 3.03125 -4.953125 C 3.289062 -4.796875 3.570312 -4.625 3.875 -4.4375 C 4.1875 -4.25 4.46875 -4.035156 4.71875 -3.796875 C 4.976562 -3.554688 5.195312 -3.273438 5.375 -2.953125 C 5.550781 -2.640625 5.640625 -2.269531 5.640625 -1.84375 C 5.640625 -1.519531 5.554688 -1.226562 5.390625 -0.96875 C 5.222656 -0.71875 5.007812 -0.503906 4.75 -0.328125 C 4.488281 -0.148438 4.203125 -0.015625 3.890625 0.078125 C 3.578125 0.171875 3.265625 0.21875 2.953125 0.21875 C 2.804688 0.21875 2.65625 0.203125 2.5 0.171875 C 2.34375 0.148438 2.203125 0.117188 2.078125 0.078125 C 1.953125 0.046875 1.847656 0.0195312 1.765625 0 C 1.679688 -0.03125 1.632812 -0.046875 1.625 -0.046875 Z M 1.625 -0.046875 "/></g></g></g><g fill="#000000" fill-opacity="1"><g transform="translate(31.625025, 16.793264)"><g><path d="M 1.625 -0.046875 C 1.570312 -0.046875 1.523438 -0.03125 1.484375 0 C 1.453125 0.0195312 1.414062 0.046875 1.375 0.078125 C 1.34375 0.117188 1.3125 0.148438 1.28125 0.171875 C 1.25 0.203125 1.207031 0.21875 1.15625 0.21875 L 0.859375 0.21875 C 0.847656 0.21875 0.832031 0.140625 0.8125 -0.015625 C 0.789062 -0.171875 0.765625 -0.359375 0.734375 -0.578125 C 0.710938 -0.804688 0.691406 -1.039062 0.671875 -1.28125 C 0.660156 -1.519531 0.65625 -1.71875 0.65625 -1.875 C 0.65625 -1.96875 0.6875 -2.023438 0.75 -2.046875 C 0.8125 -2.078125 0.878906 -2.09375 0.953125 -2.09375 C 0.992188 -2.09375 1.035156 -2.078125 1.078125 -2.046875 C 1.128906 -2.015625 1.175781 -1.976562 1.21875 -1.9375 C 1.257812 -1.894531 1.296875 -1.851562 1.328125 -1.8125 C 1.359375 -1.769531 1.382812 -1.734375 1.40625 -1.703125 C 1.5 -1.492188 1.59375 -1.304688 1.6875 -1.140625 C 1.78125 -0.984375 1.882812 -0.84375 2 -0.71875 C 2.125 -0.601562 2.269531 -0.515625 2.4375 -0.453125 C 2.601562 -0.390625 2.800781 -0.359375 3.03125 -0.359375 C 3.207031 -0.359375 3.347656 -0.390625 3.453125 -0.453125 C 3.566406 -0.515625 3.648438 -0.59375 3.703125 -0.6875 C 3.765625 -0.789062 3.804688 -0.90625 3.828125 -1.03125 C 3.847656 -1.15625 3.859375 -1.285156 3.859375 -1.421875 C 3.859375 -1.703125 3.773438 -1.9375 3.609375 -2.125 C 3.441406 -2.3125 3.234375 -2.488281 2.984375 -2.65625 C 2.742188 -2.820312 2.476562 -2.988281 2.1875 -3.15625 C 1.90625 -3.332031 1.640625 -3.53125 1.390625 -3.75 C 1.148438 -3.976562 0.945312 -4.242188 0.78125 -4.546875 C 0.613281 -4.859375 0.53125 -5.242188 0.53125 -5.703125 C 0.53125 -5.972656 0.613281 -6.234375 0.78125 -6.484375 C 0.945312 -6.734375 1.160156 -6.953125 1.421875 -7.140625 C 1.691406 -7.335938 1.988281 -7.492188 2.3125 -7.609375 C 2.632812 -7.722656 2.960938 -7.78125 3.296875 -7.78125 C 3.460938 -7.78125 3.628906 -7.765625 3.796875 -7.734375 C 3.972656 -7.703125 4.132812 -7.664062 4.28125 -7.625 C 4.425781 -7.59375 4.550781 -7.554688 4.65625 -7.515625 C 4.757812 -7.472656 4.820312 -7.445312 4.84375 -7.4375 C 4.882812 -7.40625 4.914062 -7.359375 4.9375 -7.296875 C 4.96875 -7.242188 4.984375 -7.15625 4.984375 -7.03125 C 4.992188 -6.90625 5 -6.734375 5 -6.515625 C 5.007812 -6.304688 5.015625 -6.03125 5.015625 -5.6875 C 5.015625 -5.59375 4.976562 -5.523438 4.90625 -5.484375 C 4.84375 -5.441406 4.773438 -5.421875 4.703125 -5.421875 C 4.648438 -5.421875 4.59375 -5.429688 4.53125 -5.453125 C 4.476562 -5.484375 4.441406 -5.519531 4.421875 -5.5625 C 4.359375 -5.738281 4.285156 -5.910156 4.203125 -6.078125 C 4.117188 -6.253906 4.019531 -6.410156 3.90625 -6.546875 C 3.800781 -6.691406 3.675781 -6.804688 3.53125 -6.890625 C 3.394531 -6.972656 3.234375 -7.015625 3.046875 -7.015625 C 2.929688 -7.015625 2.816406 -7 2.703125 -6.96875 C 2.597656 -6.945312 2.5 -6.894531 2.40625 -6.8125 C 2.320312 -6.738281 2.253906 -6.628906 2.203125 -6.484375 C 2.148438 -6.347656 2.125 -6.175781 2.125 -5.96875 C 2.125 -5.78125 2.207031 -5.601562 2.375 -5.4375 C 2.550781 -5.28125 2.769531 -5.117188 3.03125 -4.953125 C 3.289062 -4.796875 3.570312 -4.625 3.875 -4.4375 C 4.1875 -4.25 4.46875 -4.035156 4.71875 -3.796875 C 4.976562 -3.554688 5.195312 -3.273438 5.375 -2.953125 C 5.550781 -2.640625 5.640625 -2.269531 5.640625 -1.84375 C 5.640625 -1.519531 5.554688 -1.226562 5.390625 -0.96875 C 5.222656 -0.71875 5.007812 -0.503906 4.75 -0.328125 C 4.488281 -0.148438 4.203125 -0.015625 3.890625 0.078125 C 3.578125 0.171875 3.265625 0.21875 2.953125 0.21875 C 2.804688 0.21875 2.65625 0.203125 2.5 0.171875 C 2.34375 0.148438 2.203125 0.117188 2.078125 0.078125 C 1.953125 0.046875 1.847656 0.0195312 1.765625 0 C 1.679688 -0.03125 1.632812 -0.046875 1.625 -0.046875 Z M 1.625 -0.046875 "/></g></g></g><g fill="#000000" fill-opacity="1"><g transform="translate(37.877642, 16.793264)"><g/></g></g><g fill="#000000" fill-opacity="1"><g transform="translate(42.414502, 16.793264)"><g><path d="M 9.75 -1.4375 C 9.875 -1.238281 10.003906 -1.0625 10.140625 -0.90625 C 10.285156 -0.757812 10.453125 -0.6875 10.640625 -0.6875 C 10.691406 -0.6875 10.769531 -0.703125 10.875 -0.734375 C 10.988281 -0.773438 11.101562 -0.816406 11.21875 -0.859375 C 11.34375 -0.910156 11.457031 -0.953125 11.5625 -0.984375 C 11.675781 -1.023438 11.765625 -1.046875 11.828125 -1.046875 C 11.898438 -1.046875 11.957031 -1.03125 12 -1 C 12.050781 -0.96875 12.085938 -0.9375 12.109375 -0.90625 C 12.128906 -0.875 12.144531 -0.84375 12.15625 -0.8125 C 12.164062 -0.78125 12.171875 -0.757812 12.171875 -0.75 C 12.171875 -0.726562 12.160156 -0.691406 12.140625 -0.640625 C 12.117188 -0.597656 12.066406 -0.546875 11.984375 -0.484375 C 11.671875 -0.285156 11.335938 -0.113281 10.984375 0.03125 C 10.628906 0.175781 10.242188 0.25 9.828125 0.25 C 9.566406 0.25 9.335938 0.207031 9.140625 0.125 C 8.941406 0.0390625 8.765625 -0.0664062 8.609375 -0.203125 C 8.453125 -0.335938 8.304688 -0.492188 8.171875 -0.671875 C 8.046875 -0.859375 7.921875 -1.046875 7.796875 -1.234375 C 7.742188 -1.304688 7.691406 -1.382812 7.640625 -1.46875 C 7.585938 -1.550781 7.53125 -1.632812 7.46875 -1.71875 C 7.207031 -1.488281 6.921875 -1.253906 6.609375 -1.015625 C 6.296875 -0.785156 5.96875 -0.578125 5.625 -0.390625 C 5.28125 -0.210938 4.921875 -0.0664062 4.546875 0.046875 C 4.179688 0.160156 3.804688 0.21875 3.421875 0.21875 C 2.960938 0.21875 2.535156 0.125 2.140625 -0.0625 C 1.742188 -0.257812 1.398438 -0.515625 1.109375 -0.828125 C 0.828125 -1.140625 0.601562 -1.492188 0.4375 -1.890625 C 0.269531 -2.285156 0.1875 -2.691406 0.1875 -3.109375 C 0.1875 -3.523438 0.265625 -3.898438 0.421875 -4.234375 C 0.578125 -4.578125 0.796875 -4.882812 1.078125 -5.15625 C 1.359375 -5.4375 1.679688 -5.6875 2.046875 -5.90625 C 2.421875 -6.125 2.832031 -6.328125 3.28125 -6.515625 C 3.09375 -6.703125 2.921875 -6.882812 2.765625 -7.0625 C 2.617188 -7.25 2.492188 -7.4375 2.390625 -7.625 C 2.285156 -7.8125 2.203125 -8.003906 2.140625 -8.203125 C 2.085938 -8.410156 2.0625 -8.632812 2.0625 -8.875 C 2.0625 -9.238281 2.140625 -9.554688 2.296875 -9.828125 C 2.460938 -10.097656 2.675781 -10.320312 2.9375 -10.5 C 3.207031 -10.6875 3.507812 -10.828125 3.84375 -10.921875 C 4.175781 -11.015625 4.515625 -11.0625 4.859375 -11.0625 C 5.160156 -11.0625 5.460938 -11.007812 5.765625 -10.90625 C 6.078125 -10.8125 6.351562 -10.675781 6.59375 -10.5 C 6.832031 -10.320312 7.023438 -10.101562 7.171875 -9.84375 C 7.316406 -9.582031 7.390625 -9.296875 7.390625 -8.984375 C 7.390625 -8.734375 7.335938 -8.5 7.234375 -8.28125 C 7.128906 -8.0625 6.992188 -7.859375 6.828125 -7.671875 C 6.671875 -7.492188 6.488281 -7.328125 6.28125 -7.171875 C 6.070312 -7.023438 5.863281 -6.890625 5.65625 -6.765625 C 5.625 -6.753906 5.601562 -6.742188 5.59375 -6.734375 C 5.59375 -6.734375 5.59375 -6.722656 5.59375 -6.703125 C 5.59375 -6.671875 5.609375 -6.644531 5.640625 -6.625 C 5.660156 -6.613281 5.722656 -6.5625 5.828125 -6.46875 C 5.929688 -6.375 6.082031 -6.222656 6.28125 -6.015625 C 6.488281 -5.816406 6.742188 -5.550781 7.046875 -5.21875 C 7.359375 -4.882812 7.726562 -4.472656 8.15625 -3.984375 L 9.9375 -6.671875 C 9.976562 -6.742188 10.015625 -6.8125 10.046875 -6.875 C 10.078125 -6.945312 10.09375 -7.035156 10.09375 -7.140625 C 10.09375 -7.273438 10.054688 -7.359375 9.984375 -7.390625 C 9.921875 -7.429688 9.851562 -7.457031 9.78125 -7.46875 C 9.707031 -7.488281 9.632812 -7.503906 9.5625 -7.515625 C 9.488281 -7.523438 9.421875 -7.539062 9.359375 -7.5625 C 9.304688 -7.59375 9.265625 -7.628906 9.234375 -7.671875 C 9.203125 -7.710938 9.1875 -7.765625 9.1875 -7.828125 C 9.1875 -7.847656 9.1875 -7.875 9.1875 -7.90625 C 9.195312 -7.9375 9.210938 -7.96875 9.234375 -8 C 9.253906 -8.03125 9.289062 -8.050781 9.34375 -8.0625 C 9.394531 -8.082031 9.46875 -8.09375 9.5625 -8.09375 L 12.78125 -8.09375 C 12.84375 -8 12.878906 -7.925781 12.890625 -7.875 C 12.898438 -7.832031 12.90625 -7.804688 12.90625 -7.796875 C 12.90625 -7.671875 12.867188 -7.585938 12.796875 -7.546875 C 12.734375 -7.515625 12.644531 -7.492188 12.53125 -7.484375 C 12.40625 -7.460938 12.273438 -7.445312 12.140625 -7.4375 C 12.015625 -7.425781 11.890625 -7.398438 11.765625 -7.359375 C 11.648438 -7.328125 11.539062 -7.273438 11.4375 -7.203125 C 11.332031 -7.140625 11.238281 -7.046875 11.15625 -6.921875 L 8.765625 -3.140625 Z M 4.203125 -1 C 4.441406 -1 4.679688 -1.046875 4.921875 -1.140625 C 5.171875 -1.234375 5.410156 -1.347656 5.640625 -1.484375 C 5.867188 -1.617188 6.085938 -1.765625 6.296875 -1.921875 C 6.515625 -2.078125 6.710938 -2.222656 6.890625 -2.359375 C 6.953125 -2.398438 6.984375 -2.441406 6.984375 -2.484375 C 6.984375 -2.492188 6.976562 -2.515625 6.96875 -2.546875 C 6.570312 -3.242188 6.125 -3.867188 5.625 -4.421875 C 5.132812 -4.984375 4.597656 -5.503906 4.015625 -5.984375 C 3.984375 -5.972656 3.9375 -5.945312 3.875 -5.90625 C 3.8125 -5.875 3.757812 -5.84375 3.71875 -5.8125 C 3.5 -5.6875 3.300781 -5.53125 3.125 -5.34375 C 2.945312 -5.15625 2.789062 -4.945312 2.65625 -4.71875 C 2.53125 -4.488281 2.429688 -4.242188 2.359375 -3.984375 C 2.285156 -3.722656 2.25 -3.460938 2.25 -3.203125 C 2.25 -2.921875 2.300781 -2.644531 2.40625 -2.375 C 2.507812 -2.113281 2.648438 -1.878906 2.828125 -1.671875 C 3.003906 -1.472656 3.207031 -1.3125 3.4375 -1.1875 C 3.675781 -1.0625 3.929688 -1 4.203125 -1 Z M 3.84375 -9.203125 C 3.84375 -9.003906 3.867188 -8.8125 3.921875 -8.625 C 3.984375 -8.4375 4.054688 -8.257812 4.140625 -8.09375 C 4.234375 -7.925781 4.34375 -7.773438 4.46875 -7.640625 C 4.59375 -7.503906 4.726562 -7.382812 4.875 -7.28125 C 5.007812 -7.320312 5.128906 -7.40625 5.234375 -7.53125 C 5.335938 -7.664062 5.425781 -7.8125 5.5 -7.96875 C 5.570312 -8.125 5.625 -8.285156 5.65625 -8.453125 C 5.695312 -8.617188 5.71875 -8.769531 5.71875 -8.90625 C 5.71875 -9.101562 5.695312 -9.285156 5.65625 -9.453125 C 5.625 -9.628906 5.566406 -9.78125 5.484375 -9.90625 C 5.410156 -10.039062 5.3125 -10.140625 5.1875 -10.203125 C 5.0625 -10.273438 4.90625 -10.3125 4.71875 -10.3125 C 4.4375 -10.3125 4.21875 -10.203125 4.0625 -9.984375 C 3.914062 -9.773438 3.84375 -9.515625 3.84375 -9.203125 Z M 3.84375 -9.203125 "/></g></g></g><g fill="#000000" fill-opacity="1"><g transform="translate(55.546649, 16.793264)"><g/></g></g><g fill="#000000" fill-opacity="1"><g transform="translate(60.083509, 16.793264)"><g><path d="M 1.125 -0.21875 C 1.050781 -0.21875 1.003906 -0.273438 0.984375 -0.390625 C 0.929688 -0.910156 0.882812 -1.3125 0.84375 -1.59375 C 0.8125 -1.882812 0.789062 -2.097656 0.78125 -2.234375 C 0.769531 -2.378906 0.757812 -2.472656 0.75 -2.515625 C 0.75 -2.554688 0.75 -2.585938 0.75 -2.609375 C 0.75 -2.671875 0.773438 -2.734375 0.828125 -2.796875 C 0.890625 -2.867188 0.957031 -2.90625 1.03125 -2.90625 C 1.082031 -2.90625 1.140625 -2.875 1.203125 -2.8125 C 1.265625 -2.75 1.320312 -2.671875 1.375 -2.578125 C 1.4375 -2.492188 1.488281 -2.40625 1.53125 -2.3125 C 1.570312 -2.226562 1.597656 -2.164062 1.609375 -2.125 C 1.753906 -1.820312 1.910156 -1.566406 2.078125 -1.359375 C 2.242188 -1.160156 2.4375 -1 2.65625 -0.875 C 2.875 -0.75 3.113281 -0.65625 3.375 -0.59375 C 3.644531 -0.539062 3.957031 -0.515625 4.3125 -0.515625 C 4.894531 -0.515625 5.347656 -0.65625 5.671875 -0.9375 C 6.003906 -1.21875 6.171875 -1.671875 6.171875 -2.296875 C 6.171875 -2.648438 6.09375 -2.972656 5.9375 -3.265625 C 5.78125 -3.554688 5.570312 -3.828125 5.3125 -4.078125 C 5.0625 -4.328125 4.773438 -4.5625 4.453125 -4.78125 C 4.128906 -5.007812 3.796875 -5.238281 3.453125 -5.46875 C 3.109375 -5.707031 2.773438 -5.953125 2.453125 -6.203125 C 2.128906 -6.453125 1.84375 -6.726562 1.59375 -7.03125 C 1.34375 -7.332031 1.140625 -7.664062 0.984375 -8.03125 C 0.828125 -8.394531 0.75 -8.8125 0.75 -9.28125 C 0.75 -9.5625 0.796875 -9.820312 0.890625 -10.0625 C 0.992188 -10.300781 1.128906 -10.519531 1.296875 -10.71875 C 1.472656 -10.914062 1.675781 -11.09375 1.90625 -11.25 C 2.132812 -11.40625 2.375 -11.535156 2.625 -11.640625 C 2.882812 -11.753906 3.144531 -11.835938 3.40625 -11.890625 C 3.675781 -11.941406 3.941406 -11.96875 4.203125 -11.96875 C 4.398438 -11.96875 4.601562 -11.953125 4.8125 -11.921875 C 5.019531 -11.890625 5.222656 -11.847656 5.421875 -11.796875 C 5.617188 -11.742188 5.816406 -11.6875 6.015625 -11.625 C 6.222656 -11.570312 6.425781 -11.519531 6.625 -11.46875 L 7.171875 -11.515625 C 7.222656 -11.515625 7.253906 -11.492188 7.265625 -11.453125 C 7.285156 -11.410156 7.296875 -11.375 7.296875 -11.34375 L 7.53125 -9.40625 C 7.53125 -9.382812 7.492188 -9.367188 7.421875 -9.359375 C 7.359375 -9.347656 7.304688 -9.34375 7.265625 -9.34375 C 7.234375 -9.34375 7.179688 -9.34375 7.109375 -9.34375 C 7.046875 -9.351562 7.007812 -9.363281 7 -9.375 C 6.988281 -9.394531 6.96875 -9.429688 6.9375 -9.484375 C 6.914062 -9.535156 6.890625 -9.59375 6.859375 -9.65625 C 6.835938 -9.71875 6.8125 -9.78125 6.78125 -9.84375 C 6.75 -9.914062 6.71875 -9.972656 6.6875 -10.015625 C 6.414062 -10.421875 6.070312 -10.722656 5.65625 -10.921875 C 5.25 -11.128906 4.800781 -11.234375 4.3125 -11.234375 C 4.09375 -11.234375 3.890625 -11.207031 3.703125 -11.15625 C 3.515625 -11.101562 3.351562 -11.023438 3.21875 -10.921875 C 3.082031 -10.816406 2.972656 -10.679688 2.890625 -10.515625 C 2.804688 -10.347656 2.765625 -10.148438 2.765625 -9.921875 C 2.765625 -9.585938 2.84375 -9.285156 3 -9.015625 C 3.15625 -8.742188 3.363281 -8.488281 3.625 -8.25 C 3.882812 -8.007812 4.175781 -7.773438 4.5 -7.546875 C 4.820312 -7.316406 5.148438 -7.082031 5.484375 -6.84375 C 5.828125 -6.613281 6.160156 -6.367188 6.484375 -6.109375 C 6.816406 -5.847656 7.109375 -5.554688 7.359375 -5.234375 C 7.617188 -4.921875 7.828125 -4.566406 7.984375 -4.171875 C 8.140625 -3.785156 8.21875 -3.347656 8.21875 -2.859375 C 8.21875 -2.523438 8.160156 -2.21875 8.046875 -1.9375 C 7.941406 -1.664062 7.789062 -1.414062 7.59375 -1.1875 C 7.40625 -0.957031 7.179688 -0.753906 6.921875 -0.578125 C 6.660156 -0.398438 6.382812 -0.25 6.09375 -0.125 C 5.800781 -0.0078125 5.5 0.0703125 5.1875 0.125 C 4.875 0.1875 4.566406 0.21875 4.265625 0.21875 C 3.898438 0.21875 3.578125 0.191406 3.296875 0.140625 C 3.015625 0.0859375 2.773438 0.0234375 2.578125 -0.046875 C 2.378906 -0.117188 2.207031 -0.179688 2.0625 -0.234375 C 1.925781 -0.285156 1.8125 -0.3125 1.71875 -0.3125 C 1.6875 -0.3125 1.664062 -0.3125 1.65625 -0.3125 Z M 1.125 -0.21875 "/></g></g></g><g fill="#000000" fill-opacity="1"><g transform="translate(69.049994, 16.793264)"><g><path d="M 3.03125 -8 C 3.050781 -8.007812 3.070312 -8.019531 3.09375 -8.03125 C 3.125 -8.039062 3.144531 -8.046875 3.15625 -8.046875 C 3.25 -8.046875 3.296875 -7.976562 3.296875 -7.84375 L 3.296875 -6.984375 C 3.296875 -6.953125 3.304688 -6.925781 3.328125 -6.90625 C 3.347656 -6.894531 3.367188 -6.890625 3.390625 -6.890625 C 3.421875 -6.890625 3.445312 -6.894531 3.46875 -6.90625 C 3.488281 -6.914062 3.507812 -6.925781 3.53125 -6.9375 C 3.757812 -7.070312 3.957031 -7.1875 4.125 -7.28125 C 4.300781 -7.375 4.46875 -7.445312 4.625 -7.5 C 4.789062 -7.550781 4.957031 -7.585938 5.125 -7.609375 C 5.300781 -7.628906 5.492188 -7.640625 5.703125 -7.640625 C 6.171875 -7.640625 6.585938 -7.523438 6.953125 -7.296875 C 7.328125 -7.078125 7.644531 -6.785156 7.90625 -6.421875 C 8.164062 -6.066406 8.363281 -5.660156 8.5 -5.203125 C 8.632812 -4.753906 8.703125 -4.300781 8.703125 -3.84375 C 8.703125 -3.507812 8.65625 -3.175781 8.5625 -2.84375 C 8.46875 -2.507812 8.335938 -2.191406 8.171875 -1.890625 C 8.015625 -1.585938 7.816406 -1.304688 7.578125 -1.046875 C 7.347656 -0.796875 7.09375 -0.570312 6.8125 -0.375 C 6.539062 -0.1875 6.242188 -0.0390625 5.921875 0.0625 C 5.609375 0.164062 5.285156 0.21875 4.953125 0.21875 C 4.703125 0.21875 4.460938 0.203125 4.234375 0.171875 C 4.003906 0.140625 3.75 0.09375 3.46875 0.03125 C 3.375 0.03125 3.320312 0.0625 3.3125 0.125 C 3.300781 0.195312 3.296875 0.269531 3.296875 0.34375 L 3.296875 3.6875 C 3.296875 3.851562 3.328125 3.988281 3.390625 4.09375 C 3.460938 4.195312 3.550781 4.285156 3.65625 4.359375 C 3.757812 4.429688 3.875 4.484375 4 4.515625 C 4.132812 4.546875 4.257812 4.570312 4.375 4.59375 C 4.5 4.625 4.609375 4.644531 4.703125 4.65625 C 4.804688 4.664062 4.882812 4.679688 4.9375 4.703125 C 4.988281 4.734375 5.015625 4.769531 5.015625 4.8125 C 5.015625 4.894531 4.988281 4.941406 4.9375 4.953125 L 0.1875 4.953125 C 0.125 4.941406 0.09375 4.894531 0.09375 4.8125 C 0.09375 4.769531 0.125 4.734375 0.1875 4.703125 C 0.25 4.671875 0.347656 4.644531 0.484375 4.625 C 0.617188 4.613281 0.75 4.578125 0.875 4.515625 C 1.007812 4.453125 1.125 4.359375 1.21875 4.234375 C 1.320312 4.117188 1.375 3.9375 1.375 3.6875 L 1.375 -5.71875 C 1.375 -5.851562 1.335938 -5.957031 1.265625 -6.03125 C 1.191406 -6.101562 1.097656 -6.160156 0.984375 -6.203125 C 0.878906 -6.242188 0.765625 -6.273438 0.640625 -6.296875 C 0.515625 -6.316406 0.394531 -6.347656 0.28125 -6.390625 C 0.25 -6.398438 0.222656 -6.410156 0.203125 -6.421875 C 0.179688 -6.441406 0.171875 -6.484375 0.171875 -6.546875 C 0.171875 -6.578125 0.175781 -6.601562 0.1875 -6.625 C 0.207031 -6.65625 0.242188 -6.6875 0.296875 -6.71875 Z M 4.96875 -6.703125 C 4.675781 -6.703125 4.40625 -6.660156 4.15625 -6.578125 C 3.914062 -6.492188 3.671875 -6.359375 3.421875 -6.171875 C 3.398438 -6.171875 3.382812 -6.160156 3.375 -6.140625 C 3.363281 -6.128906 3.351562 -6.117188 3.34375 -6.109375 L 3.296875 -6.0625 L 3.296875 -1.65625 C 3.296875 -1.644531 3.296875 -1.597656 3.296875 -1.515625 C 3.304688 -1.441406 3.316406 -1.375 3.328125 -1.3125 C 3.335938 -1.195312 3.40625 -1.09375 3.53125 -1 C 3.664062 -0.90625 3.8125 -0.820312 3.96875 -0.75 C 4.132812 -0.6875 4.296875 -0.632812 4.453125 -0.59375 C 4.617188 -0.5625 4.75 -0.546875 4.84375 -0.546875 C 5.207031 -0.546875 5.515625 -0.609375 5.765625 -0.734375 C 6.015625 -0.867188 6.21875 -1.046875 6.375 -1.265625 C 6.53125 -1.492188 6.640625 -1.753906 6.703125 -2.046875 C 6.773438 -2.347656 6.8125 -2.664062 6.8125 -3 C 6.8125 -3.257812 6.796875 -3.53125 6.765625 -3.8125 C 6.742188 -4.09375 6.703125 -4.367188 6.640625 -4.640625 C 6.585938 -4.921875 6.507812 -5.1875 6.40625 -5.4375 C 6.3125 -5.6875 6.195312 -5.898438 6.0625 -6.078125 C 5.925781 -6.265625 5.765625 -6.414062 5.578125 -6.53125 C 5.398438 -6.644531 5.195312 -6.703125 4.96875 -6.703125 Z M 4.96875 -6.703125 "/></g></g></g><g fill="#000000" fill-opacity="1"><g transform="translate(78.668137, 16.793264)"><g><path d="M 4.015625 -0.171875 C 3.835938 -0.0351562 3.625 0.0625 3.375 0.125 C 3.125 0.195312 2.875 0.234375 2.625 0.234375 C 1.957031 0.234375 1.445312 0.0820312 1.09375 -0.21875 C 0.75 -0.519531 0.578125 -0.925781 0.578125 -1.4375 C 0.578125 -1.738281 0.644531 -1.992188 0.78125 -2.203125 C 0.914062 -2.421875 1.113281 -2.613281 1.375 -2.78125 C 1.632812 -2.945312 1.957031 -3.097656 2.34375 -3.234375 C 2.738281 -3.367188 3.191406 -3.5 3.703125 -3.625 C 3.972656 -3.695312 4.191406 -3.773438 4.359375 -3.859375 C 4.535156 -3.941406 4.691406 -4.019531 4.828125 -4.09375 C 4.921875 -4.144531 4.972656 -4.1875 4.984375 -4.21875 C 5.003906 -4.257812 5.015625 -4.300781 5.015625 -4.34375 L 5.015625 -5.765625 C 5.015625 -5.953125 4.988281 -6.125 4.9375 -6.28125 C 4.882812 -6.4375 4.804688 -6.570312 4.703125 -6.6875 C 4.597656 -6.800781 4.46875 -6.890625 4.3125 -6.953125 C 4.164062 -7.023438 4 -7.0625 3.8125 -7.0625 C 3.65625 -7.0625 3.507812 -7.03125 3.375 -6.96875 C 3.238281 -6.914062 3.117188 -6.835938 3.015625 -6.734375 C 2.921875 -6.628906 2.84375 -6.503906 2.78125 -6.359375 C 2.726562 -6.222656 2.703125 -6.0625 2.703125 -5.875 C 2.703125 -5.863281 2.703125 -5.835938 2.703125 -5.796875 C 2.703125 -5.765625 2.703125 -5.734375 2.703125 -5.703125 C 2.710938 -5.671875 2.71875 -5.640625 2.71875 -5.609375 C 2.726562 -5.578125 2.734375 -5.5625 2.734375 -5.5625 C 2.734375 -5.550781 2.6875 -5.523438 2.59375 -5.484375 C 2.507812 -5.453125 2.40625 -5.414062 2.28125 -5.375 C 2.164062 -5.332031 2.03125 -5.289062 1.875 -5.25 C 1.726562 -5.21875 1.585938 -5.179688 1.453125 -5.140625 C 1.316406 -5.097656 1.195312 -5.0625 1.09375 -5.03125 C 1 -5 0.929688 -4.984375 0.890625 -4.984375 C 0.828125 -4.984375 0.789062 -5.015625 0.78125 -5.078125 C 0.769531 -5.140625 0.765625 -5.203125 0.765625 -5.265625 C 0.765625 -5.578125 0.859375 -5.882812 1.046875 -6.1875 C 1.242188 -6.488281 1.5 -6.753906 1.8125 -6.984375 C 2.132812 -7.222656 2.503906 -7.414062 2.921875 -7.5625 C 3.335938 -7.707031 3.769531 -7.78125 4.21875 -7.78125 C 4.613281 -7.78125 4.96875 -7.726562 5.28125 -7.625 C 5.59375 -7.519531 5.859375 -7.378906 6.078125 -7.203125 C 6.304688 -7.023438 6.476562 -6.816406 6.59375 -6.578125 C 6.707031 -6.347656 6.765625 -6.101562 6.765625 -5.84375 L 6.765625 -1.90625 C 6.765625 -1.757812 6.816406 -1.628906 6.921875 -1.515625 C 7.023438 -1.410156 7.164062 -1.359375 7.34375 -1.359375 C 7.4375 -1.359375 7.523438 -1.375 7.609375 -1.40625 C 7.691406 -1.4375 7.765625 -1.472656 7.828125 -1.515625 C 7.890625 -1.566406 7.941406 -1.609375 7.984375 -1.640625 C 8.023438 -1.679688 8.0625 -1.703125 8.09375 -1.703125 C 8.144531 -1.703125 8.171875 -1.679688 8.171875 -1.640625 C 8.179688 -1.609375 8.1875 -1.582031 8.1875 -1.5625 C 8.1875 -1.46875 8.171875 -1.367188 8.140625 -1.265625 C 8.117188 -1.171875 8.078125 -1.101562 8.015625 -1.0625 C 7.742188 -0.863281 7.503906 -0.679688 7.296875 -0.515625 C 7.085938 -0.347656 6.894531 -0.207031 6.71875 -0.09375 C 6.550781 0.0195312 6.398438 0.101562 6.265625 0.15625 C 6.128906 0.21875 6 0.25 5.875 0.25 C 5.769531 0.25 5.671875 0.21875 5.578125 0.15625 C 5.492188 0.101562 5.421875 0.0351562 5.359375 -0.046875 C 5.296875 -0.140625 5.242188 -0.238281 5.203125 -0.34375 C 5.160156 -0.445312 5.125 -0.539062 5.09375 -0.625 C 5.0625 -0.71875 5.035156 -0.789062 5.015625 -0.84375 C 5.003906 -0.894531 4.992188 -0.921875 4.984375 -0.921875 Z M 2.5 -1.640625 C 2.5 -1.492188 2.523438 -1.375 2.578125 -1.28125 C 2.640625 -1.1875 2.71875 -1.113281 2.8125 -1.0625 C 2.90625 -1.007812 3.007812 -0.972656 3.125 -0.953125 C 3.25 -0.941406 3.375 -0.9375 3.5 -0.9375 C 3.613281 -0.9375 3.753906 -0.960938 3.921875 -1.015625 C 4.097656 -1.078125 4.265625 -1.15625 4.421875 -1.25 C 4.585938 -1.34375 4.726562 -1.453125 4.84375 -1.578125 C 4.957031 -1.703125 5.015625 -1.828125 5.015625 -1.953125 L 5.015625 -3.3125 C 5.015625 -3.375 4.992188 -3.40625 4.953125 -3.40625 C 4.941406 -3.40625 4.929688 -3.398438 4.921875 -3.390625 L 3 -2.5 C 2.925781 -2.445312 2.859375 -2.394531 2.796875 -2.34375 C 2.734375 -2.300781 2.675781 -2.25 2.625 -2.1875 C 2.582031 -2.125 2.550781 -2.050781 2.53125 -1.96875 C 2.507812 -1.882812 2.5 -1.773438 2.5 -1.640625 Z M 2.5 -1.640625 "/></g></g></g><g fill="#000000" fill-opacity="1"><g transform="translate(87.057204, 16.793264)"><g><path d="M 1.359375 -6.015625 C 1.335938 -6.179688 1.257812 -6.316406 1.125 -6.421875 C 1 -6.535156 0.863281 -6.609375 0.71875 -6.640625 C 0.675781 -6.648438 0.628906 -6.65625 0.578125 -6.65625 C 0.535156 -6.664062 0.492188 -6.675781 0.453125 -6.6875 C 0.421875 -6.695312 0.390625 -6.707031 0.359375 -6.71875 C 0.335938 -6.738281 0.328125 -6.773438 0.328125 -6.828125 C 0.328125 -6.867188 0.332031 -6.90625 0.34375 -6.9375 C 0.363281 -6.976562 0.40625 -7.003906 0.46875 -7.015625 L 2.984375 -7.75 C 3.015625 -7.757812 3.046875 -7.765625 3.078125 -7.765625 C 3.117188 -7.773438 3.15625 -7.78125 3.1875 -7.78125 C 3.238281 -7.78125 3.265625 -7.734375 3.265625 -7.640625 L 3.265625 -2.0625 C 3.265625 -1.882812 3.304688 -1.71875 3.390625 -1.5625 C 3.472656 -1.414062 3.582031 -1.285156 3.71875 -1.171875 C 3.863281 -1.066406 4.023438 -0.988281 4.203125 -0.9375 C 4.378906 -0.882812 4.5625 -0.859375 4.75 -0.859375 C 4.875 -0.859375 5.007812 -0.878906 5.15625 -0.921875 C 5.300781 -0.960938 5.4375 -1.019531 5.5625 -1.09375 C 5.695312 -1.164062 5.820312 -1.242188 5.9375 -1.328125 C 6.050781 -1.421875 6.144531 -1.515625 6.21875 -1.609375 L 6.21875 -6.03125 C 6.195312 -6.1875 6.125 -6.320312 6 -6.4375 C 5.875 -6.550781 5.734375 -6.625 5.578125 -6.65625 C 5.546875 -6.664062 5.503906 -6.671875 5.453125 -6.671875 C 5.410156 -6.679688 5.367188 -6.6875 5.328125 -6.6875 C 5.285156 -6.695312 5.253906 -6.710938 5.234375 -6.734375 C 5.210938 -6.753906 5.203125 -6.789062 5.203125 -6.84375 C 5.203125 -6.882812 5.207031 -6.921875 5.21875 -6.953125 C 5.226562 -6.984375 5.265625 -7.007812 5.328125 -7.03125 L 7.84375 -7.75 C 7.875 -7.757812 7.90625 -7.765625 7.9375 -7.765625 C 7.976562 -7.773438 8.015625 -7.78125 8.046875 -7.78125 C 8.097656 -7.78125 8.125 -7.753906 8.125 -7.703125 L 8.125 -2.015625 C 8.15625 -1.773438 8.222656 -1.601562 8.328125 -1.5 C 8.441406 -1.394531 8.625 -1.34375 8.875 -1.34375 L 9.359375 -1.375 C 9.378906 -1.375 9.390625 -1.332031 9.390625 -1.25 C 9.398438 -1.175781 9.40625 -1.125 9.40625 -1.09375 C 9.40625 -1.082031 9.394531 -1.046875 9.375 -0.984375 C 9.363281 -0.929688 9.332031 -0.890625 9.28125 -0.859375 L 6.765625 0.171875 C 6.753906 0.179688 6.726562 0.191406 6.6875 0.203125 C 6.644531 0.210938 6.617188 0.21875 6.609375 0.21875 C 6.578125 0.21875 6.554688 0.191406 6.546875 0.140625 C 6.535156 0.0976562 6.53125 0.0546875 6.53125 0.015625 L 6.53125 -0.78125 C 6.507812 -0.800781 6.484375 -0.8125 6.453125 -0.8125 C 6.441406 -0.8125 6.429688 -0.8125 6.421875 -0.8125 C 6.410156 -0.8125 6.40625 -0.804688 6.40625 -0.796875 L 5.078125 -0.15625 C 4.960938 -0.101562 4.847656 -0.0546875 4.734375 -0.015625 C 4.628906 0.0234375 4.523438 0.0625 4.421875 0.09375 C 4.328125 0.132812 4.222656 0.164062 4.109375 0.1875 C 3.992188 0.207031 3.867188 0.21875 3.734375 0.21875 C 3.492188 0.21875 3.234375 0.191406 2.953125 0.140625 C 2.679688 0.0976562 2.425781 0.03125 2.1875 -0.0625 C 1.945312 -0.164062 1.75 -0.296875 1.59375 -0.453125 C 1.4375 -0.617188 1.359375 -0.816406 1.359375 -1.046875 Z M 1.359375 -6.015625 "/></g></g></g><g fill="#000000" fill-opacity="1"><g transform="translate(96.955807, 16.793264)"><g><path d="M 4.640625 -0.25 C 4.640625 -0.21875 4.632812 -0.171875 4.625 -0.109375 C 4.613281 -0.046875 4.585938 -0.0078125 4.546875 0 L 0.25 0 C 0.21875 -0.0078125 0.195312 -0.046875 0.1875 -0.109375 C 0.175781 -0.171875 0.171875 -0.21875 0.171875 -0.25 C 0.171875 -0.269531 0.175781 -0.3125 0.1875 -0.375 C 0.207031 -0.4375 0.226562 -0.472656 0.25 -0.484375 C 0.320312 -0.515625 0.421875 -0.539062 0.546875 -0.5625 C 0.679688 -0.582031 0.8125 -0.617188 0.9375 -0.671875 C 1.070312 -0.734375 1.1875 -0.828125 1.28125 -0.953125 C 1.382812 -1.078125 1.4375 -1.257812 1.4375 -1.5 L 1.4375 -11.125 C 1.4375 -11.25 1.398438 -11.347656 1.328125 -11.421875 C 1.265625 -11.492188 1.175781 -11.550781 1.0625 -11.59375 C 0.957031 -11.632812 0.835938 -11.664062 0.703125 -11.6875 C 0.578125 -11.71875 0.457031 -11.75 0.34375 -11.78125 C 0.269531 -11.800781 0.234375 -11.878906 0.234375 -12.015625 C 0.234375 -12.035156 0.238281 -12.066406 0.25 -12.109375 C 0.269531 -12.160156 0.304688 -12.203125 0.359375 -12.234375 L 3.09375 -13.515625 C 3.113281 -13.523438 3.132812 -13.535156 3.15625 -13.546875 C 3.1875 -13.554688 3.21875 -13.5625 3.25 -13.5625 C 3.300781 -13.5625 3.332031 -13.546875 3.34375 -13.515625 C 3.351562 -13.484375 3.359375 -13.4375 3.359375 -13.375 L 3.359375 -1.5 C 3.359375 -1.257812 3.40625 -1.078125 3.5 -0.953125 C 3.601562 -0.828125 3.71875 -0.734375 3.84375 -0.671875 C 3.976562 -0.617188 4.113281 -0.582031 4.25 -0.5625 C 4.382812 -0.539062 4.484375 -0.515625 4.546875 -0.484375 C 4.566406 -0.472656 4.585938 -0.4375 4.609375 -0.375 C 4.628906 -0.3125 4.640625 -0.269531 4.640625 -0.25 Z M 4.640625 -0.25 "/></g></g></g><g fill="#000000" fill-opacity="1"><g transform="translate(101.880362, 16.793264)"><g><path d="M 7.921875 -13.515625 C 7.941406 -13.523438 7.960938 -13.535156 7.984375 -13.546875 C 8.015625 -13.554688 8.035156 -13.5625 8.046875 -13.5625 C 8.140625 -13.5625 8.1875 -13.5 8.1875 -13.375 L 8.1875 -1.890625 C 8.1875 -1.648438 8.242188 -1.476562 8.359375 -1.375 C 8.484375 -1.269531 8.671875 -1.21875 8.921875 -1.21875 L 9.40625 -1.25 C 9.425781 -1.25 9.4375 -1.234375 9.4375 -1.203125 C 9.445312 -1.171875 9.453125 -1.140625 9.453125 -1.109375 C 9.453125 -1.097656 9.441406 -1.082031 9.421875 -1.0625 C 9.410156 -1.039062 9.378906 -1.019531 9.328125 -1 L 6.5 0.171875 C 6.488281 0.179688 6.460938 0.191406 6.421875 0.203125 C 6.378906 0.210938 6.351562 0.21875 6.34375 0.21875 C 6.3125 0.21875 6.289062 0.191406 6.28125 0.140625 C 6.269531 0.0976562 6.265625 0.0546875 6.265625 0.015625 L 6.265625 -0.546875 C 6.265625 -0.609375 6.242188 -0.640625 6.203125 -0.640625 C 6.191406 -0.640625 6.171875 -0.628906 6.140625 -0.609375 C 5.941406 -0.503906 5.757812 -0.398438 5.59375 -0.296875 C 5.425781 -0.191406 5.253906 -0.0976562 5.078125 -0.015625 C 4.898438 0.0546875 4.71875 0.113281 4.53125 0.15625 C 4.34375 0.195312 4.132812 0.21875 3.90625 0.21875 C 3.40625 0.21875 2.957031 0.117188 2.5625 -0.078125 C 2.164062 -0.285156 1.828125 -0.554688 1.546875 -0.890625 C 1.273438 -1.234375 1.066406 -1.625 0.921875 -2.0625 C 0.773438 -2.507812 0.703125 -2.972656 0.703125 -3.453125 C 0.703125 -4.023438 0.816406 -4.554688 1.046875 -5.046875 C 1.273438 -5.546875 1.578125 -5.976562 1.953125 -6.34375 C 2.335938 -6.707031 2.78125 -6.988281 3.28125 -7.1875 C 3.789062 -7.394531 4.320312 -7.5 4.875 -7.5 C 5.03125 -7.5 5.160156 -7.484375 5.265625 -7.453125 C 5.378906 -7.429688 5.484375 -7.40625 5.578125 -7.375 C 5.671875 -7.34375 5.765625 -7.3125 5.859375 -7.28125 C 5.953125 -7.257812 6.054688 -7.25 6.171875 -7.25 C 6.179688 -7.25 6.195312 -7.253906 6.21875 -7.265625 C 6.25 -7.273438 6.265625 -7.304688 6.265625 -7.359375 L 6.265625 -11.234375 C 6.265625 -11.367188 6.226562 -11.472656 6.15625 -11.546875 C 6.082031 -11.617188 5.988281 -11.675781 5.875 -11.71875 C 5.769531 -11.757812 5.65625 -11.789062 5.53125 -11.8125 C 5.40625 -11.832031 5.285156 -11.863281 5.171875 -11.90625 C 5.140625 -11.914062 5.113281 -11.925781 5.09375 -11.9375 C 5.070312 -11.957031 5.0625 -12 5.0625 -12.0625 C 5.0625 -12.09375 5.066406 -12.117188 5.078125 -12.140625 C 5.097656 -12.171875 5.132812 -12.203125 5.1875 -12.234375 Z M 2.578125 -3.8125 C 2.578125 -3.414062 2.617188 -3.035156 2.703125 -2.671875 C 2.796875 -2.304688 2.9375 -1.984375 3.125 -1.703125 C 3.320312 -1.429688 3.5625 -1.210938 3.84375 -1.046875 C 4.132812 -0.878906 4.476562 -0.796875 4.875 -0.796875 C 4.9375 -0.796875 5.046875 -0.8125 5.203125 -0.84375 C 5.359375 -0.882812 5.515625 -0.929688 5.671875 -0.984375 C 5.828125 -1.035156 5.960938 -1.09375 6.078125 -1.15625 C 6.203125 -1.226562 6.265625 -1.304688 6.265625 -1.390625 L 6.265625 -5.5 C 6.265625 -5.875 6.128906 -6.175781 5.859375 -6.40625 C 5.585938 -6.644531 5.195312 -6.765625 4.6875 -6.765625 C 4.320312 -6.765625 4.003906 -6.675781 3.734375 -6.5 C 3.472656 -6.332031 3.253906 -6.109375 3.078125 -5.828125 C 2.910156 -5.546875 2.785156 -5.226562 2.703125 -4.875 C 2.617188 -4.53125 2.578125 -4.175781 2.578125 -3.8125 Z M 2.578125 -3.8125 "/></g></g></g><g fill="#000000" fill-opacity="1"><g transform="translate(111.498505, 16.793264)"><g><path d="M 0.578125 0 C 0.546875 -0.0078125 0.523438 -0.046875 0.515625 -0.109375 C 0.503906 -0.171875 0.5 -0.21875 0.5 -0.25 C 0.5 -0.28125 0.503906 -0.328125 0.515625 -0.390625 C 0.535156 -0.453125 0.554688 -0.488281 0.578125 -0.5 C 0.648438 -0.53125 0.75 -0.554688 0.875 -0.578125 C 1.007812 -0.597656 1.140625 -0.632812 1.265625 -0.6875 C 1.398438 -0.75 1.515625 -0.835938 1.609375 -0.953125 C 1.710938 -1.078125 1.765625 -1.265625 1.765625 -1.515625 L 1.765625 -5.46875 C 1.765625 -5.601562 1.726562 -5.707031 1.65625 -5.78125 C 1.59375 -5.851562 1.503906 -5.90625 1.390625 -5.9375 C 1.285156 -5.976562 1.164062 -6.007812 1.03125 -6.03125 C 0.90625 -6.0625 0.785156 -6.09375 0.671875 -6.125 C 0.640625 -6.132812 0.613281 -6.148438 0.59375 -6.171875 C 0.570312 -6.191406 0.5625 -6.234375 0.5625 -6.296875 C 0.5625 -6.316406 0.570312 -6.34375 0.59375 -6.375 C 0.613281 -6.40625 0.644531 -6.429688 0.6875 -6.453125 L 3.421875 -7.75 C 3.441406 -7.757812 3.460938 -7.769531 3.484375 -7.78125 C 3.515625 -7.789062 3.535156 -7.796875 3.546875 -7.796875 C 3.640625 -7.796875 3.6875 -7.726562 3.6875 -7.59375 L 3.6875 -1.515625 C 3.6875 -1.265625 3.734375 -1.078125 3.828125 -0.953125 C 3.929688 -0.835938 4.046875 -0.75 4.171875 -0.6875 C 4.304688 -0.632812 4.441406 -0.597656 4.578125 -0.578125 C 4.710938 -0.554688 4.8125 -0.53125 4.875 -0.5 C 4.90625 -0.488281 4.925781 -0.453125 4.9375 -0.390625 C 4.957031 -0.328125 4.96875 -0.28125 4.96875 -0.25 C 4.96875 -0.21875 4.960938 -0.171875 4.953125 -0.109375 C 4.941406 -0.046875 4.914062 -0.0078125 4.875 0 Z M 1.421875 -10.78125 C 1.421875 -11.132812 1.523438 -11.414062 1.734375 -11.625 C 1.941406 -11.832031 2.222656 -11.9375 2.578125 -11.9375 C 2.921875 -11.9375 3.195312 -11.832031 3.40625 -11.625 C 3.625 -11.414062 3.734375 -11.132812 3.734375 -10.78125 C 3.734375 -10.425781 3.625 -10.144531 3.40625 -9.9375 C 3.195312 -9.738281 2.921875 -9.640625 2.578125 -9.640625 C 2.222656 -9.640625 1.941406 -9.738281 1.734375 -9.9375 C 1.523438 -10.144531 1.421875 -10.425781 1.421875 -10.78125 Z M 1.421875 -10.78125 "/></g></g></g><g fill="#000000" fill-opacity="1"><g transform="translate(116.876746, 16.793264)"><g><path d="M 3.359375 -8 C 3.378906 -8.007812 3.398438 -8.019531 3.421875 -8.03125 C 3.453125 -8.039062 3.472656 -8.046875 3.484375 -8.046875 C 3.578125 -8.046875 3.625 -7.976562 3.625 -7.84375 L 3.625 -6.5625 C 3.632812 -6.507812 3.65625 -6.484375 3.6875 -6.484375 C 3.71875 -6.484375 3.738281 -6.484375 3.75 -6.484375 C 3.769531 -6.484375 3.789062 -6.492188 3.8125 -6.515625 C 4.164062 -6.691406 4.460938 -6.84375 4.703125 -6.96875 C 4.953125 -7.09375 5.164062 -7.195312 5.34375 -7.28125 C 5.519531 -7.375 5.675781 -7.441406 5.8125 -7.484375 C 5.957031 -7.523438 6.101562 -7.554688 6.25 -7.578125 C 6.394531 -7.609375 6.550781 -7.625 6.71875 -7.625 C 6.894531 -7.632812 7.101562 -7.640625 7.34375 -7.640625 C 7.613281 -7.640625 7.847656 -7.582031 8.046875 -7.46875 C 8.242188 -7.351562 8.410156 -7.203125 8.546875 -7.015625 C 8.679688 -6.828125 8.789062 -6.609375 8.875 -6.359375 C 8.957031 -6.117188 9.019531 -5.867188 9.0625 -5.609375 C 9.113281 -5.359375 9.144531 -5.109375 9.15625 -4.859375 C 9.175781 -4.609375 9.1875 -4.378906 9.1875 -4.171875 C 9.1875 -3.984375 9.179688 -3.804688 9.171875 -3.640625 C 9.160156 -3.472656 9.148438 -3.289062 9.140625 -3.09375 C 9.140625 -2.894531 9.132812 -2.671875 9.125 -2.421875 C 9.113281 -2.179688 9.109375 -1.882812 9.109375 -1.53125 C 9.109375 -1.363281 9.140625 -1.222656 9.203125 -1.109375 C 9.265625 -1.003906 9.34375 -0.914062 9.4375 -0.84375 C 9.53125 -0.78125 9.632812 -0.726562 9.75 -0.6875 C 9.875 -0.65625 9.988281 -0.625 10.09375 -0.59375 C 10.207031 -0.570312 10.304688 -0.554688 10.390625 -0.546875 C 10.484375 -0.535156 10.554688 -0.519531 10.609375 -0.5 C 10.628906 -0.488281 10.644531 -0.453125 10.65625 -0.390625 C 10.675781 -0.328125 10.6875 -0.28125 10.6875 -0.25 C 10.6875 -0.21875 10.679688 -0.171875 10.671875 -0.109375 C 10.660156 -0.046875 10.640625 -0.0078125 10.609375 0 L 6 0 C 5.96875 -0.0078125 5.945312 -0.046875 5.9375 -0.109375 C 5.925781 -0.171875 5.921875 -0.21875 5.921875 -0.25 C 5.921875 -0.28125 5.925781 -0.328125 5.9375 -0.390625 C 5.957031 -0.453125 5.976562 -0.488281 6 -0.5 C 6.070312 -0.53125 6.164062 -0.554688 6.28125 -0.578125 C 6.40625 -0.597656 6.53125 -0.640625 6.65625 -0.703125 C 6.78125 -0.765625 6.890625 -0.863281 6.984375 -1 C 7.085938 -1.132812 7.15625 -1.332031 7.1875 -1.59375 C 7.195312 -1.675781 7.207031 -1.753906 7.21875 -1.828125 C 7.226562 -1.898438 7.234375 -1.972656 7.234375 -2.046875 C 7.242188 -2.117188 7.25 -2.195312 7.25 -2.28125 C 7.25 -2.375 7.25 -2.476562 7.25 -2.59375 C 7.25 -2.84375 7.242188 -3.109375 7.234375 -3.390625 C 7.234375 -3.671875 7.234375 -3.984375 7.234375 -4.328125 C 7.234375 -4.597656 7.222656 -4.863281 7.203125 -5.125 C 7.179688 -5.394531 7.117188 -5.632812 7.015625 -5.84375 C 6.921875 -6.050781 6.78125 -6.21875 6.59375 -6.34375 C 6.40625 -6.476562 6.148438 -6.546875 5.828125 -6.546875 C 5.710938 -6.546875 5.609375 -6.535156 5.515625 -6.515625 C 5.421875 -6.503906 5.304688 -6.472656 5.171875 -6.421875 C 5.046875 -6.378906 4.878906 -6.304688 4.671875 -6.203125 C 4.460938 -6.109375 4.179688 -5.976562 3.828125 -5.8125 C 3.785156 -5.78125 3.738281 -5.742188 3.6875 -5.703125 C 3.644531 -5.671875 3.625 -5.628906 3.625 -5.578125 L 3.625 -1.53125 C 3.625 -1.28125 3.671875 -1.09375 3.765625 -0.96875 C 3.867188 -0.84375 3.984375 -0.75 4.109375 -0.6875 C 4.242188 -0.632812 4.375 -0.597656 4.5 -0.578125 C 4.632812 -0.554688 4.738281 -0.53125 4.8125 -0.5 C 4.832031 -0.488281 4.851562 -0.453125 4.875 -0.390625 C 4.894531 -0.328125 4.90625 -0.28125 4.90625 -0.25 C 4.90625 -0.21875 4.894531 -0.171875 4.875 -0.109375 C 4.863281 -0.046875 4.84375 -0.0078125 4.8125 0 L 0.515625 0 C 0.484375 -0.0078125 0.457031 -0.046875 0.4375 -0.109375 C 0.425781 -0.171875 0.421875 -0.21875 0.421875 -0.25 C 0.421875 -0.28125 0.429688 -0.328125 0.453125 -0.390625 C 0.472656 -0.453125 0.492188 -0.488281 0.515625 -0.5 C 0.585938 -0.53125 0.6875 -0.554688 0.8125 -0.578125 C 0.945312 -0.597656 1.078125 -0.632812 1.203125 -0.6875 C 1.335938 -0.75 1.453125 -0.84375 1.546875 -0.96875 C 1.648438 -1.09375 1.703125 -1.28125 1.703125 -1.53125 L 1.703125 -5.71875 C 1.703125 -5.851562 1.664062 -5.957031 1.59375 -6.03125 C 1.53125 -6.101562 1.441406 -6.160156 1.328125 -6.203125 C 1.210938 -6.242188 1.09375 -6.273438 0.96875 -6.296875 C 0.84375 -6.316406 0.722656 -6.347656 0.609375 -6.390625 C 0.578125 -6.398438 0.550781 -6.410156 0.53125 -6.421875 C 0.507812 -6.441406 0.5 -6.484375 0.5 -6.546875 C 0.5 -6.578125 0.503906 -6.601562 0.515625 -6.625 C 0.535156 -6.65625 0.570312 -6.6875 0.625 -6.71875 Z M 3.359375 -8 "/></g></g></g><g fill="#000000" fill-opacity="1"><g transform="translate(127.732215, 16.793264)"><g><path d="M 4.796875 -7.78125 C 5.328125 -7.78125 5.800781 -7.707031 6.21875 -7.5625 C 6.632812 -7.425781 6.984375 -7.226562 7.265625 -6.96875 C 7.609375 -6.976562 7.9375 -6.992188 8.25 -7.015625 C 8.570312 -7.046875 8.914062 -7.0625 9.28125 -7.0625 C 9.40625 -7.0625 9.503906 -7.054688 9.578125 -7.046875 C 9.660156 -7.046875 9.722656 -7.035156 9.765625 -7.015625 C 9.816406 -6.992188 9.851562 -6.96875 9.875 -6.9375 C 9.894531 -6.90625 9.910156 -6.867188 9.921875 -6.828125 C 9.960938 -6.691406 9.988281 -6.566406 10 -6.453125 C 10.019531 -6.347656 10.03125 -6.238281 10.03125 -6.125 C 10.03125 -6.03125 9.992188 -5.96875 9.921875 -5.9375 C 9.859375 -5.90625 9.722656 -5.890625 9.515625 -5.890625 L 8 -5.890625 C 8.070312 -5.765625 8.144531 -5.613281 8.21875 -5.4375 C 8.300781 -5.269531 8.34375 -5.054688 8.34375 -4.796875 C 8.34375 -4.410156 8.253906 -4.035156 8.078125 -3.671875 C 7.910156 -3.316406 7.660156 -3 7.328125 -2.71875 C 7.003906 -2.445312 6.601562 -2.226562 6.125 -2.0625 C 5.644531 -1.894531 5.101562 -1.8125 4.5 -1.8125 C 4.3125 -1.8125 4.160156 -1.816406 4.046875 -1.828125 C 3.929688 -1.847656 3.804688 -1.875 3.671875 -1.90625 C 3.597656 -1.84375 3.503906 -1.785156 3.390625 -1.734375 C 3.273438 -1.679688 3.160156 -1.617188 3.046875 -1.546875 C 2.941406 -1.484375 2.847656 -1.410156 2.765625 -1.328125 C 2.691406 -1.242188 2.65625 -1.132812 2.65625 -1 C 2.65625 -0.769531 2.859375 -0.601562 3.265625 -0.5 C 3.671875 -0.394531 4.320312 -0.34375 5.21875 -0.34375 C 5.90625 -0.332031 6.53125 -0.3125 7.09375 -0.28125 C 7.65625 -0.25 8.132812 -0.160156 8.53125 -0.015625 C 8.9375 0.117188 9.25 0.332031 9.46875 0.625 C 9.695312 0.925781 9.8125 1.335938 9.8125 1.859375 C 9.8125 2.078125 9.757812 2.3125 9.65625 2.5625 C 9.550781 2.820312 9.390625 3.078125 9.171875 3.328125 C 8.960938 3.585938 8.695312 3.832031 8.375 4.0625 C 8.0625 4.300781 7.6875 4.507812 7.25 4.6875 C 6.820312 4.863281 6.332031 5.003906 5.78125 5.109375 C 5.238281 5.222656 4.640625 5.28125 3.984375 5.28125 C 3.410156 5.28125 2.910156 5.222656 2.484375 5.109375 C 2.054688 4.992188 1.703125 4.84375 1.421875 4.65625 C 1.140625 4.46875 0.925781 4.253906 0.78125 4.015625 C 0.644531 3.773438 0.578125 3.53125 0.578125 3.28125 C 0.578125 3.09375 0.613281 2.921875 0.6875 2.765625 C 0.769531 2.609375 0.875 2.460938 1 2.328125 C 1.125 2.203125 1.265625 2.082031 1.421875 1.96875 C 1.578125 1.863281 1.734375 1.75 1.890625 1.625 C 2.054688 1.507812 2.210938 1.382812 2.359375 1.25 C 2.503906 1.125 2.632812 0.976562 2.75 0.8125 C 2.457031 0.78125 2.191406 0.710938 1.953125 0.609375 C 1.710938 0.515625 1.507812 0.398438 1.34375 0.265625 C 1.175781 0.128906 1.046875 -0.015625 0.953125 -0.171875 C 0.859375 -0.328125 0.8125 -0.484375 0.8125 -0.640625 C 0.8125 -0.785156 0.847656 -0.914062 0.921875 -1.03125 C 1.003906 -1.144531 1.109375 -1.242188 1.234375 -1.328125 C 1.367188 -1.410156 1.519531 -1.488281 1.6875 -1.5625 C 1.851562 -1.632812 2.019531 -1.703125 2.1875 -1.765625 C 2.300781 -1.804688 2.421875 -1.851562 2.546875 -1.90625 C 2.671875 -1.957031 2.796875 -2.03125 2.921875 -2.125 C 2.273438 -2.394531 1.78125 -2.738281 1.4375 -3.15625 C 1.101562 -3.582031 0.9375 -4.070312 0.9375 -4.625 C 0.9375 -5.0625 1.035156 -5.472656 1.234375 -5.859375 C 1.429688 -6.242188 1.703125 -6.578125 2.046875 -6.859375 C 2.398438 -7.148438 2.8125 -7.375 3.28125 -7.53125 C 3.75 -7.695312 4.253906 -7.78125 4.796875 -7.78125 Z M 2.453125 2.609375 C 2.453125 2.835938 2.519531 3.066406 2.65625 3.296875 C 2.800781 3.535156 2.992188 3.75 3.234375 3.9375 C 3.472656 4.125 3.753906 4.273438 4.078125 4.390625 C 4.398438 4.503906 4.75 4.5625 5.125 4.5625 C 5.507812 4.5625 5.878906 4.5 6.234375 4.375 C 6.597656 4.25 6.921875 4.078125 7.203125 3.859375 C 7.484375 3.640625 7.707031 3.390625 7.875 3.109375 C 8.050781 2.828125 8.140625 2.535156 8.140625 2.234375 C 8.140625 2.046875 8.109375 1.882812 8.046875 1.75 C 7.992188 1.613281 7.914062 1.5 7.8125 1.40625 C 7.71875 1.3125 7.601562 1.234375 7.46875 1.171875 C 7.34375 1.117188 7.207031 1.085938 7.0625 1.078125 C 6.945312 1.066406 6.753906 1.054688 6.484375 1.046875 C 6.210938 1.046875 5.910156 1.035156 5.578125 1.015625 C 5.367188 1.015625 5.164062 1.007812 4.96875 1 C 4.769531 1 4.585938 0.992188 4.421875 0.984375 C 4.253906 0.984375 4.101562 0.976562 3.96875 0.96875 C 3.832031 0.96875 3.726562 0.960938 3.65625 0.953125 C 3.550781 1.078125 3.425781 1.191406 3.28125 1.296875 C 3.144531 1.398438 3.015625 1.515625 2.890625 1.640625 C 2.773438 1.765625 2.671875 1.90625 2.578125 2.0625 C 2.492188 2.21875 2.453125 2.398438 2.453125 2.609375 Z M 6.359375 -4.609375 C 6.359375 -5.035156 6.3125 -5.414062 6.21875 -5.75 C 6.132812 -6.082031 6.007812 -6.359375 5.84375 -6.578125 C 5.6875 -6.804688 5.5 -6.976562 5.28125 -7.09375 C 5.0625 -7.21875 4.816406 -7.28125 4.546875 -7.28125 C 4.390625 -7.28125 4.21875 -7.25 4.03125 -7.1875 C 3.84375 -7.125 3.664062 -7.007812 3.5 -6.84375 C 3.332031 -6.675781 3.191406 -6.445312 3.078125 -6.15625 C 2.972656 -5.863281 2.921875 -5.488281 2.921875 -5.03125 C 2.921875 -4.738281 2.953125 -4.429688 3.015625 -4.109375 C 3.085938 -3.796875 3.191406 -3.503906 3.328125 -3.234375 C 3.472656 -2.960938 3.660156 -2.738281 3.890625 -2.5625 C 4.128906 -2.394531 4.414062 -2.3125 4.75 -2.3125 C 4.988281 -2.3125 5.207031 -2.363281 5.40625 -2.46875 C 5.601562 -2.582031 5.769531 -2.738281 5.90625 -2.9375 C 6.050781 -3.144531 6.160156 -3.390625 6.234375 -3.671875 C 6.316406 -3.953125 6.359375 -4.265625 6.359375 -4.609375 Z M 6.359375 -4.609375 "/></g></g></g><g fill="#000000" fill-opacity="1"><g transform="translate(30.361212, 35.172251)"><g><path d="M 0.828125 0 C 0.785156 0 0.765625 -0.0234375 0.765625 -0.078125 L 0.765625 -0.421875 C 0.765625 -0.429688 0.765625 -0.445312 0.765625 -0.46875 C 0.773438 -0.488281 0.796875 -0.5 0.828125 -0.5 C 1.015625 -0.5 1.1875 -0.523438 1.34375 -0.578125 C 1.507812 -0.628906 1.648438 -0.703125 1.765625 -0.796875 C 1.890625 -0.890625 1.988281 -1.003906 2.0625 -1.140625 C 2.132812 -1.273438 2.171875 -1.414062 2.171875 -1.5625 L 2.171875 -9.953125 C 2.171875 -10.222656 2.140625 -10.4375 2.078125 -10.59375 C 2.023438 -10.75 1.945312 -10.863281 1.84375 -10.9375 C 1.738281 -11.019531 1.601562 -11.070312 1.4375 -11.09375 C 1.28125 -11.113281 1.09375 -11.125 0.875 -11.125 L 0.5 -11.125 C 0.4375 -11.125 0.390625 -11.15625 0.359375 -11.21875 C 0.335938 -11.289062 0.328125 -11.351562 0.328125 -11.40625 C 0.328125 -11.4375 0.332031 -11.476562 0.34375 -11.53125 C 0.351562 -11.582031 0.382812 -11.613281 0.4375 -11.625 C 0.445312 -11.625 0.460938 -11.625 0.484375 -11.625 C 0.515625 -11.625 0.566406 -11.625 0.640625 -11.625 C 0.722656 -11.632812 0.828125 -11.640625 0.953125 -11.640625 C 1.085938 -11.640625 1.257812 -11.644531 1.46875 -11.65625 C 1.769531 -11.65625 2.09375 -11.660156 2.4375 -11.671875 C 2.78125 -11.679688 3.128906 -11.691406 3.484375 -11.703125 C 3.835938 -11.722656 4.1875 -11.734375 4.53125 -11.734375 C 4.875 -11.742188 5.195312 -11.75 5.5 -11.75 L 6.65625 -11.75 C 7.09375 -11.75 7.519531 -11.675781 7.9375 -11.53125 C 8.351562 -11.382812 8.722656 -11.164062 9.046875 -10.875 C 9.378906 -10.582031 9.644531 -10.222656 9.84375 -9.796875 C 10.039062 -9.367188 10.140625 -8.875 10.140625 -8.3125 C 10.140625 -7.957031 10.085938 -7.617188 9.984375 -7.296875 C 9.878906 -6.984375 9.734375 -6.691406 9.546875 -6.421875 C 9.367188 -6.148438 9.160156 -5.90625 8.921875 -5.6875 C 8.691406 -5.46875 8.445312 -5.285156 8.1875 -5.140625 C 7.9375 -4.992188 7.679688 -4.878906 7.421875 -4.796875 C 7.191406 -4.734375 6.972656 -4.703125 6.765625 -4.703125 C 6.734375 -4.703125 6.707031 -4.703125 6.6875 -4.703125 L 4.703125 -4.8125 C 4.703125 -4.8125 4.679688 -4.8125 4.640625 -4.8125 C 4.597656 -4.8125 4.570312 -4.804688 4.5625 -4.796875 C 4.539062 -4.785156 4.523438 -4.773438 4.515625 -4.765625 C 4.515625 -4.753906 4.515625 -4.726562 4.515625 -4.6875 L 4.515625 -1.59375 C 4.515625 -1.375 4.570312 -1.191406 4.6875 -1.046875 C 4.8125 -0.910156 4.96875 -0.800781 5.15625 -0.71875 C 5.34375 -0.644531 5.554688 -0.585938 5.796875 -0.546875 C 6.035156 -0.515625 6.269531 -0.5 6.5 -0.5 C 6.53125 -0.5 6.546875 -0.488281 6.546875 -0.46875 C 6.554688 -0.457031 6.5625 -0.441406 6.5625 -0.421875 L 6.5625 -0.0625 C 6.5625 -0.0507812 6.554688 -0.0351562 6.546875 -0.015625 C 6.546875 -0.00390625 6.53125 0 6.5 0 Z M 4.53125 -5.734375 C 4.539062 -5.691406 4.554688 -5.648438 4.578125 -5.609375 C 4.597656 -5.578125 4.632812 -5.5625 4.6875 -5.5625 C 4.707031 -5.5625 4.75 -5.554688 4.8125 -5.546875 C 4.875 -5.546875 4.941406 -5.539062 5.015625 -5.53125 C 5.085938 -5.53125 5.171875 -5.523438 5.265625 -5.515625 C 5.359375 -5.515625 5.445312 -5.515625 5.53125 -5.515625 C 5.90625 -5.515625 6.226562 -5.585938 6.5 -5.734375 C 6.78125 -5.878906 7.007812 -6.082031 7.1875 -6.34375 C 7.375 -6.613281 7.515625 -6.929688 7.609375 -7.296875 C 7.703125 -7.660156 7.75 -8.066406 7.75 -8.515625 C 7.75 -9.421875 7.566406 -10.082031 7.203125 -10.5 C 6.835938 -10.925781 6.300781 -11.140625 5.59375 -11.140625 C 5.519531 -11.140625 5.445312 -11.140625 5.375 -11.140625 C 5.3125 -11.140625 5.25 -11.132812 5.1875 -11.125 C 5.125 -11.125 5.050781 -11.125 4.96875 -11.125 C 4.894531 -11.125 4.8125 -11.117188 4.71875 -11.109375 C 4.6875 -11.109375 4.644531 -11.097656 4.59375 -11.078125 C 4.539062 -11.066406 4.515625 -11.035156 4.515625 -10.984375 L 4.515625 -5.984375 Z M 4.53125 -5.734375 "/></g></g></g><g fill="#000000" fill-opacity="1"><g transform="translate(41.092948, 35.172251)"><g><path d="M 3.359375 -7.75 C 3.378906 -7.757812 3.398438 -7.769531 3.421875 -7.78125 C 3.453125 -7.789062 3.472656 -7.796875 3.484375 -7.796875 C 3.578125 -7.796875 3.625 -7.726562 3.625 -7.59375 L 3.625 -6.1875 C 3.625 -6.175781 3.625 -6.15625 3.625 -6.125 C 3.625 -6.101562 3.640625 -6.09375 3.671875 -6.09375 C 3.703125 -6.09375 3.722656 -6.101562 3.734375 -6.125 C 3.753906 -6.144531 3.769531 -6.160156 3.78125 -6.171875 C 3.882812 -6.304688 4 -6.453125 4.125 -6.609375 C 4.25 -6.773438 4.378906 -6.929688 4.515625 -7.078125 C 4.648438 -7.222656 4.789062 -7.34375 4.9375 -7.4375 C 5.09375 -7.53125 5.242188 -7.578125 5.390625 -7.578125 C 5.484375 -7.578125 5.609375 -7.550781 5.765625 -7.5 C 5.929688 -7.445312 6.085938 -7.378906 6.234375 -7.296875 C 6.390625 -7.222656 6.519531 -7.144531 6.625 -7.0625 C 6.726562 -6.988281 6.78125 -6.925781 6.78125 -6.875 C 6.78125 -6.820312 6.753906 -6.726562 6.703125 -6.59375 C 6.660156 -6.46875 6.601562 -6.332031 6.53125 -6.1875 C 6.457031 -6.050781 6.375 -5.929688 6.28125 -5.828125 C 6.195312 -5.722656 6.117188 -5.671875 6.046875 -5.671875 L 6.03125 -5.671875 C 5.9375 -5.703125 5.835938 -5.738281 5.734375 -5.78125 C 5.628906 -5.832031 5.523438 -5.878906 5.421875 -5.921875 C 5.316406 -5.972656 5.210938 -6.015625 5.109375 -6.046875 C 5.003906 -6.078125 4.894531 -6.09375 4.78125 -6.09375 C 4.613281 -6.09375 4.457031 -6.054688 4.3125 -5.984375 C 4.175781 -5.910156 4.054688 -5.820312 3.953125 -5.71875 C 3.847656 -5.613281 3.765625 -5.492188 3.703125 -5.359375 C 3.648438 -5.222656 3.625 -5.097656 3.625 -4.984375 L 3.625 -1.5 C 3.625 -1.34375 3.65625 -1.207031 3.71875 -1.09375 C 3.789062 -0.988281 3.878906 -0.898438 3.984375 -0.828125 C 4.085938 -0.765625 4.203125 -0.710938 4.328125 -0.671875 C 4.460938 -0.640625 4.59375 -0.613281 4.71875 -0.59375 C 4.84375 -0.570312 4.953125 -0.550781 5.046875 -0.53125 C 5.148438 -0.519531 5.222656 -0.503906 5.265625 -0.484375 C 5.328125 -0.460938 5.359375 -0.382812 5.359375 -0.25 C 5.359375 -0.09375 5.328125 -0.0078125 5.265625 0 L 0.515625 0 C 0.453125 -0.0078125 0.421875 -0.09375 0.421875 -0.25 C 0.421875 -0.382812 0.453125 -0.460938 0.515625 -0.484375 C 0.585938 -0.515625 0.6875 -0.539062 0.8125 -0.5625 C 0.945312 -0.582031 1.078125 -0.617188 1.203125 -0.671875 C 1.335938 -0.734375 1.453125 -0.828125 1.546875 -0.953125 C 1.648438 -1.078125 1.703125 -1.257812 1.703125 -1.5 L 1.703125 -5.46875 C 1.703125 -5.601562 1.664062 -5.707031 1.59375 -5.78125 C 1.53125 -5.851562 1.441406 -5.90625 1.328125 -5.9375 C 1.210938 -5.976562 1.09375 -6.007812 0.96875 -6.03125 C 0.84375 -6.0625 0.722656 -6.09375 0.609375 -6.125 C 0.578125 -6.132812 0.550781 -6.148438 0.53125 -6.171875 C 0.507812 -6.191406 0.5 -6.234375 0.5 -6.296875 C 0.5 -6.316406 0.503906 -6.34375 0.515625 -6.375 C 0.535156 -6.40625 0.570312 -6.429688 0.625 -6.453125 Z M 3.359375 -7.75 "/></g></g></g><g fill="#000000" fill-opacity="1"><g transform="translate(47.88174, 35.172251)"><g><path d="M 0.625 -3.84375 C 0.625 -4.363281 0.734375 -4.859375 0.953125 -5.328125 C 1.179688 -5.804688 1.488281 -6.226562 1.875 -6.59375 C 2.257812 -6.957031 2.707031 -7.242188 3.21875 -7.453125 C 3.726562 -7.671875 4.269531 -7.78125 4.84375 -7.78125 C 5.4375 -7.78125 6 -7.675781 6.53125 -7.46875 C 7.0625 -7.269531 7.53125 -6.992188 7.9375 -6.640625 C 8.34375 -6.285156 8.660156 -5.863281 8.890625 -5.375 C 9.128906 -4.894531 9.25 -4.375 9.25 -3.8125 C 9.25 -3.238281 9.140625 -2.707031 8.921875 -2.21875 C 8.710938 -1.726562 8.414062 -1.300781 8.03125 -0.9375 C 7.644531 -0.570312 7.1875 -0.285156 6.65625 -0.078125 C 6.125 0.117188 5.546875 0.21875 4.921875 0.21875 C 4.296875 0.21875 3.71875 0.113281 3.1875 -0.09375 C 2.664062 -0.300781 2.210938 -0.585938 1.828125 -0.953125 C 1.453125 -1.328125 1.15625 -1.757812 0.9375 -2.25 C 0.726562 -2.75 0.625 -3.28125 0.625 -3.84375 Z M 2.734375 -4.375 C 2.734375 -4.070312 2.753906 -3.765625 2.796875 -3.453125 C 2.835938 -3.140625 2.898438 -2.832031 2.984375 -2.53125 C 3.078125 -2.226562 3.191406 -1.941406 3.328125 -1.671875 C 3.460938 -1.410156 3.625 -1.179688 3.8125 -0.984375 C 4 -0.785156 4.207031 -0.628906 4.4375 -0.515625 C 4.675781 -0.398438 4.945312 -0.34375 5.25 -0.34375 C 5.570312 -0.34375 5.847656 -0.425781 6.078125 -0.59375 C 6.316406 -0.757812 6.507812 -0.976562 6.65625 -1.25 C 6.8125 -1.519531 6.921875 -1.820312 6.984375 -2.15625 C 7.054688 -2.488281 7.09375 -2.820312 7.09375 -3.15625 C 7.09375 -3.425781 7.066406 -3.710938 7.015625 -4.015625 C 6.972656 -4.316406 6.898438 -4.613281 6.796875 -4.90625 C 6.703125 -5.195312 6.582031 -5.476562 6.4375 -5.75 C 6.300781 -6.019531 6.132812 -6.253906 5.9375 -6.453125 C 5.75 -6.660156 5.535156 -6.828125 5.296875 -6.953125 C 5.066406 -7.078125 4.816406 -7.140625 4.546875 -7.140625 C 4.234375 -7.140625 3.960938 -7.050781 3.734375 -6.875 C 3.503906 -6.707031 3.316406 -6.488281 3.171875 -6.21875 C 3.023438 -5.957031 2.914062 -5.660156 2.84375 -5.328125 C 2.769531 -5.003906 2.734375 -4.6875 2.734375 -4.375 Z M 2.734375 -4.375 "/></g></g></g><g fill="#000000" fill-opacity="1"><g transform="translate(57.755597, 35.172251)"><g><path d="M 3.03125 -8 C 3.050781 -8.007812 3.070312 -8.019531 3.09375 -8.03125 C 3.125 -8.039062 3.144531 -8.046875 3.15625 -8.046875 C 3.25 -8.046875 3.296875 -7.976562 3.296875 -7.84375 L 3.296875 -6.984375 C 3.296875 -6.953125 3.304688 -6.925781 3.328125 -6.90625 C 3.347656 -6.894531 3.367188 -6.890625 3.390625 -6.890625 C 3.421875 -6.890625 3.445312 -6.894531 3.46875 -6.90625 C 3.488281 -6.914062 3.507812 -6.925781 3.53125 -6.9375 C 3.757812 -7.070312 3.957031 -7.1875 4.125 -7.28125 C 4.300781 -7.375 4.46875 -7.445312 4.625 -7.5 C 4.789062 -7.550781 4.957031 -7.585938 5.125 -7.609375 C 5.300781 -7.628906 5.492188 -7.640625 5.703125 -7.640625 C 6.171875 -7.640625 6.585938 -7.523438 6.953125 -7.296875 C 7.328125 -7.078125 7.644531 -6.785156 7.90625 -6.421875 C 8.164062 -6.066406 8.363281 -5.660156 8.5 -5.203125 C 8.632812 -4.753906 8.703125 -4.300781 8.703125 -3.84375 C 8.703125 -3.507812 8.65625 -3.175781 8.5625 -2.84375 C 8.46875 -2.507812 8.335938 -2.191406 8.171875 -1.890625 C 8.015625 -1.585938 7.816406 -1.304688 7.578125 -1.046875 C 7.347656 -0.796875 7.09375 -0.570312 6.8125 -0.375 C 6.539062 -0.1875 6.242188 -0.0390625 5.921875 0.0625 C 5.609375 0.164062 5.285156 0.21875 4.953125 0.21875 C 4.703125 0.21875 4.460938 0.203125 4.234375 0.171875 C 4.003906 0.140625 3.75 0.09375 3.46875 0.03125 C 3.375 0.03125 3.320312 0.0625 3.3125 0.125 C 3.300781 0.195312 3.296875 0.269531 3.296875 0.34375 L 3.296875 3.6875 C 3.296875 3.851562 3.328125 3.988281 3.390625 4.09375 C 3.460938 4.195312 3.550781 4.285156 3.65625 4.359375 C 3.757812 4.429688 3.875 4.484375 4 4.515625 C 4.132812 4.546875 4.257812 4.570312 4.375 4.59375 C 4.5 4.625 4.609375 4.644531 4.703125 4.65625 C 4.804688 4.664062 4.882812 4.679688 4.9375 4.703125 C 4.988281 4.734375 5.015625 4.769531 5.015625 4.8125 C 5.015625 4.894531 4.988281 4.941406 4.9375 4.953125 L 0.1875 4.953125 C 0.125 4.941406 0.09375 4.894531 0.09375 4.8125 C 0.09375 4.769531 0.125 4.734375 0.1875 4.703125 C 0.25 4.671875 0.347656 4.644531 0.484375 4.625 C 0.617188 4.613281 0.75 4.578125 0.875 4.515625 C 1.007812 4.453125 1.125 4.359375 1.21875 4.234375 C 1.320312 4.117188 1.375 3.9375 1.375 3.6875 L 1.375 -5.71875 C 1.375 -5.851562 1.335938 -5.957031 1.265625 -6.03125 C 1.191406 -6.101562 1.097656 -6.160156 0.984375 -6.203125 C 0.878906 -6.242188 0.765625 -6.273438 0.640625 -6.296875 C 0.515625 -6.316406 0.394531 -6.347656 0.28125 -6.390625 C 0.25 -6.398438 0.222656 -6.410156 0.203125 -6.421875 C 0.179688 -6.441406 0.171875 -6.484375 0.171875 -6.546875 C 0.171875 -6.578125 0.175781 -6.601562 0.1875 -6.625 C 0.207031 -6.65625 0.242188 -6.6875 0.296875 -6.71875 Z M 4.96875 -6.703125 C 4.675781 -6.703125 4.40625 -6.660156 4.15625 -6.578125 C 3.914062 -6.492188 3.671875 -6.359375 3.421875 -6.171875 C 3.398438 -6.171875 3.382812 -6.160156 3.375 -6.140625 C 3.363281 -6.128906 3.351562 -6.117188 3.34375 -6.109375 L 3.296875 -6.0625 L 3.296875 -1.65625 C 3.296875 -1.644531 3.296875 -1.597656 3.296875 -1.515625 C 3.304688 -1.441406 3.316406 -1.375 3.328125 -1.3125 C 3.335938 -1.195312 3.40625 -1.09375 3.53125 -1 C 3.664062 -0.90625 3.8125 -0.820312 3.96875 -0.75 C 4.132812 -0.6875 4.296875 -0.632812 4.453125 -0.59375 C 4.617188 -0.5625 4.75 -0.546875 4.84375 -0.546875 C 5.207031 -0.546875 5.515625 -0.609375 5.765625 -0.734375 C 6.015625 -0.867188 6.21875 -1.046875 6.375 -1.265625 C 6.53125 -1.492188 6.640625 -1.753906 6.703125 -2.046875 C 6.773438 -2.347656 6.8125 -2.664062 6.8125 -3 C 6.8125 -3.257812 6.796875 -3.53125 6.765625 -3.8125 C 6.742188 -4.09375 6.703125 -4.367188 6.640625 -4.640625 C 6.585938 -4.921875 6.507812 -5.1875 6.40625 -5.4375 C 6.3125 -5.6875 6.195312 -5.898438 6.0625 -6.078125 C 5.925781 -6.265625 5.765625 -6.414062 5.578125 -6.53125 C 5.398438 -6.644531 5.195312 -6.703125 4.96875 -6.703125 Z M 4.96875 -6.703125 "/></g></g></g><g fill="#000000" fill-opacity="1"><g transform="translate(67.37374, 35.172251)"><g><path d="M 0.578125 -3.34375 C 0.578125 -3.988281 0.664062 -4.582031 0.84375 -5.125 C 1.03125 -5.664062 1.289062 -6.132812 1.625 -6.53125 C 1.96875 -6.925781 2.382812 -7.234375 2.875 -7.453125 C 3.375 -7.671875 3.9375 -7.78125 4.5625 -7.78125 C 4.75 -7.78125 4.914062 -7.765625 5.0625 -7.734375 C 5.207031 -7.710938 5.34375 -7.679688 5.46875 -7.640625 C 5.59375 -7.597656 5.707031 -7.546875 5.8125 -7.484375 C 5.925781 -7.429688 6.035156 -7.375 6.140625 -7.3125 C 6.265625 -7.238281 6.410156 -7.117188 6.578125 -6.953125 C 6.742188 -6.785156 6.894531 -6.585938 7.03125 -6.359375 C 7.175781 -6.128906 7.296875 -5.882812 7.390625 -5.625 C 7.492188 -5.375 7.546875 -5.132812 7.546875 -4.90625 C 7.546875 -4.820312 7.53125 -4.734375 7.5 -4.640625 C 7.46875 -4.554688 7.414062 -4.515625 7.34375 -4.515625 L 2.484375 -4.515625 C 2.429688 -4.515625 2.394531 -4.460938 2.375 -4.359375 C 2.351562 -4.265625 2.34375 -4.144531 2.34375 -4 C 2.34375 -3.519531 2.410156 -3.085938 2.546875 -2.703125 C 2.691406 -2.328125 2.878906 -2.007812 3.109375 -1.75 C 3.347656 -1.488281 3.617188 -1.289062 3.921875 -1.15625 C 4.234375 -1.019531 4.5625 -0.953125 4.90625 -0.953125 C 5.125 -0.953125 5.332031 -0.976562 5.53125 -1.03125 C 5.726562 -1.09375 5.914062 -1.171875 6.09375 -1.265625 C 6.269531 -1.359375 6.4375 -1.460938 6.59375 -1.578125 C 6.757812 -1.691406 6.914062 -1.8125 7.0625 -1.9375 C 7.09375 -1.945312 7.113281 -1.953125 7.125 -1.953125 C 7.144531 -1.953125 7.164062 -1.9375 7.1875 -1.90625 C 7.238281 -1.863281 7.289062 -1.8125 7.34375 -1.75 C 7.394531 -1.695312 7.429688 -1.648438 7.453125 -1.609375 C 7.472656 -1.585938 7.484375 -1.570312 7.484375 -1.5625 C 7.484375 -1.539062 7.472656 -1.519531 7.453125 -1.5 C 7.265625 -1.28125 7.039062 -1.066406 6.78125 -0.859375 C 6.519531 -0.660156 6.238281 -0.476562 5.9375 -0.3125 C 5.632812 -0.15625 5.328125 -0.03125 5.015625 0.0625 C 4.703125 0.164062 4.40625 0.21875 4.125 0.21875 C 3.5625 0.21875 3.054688 0.117188 2.609375 -0.078125 C 2.171875 -0.285156 1.800781 -0.554688 1.5 -0.890625 C 1.195312 -1.234375 0.96875 -1.617188 0.8125 -2.046875 C 0.65625 -2.472656 0.578125 -2.90625 0.578125 -3.34375 Z M 5.421875 -5.140625 C 5.566406 -5.140625 5.640625 -5.207031 5.640625 -5.34375 C 5.640625 -5.550781 5.601562 -5.75 5.53125 -5.9375 C 5.457031 -6.132812 5.359375 -6.300781 5.234375 -6.4375 C 5.109375 -6.582031 4.957031 -6.695312 4.78125 -6.78125 C 4.601562 -6.863281 4.40625 -6.90625 4.1875 -6.90625 C 3.914062 -6.90625 3.679688 -6.847656 3.484375 -6.734375 C 3.285156 -6.628906 3.117188 -6.492188 2.984375 -6.328125 C 2.847656 -6.171875 2.742188 -6.003906 2.671875 -5.828125 C 2.609375 -5.660156 2.578125 -5.519531 2.578125 -5.40625 C 2.578125 -5.3125 2.585938 -5.242188 2.609375 -5.203125 C 2.640625 -5.160156 2.675781 -5.140625 2.71875 -5.140625 Z M 5.421875 -5.140625 "/></g></g></g><g fill="#000000" fill-opacity="1"><g transform="translate(75.73806, 35.172251)"><g><path d="M 3.359375 -7.75 C 3.378906 -7.757812 3.398438 -7.769531 3.421875 -7.78125 C 3.453125 -7.789062 3.472656 -7.796875 3.484375 -7.796875 C 3.578125 -7.796875 3.625 -7.726562 3.625 -7.59375 L 3.625 -6.1875 C 3.625 -6.175781 3.625 -6.15625 3.625 -6.125 C 3.625 -6.101562 3.640625 -6.09375 3.671875 -6.09375 C 3.703125 -6.09375 3.722656 -6.101562 3.734375 -6.125 C 3.753906 -6.144531 3.769531 -6.160156 3.78125 -6.171875 C 3.882812 -6.304688 4 -6.453125 4.125 -6.609375 C 4.25 -6.773438 4.378906 -6.929688 4.515625 -7.078125 C 4.648438 -7.222656 4.789062 -7.34375 4.9375 -7.4375 C 5.09375 -7.53125 5.242188 -7.578125 5.390625 -7.578125 C 5.484375 -7.578125 5.609375 -7.550781 5.765625 -7.5 C 5.929688 -7.445312 6.085938 -7.378906 6.234375 -7.296875 C 6.390625 -7.222656 6.519531 -7.144531 6.625 -7.0625 C 6.726562 -6.988281 6.78125 -6.925781 6.78125 -6.875 C 6.78125 -6.820312 6.753906 -6.726562 6.703125 -6.59375 C 6.660156 -6.46875 6.601562 -6.332031 6.53125 -6.1875 C 6.457031 -6.050781 6.375 -5.929688 6.28125 -5.828125 C 6.195312 -5.722656 6.117188 -5.671875 6.046875 -5.671875 L 6.03125 -5.671875 C 5.9375 -5.703125 5.835938 -5.738281 5.734375 -5.78125 C 5.628906 -5.832031 5.523438 -5.878906 5.421875 -5.921875 C 5.316406 -5.972656 5.210938 -6.015625 5.109375 -6.046875 C 5.003906 -6.078125 4.894531 -6.09375 4.78125 -6.09375 C 4.613281 -6.09375 4.457031 -6.054688 4.3125 -5.984375 C 4.175781 -5.910156 4.054688 -5.820312 3.953125 -5.71875 C 3.847656 -5.613281 3.765625 -5.492188 3.703125 -5.359375 C 3.648438 -5.222656 3.625 -5.097656 3.625 -4.984375 L 3.625 -1.5 C 3.625 -1.34375 3.65625 -1.207031 3.71875 -1.09375 C 3.789062 -0.988281 3.878906 -0.898438 3.984375 -0.828125 C 4.085938 -0.765625 4.203125 -0.710938 4.328125 -0.671875 C 4.460938 -0.640625 4.59375 -0.613281 4.71875 -0.59375 C 4.84375 -0.570312 4.953125 -0.550781 5.046875 -0.53125 C 5.148438 -0.519531 5.222656 -0.503906 5.265625 -0.484375 C 5.328125 -0.460938 5.359375 -0.382812 5.359375 -0.25 C 5.359375 -0.09375 5.328125 -0.0078125 5.265625 0 L 0.515625 0 C 0.453125 -0.0078125 0.421875 -0.09375 0.421875 -0.25 C 0.421875 -0.382812 0.453125 -0.460938 0.515625 -0.484375 C 0.585938 -0.515625 0.6875 -0.539062 0.8125 -0.5625 C 0.945312 -0.582031 1.078125 -0.617188 1.203125 -0.671875 C 1.335938 -0.734375 1.453125 -0.828125 1.546875 -0.953125 C 1.648438 -1.078125 1.703125 -1.257812 1.703125 -1.5 L 1.703125 -5.46875 C 1.703125 -5.601562 1.664062 -5.707031 1.59375 -5.78125 C 1.53125 -5.851562 1.441406 -5.90625 1.328125 -5.9375 C 1.210938 -5.976562 1.09375 -6.007812 0.96875 -6.03125 C 0.84375 -6.0625 0.722656 -6.09375 0.609375 -6.125 C 0.578125 -6.132812 0.550781 -6.148438 0.53125 -6.171875 C 0.507812 -6.191406 0.5 -6.234375 0.5 -6.296875 C 0.5 -6.316406 0.503906 -6.34375 0.515625 -6.375 C 0.535156 -6.40625 0.570312 -6.429688 0.625 -6.453125 Z M 3.359375 -7.75 "/></g></g></g><g fill="#000000" fill-opacity="1"><g transform="translate(82.526852, 35.172251)"><g><path d="M 1.25 -6.359375 L 0.625 -6.359375 C 0.550781 -6.359375 0.488281 -6.375 0.4375 -6.40625 C 0.394531 -6.445312 0.375 -6.492188 0.375 -6.546875 C 0.375 -6.566406 0.378906 -6.59375 0.390625 -6.625 C 0.398438 -6.664062 0.410156 -6.691406 0.421875 -6.703125 C 0.535156 -6.765625 0.65625 -6.84375 0.78125 -6.9375 C 0.914062 -7.039062 1.046875 -7.144531 1.171875 -7.25 C 1.296875 -7.351562 1.414062 -7.457031 1.53125 -7.5625 C 1.65625 -7.664062 1.765625 -7.757812 1.859375 -7.84375 C 1.921875 -7.90625 2 -8 2.09375 -8.125 C 2.1875 -8.25 2.296875 -8.367188 2.421875 -8.484375 C 2.546875 -8.597656 2.675781 -8.703125 2.8125 -8.796875 C 2.957031 -8.890625 3.101562 -8.9375 3.25 -8.9375 C 3.289062 -8.9375 3.332031 -8.921875 3.375 -8.890625 C 3.414062 -8.867188 3.4375 -8.84375 3.4375 -8.8125 C 3.4375 -8.78125 3.425781 -8.722656 3.40625 -8.640625 C 3.382812 -8.554688 3.359375 -8.460938 3.328125 -8.359375 C 3.304688 -8.265625 3.28125 -8.160156 3.25 -8.046875 C 3.21875 -7.941406 3.1875 -7.835938 3.15625 -7.734375 C 3.15625 -7.691406 3.160156 -7.65625 3.171875 -7.625 C 3.191406 -7.601562 3.234375 -7.585938 3.296875 -7.578125 L 5.390625 -7.578125 C 5.484375 -7.578125 5.546875 -7.5625 5.578125 -7.53125 C 5.609375 -7.5 5.632812 -7.460938 5.65625 -7.421875 C 5.664062 -7.390625 5.675781 -7.332031 5.6875 -7.25 C 5.695312 -7.164062 5.707031 -7.070312 5.71875 -6.96875 C 5.726562 -6.863281 5.734375 -6.757812 5.734375 -6.65625 C 5.742188 -6.550781 5.75 -6.46875 5.75 -6.40625 C 5.75 -6.375 5.726562 -6.359375 5.6875 -6.359375 L 3.203125 -6.359375 C 3.179688 -6.359375 3.164062 -6.351562 3.15625 -6.34375 C 3.15625 -6.332031 3.15625 -6.3125 3.15625 -6.28125 L 3.15625 -2.1875 C 3.15625 -2.007812 3.175781 -1.851562 3.21875 -1.71875 C 3.269531 -1.59375 3.328125 -1.484375 3.390625 -1.390625 C 3.460938 -1.304688 3.539062 -1.238281 3.625 -1.1875 C 3.71875 -1.144531 3.804688 -1.125 3.890625 -1.125 C 4.140625 -1.125 4.34375 -1.160156 4.5 -1.234375 C 4.664062 -1.316406 4.804688 -1.398438 4.921875 -1.484375 C 5.035156 -1.566406 5.132812 -1.644531 5.21875 -1.71875 C 5.3125 -1.800781 5.414062 -1.84375 5.53125 -1.84375 C 5.601562 -1.84375 5.644531 -1.8125 5.65625 -1.75 C 5.675781 -1.6875 5.6875 -1.640625 5.6875 -1.609375 C 5.6875 -1.535156 5.675781 -1.476562 5.65625 -1.4375 C 5.632812 -1.394531 5.617188 -1.363281 5.609375 -1.34375 C 5.597656 -1.332031 5.566406 -1.285156 5.515625 -1.203125 C 5.460938 -1.117188 5.390625 -1.019531 5.296875 -0.90625 C 5.203125 -0.789062 5.085938 -0.664062 4.953125 -0.53125 C 4.816406 -0.40625 4.664062 -0.285156 4.5 -0.171875 C 4.332031 -0.0546875 4.148438 0.0351562 3.953125 0.109375 C 3.765625 0.179688 3.5625 0.21875 3.34375 0.21875 C 3.050781 0.21875 2.773438 0.160156 2.515625 0.046875 C 2.253906 -0.0546875 2.03125 -0.195312 1.84375 -0.375 C 1.65625 -0.5625 1.507812 -0.773438 1.40625 -1.015625 C 1.300781 -1.253906 1.25 -1.5 1.25 -1.75 Z M 1.25 -6.359375 "/></g></g></g><g fill="#000000" fill-opacity="1"><g transform="translate(88.490761, 35.172251)"><g><path d="M 0.578125 0 C 0.546875 -0.0078125 0.523438 -0.046875 0.515625 -0.109375 C 0.503906 -0.171875 0.5 -0.21875 0.5 -0.25 C 0.5 -0.28125 0.503906 -0.328125 0.515625 -0.390625 C 0.535156 -0.453125 0.554688 -0.488281 0.578125 -0.5 C 0.648438 -0.53125 0.75 -0.554688 0.875 -0.578125 C 1.007812 -0.597656 1.140625 -0.632812 1.265625 -0.6875 C 1.398438 -0.75 1.515625 -0.835938 1.609375 -0.953125 C 1.710938 -1.078125 1.765625 -1.265625 1.765625 -1.515625 L 1.765625 -5.46875 C 1.765625 -5.601562 1.726562 -5.707031 1.65625 -5.78125 C 1.59375 -5.851562 1.503906 -5.90625 1.390625 -5.9375 C 1.285156 -5.976562 1.164062 -6.007812 1.03125 -6.03125 C 0.90625 -6.0625 0.785156 -6.09375 0.671875 -6.125 C 0.640625 -6.132812 0.613281 -6.148438 0.59375 -6.171875 C 0.570312 -6.191406 0.5625 -6.234375 0.5625 -6.296875 C 0.5625 -6.316406 0.570312 -6.34375 0.59375 -6.375 C 0.613281 -6.40625 0.644531 -6.429688 0.6875 -6.453125 L 3.421875 -7.75 C 3.441406 -7.757812 3.460938 -7.769531 3.484375 -7.78125 C 3.515625 -7.789062 3.535156 -7.796875 3.546875 -7.796875 C 3.640625 -7.796875 3.6875 -7.726562 3.6875 -7.59375 L 3.6875 -1.515625 C 3.6875 -1.265625 3.734375 -1.078125 3.828125 -0.953125 C 3.929688 -0.835938 4.046875 -0.75 4.171875 -0.6875 C 4.304688 -0.632812 4.441406 -0.597656 4.578125 -0.578125 C 4.710938 -0.554688 4.8125 -0.53125 4.875 -0.5 C 4.90625 -0.488281 4.925781 -0.453125 4.9375 -0.390625 C 4.957031 -0.328125 4.96875 -0.28125 4.96875 -0.25 C 4.96875 -0.21875 4.960938 -0.171875 4.953125 -0.109375 C 4.941406 -0.046875 4.914062 -0.0078125 4.875 0 Z M 1.421875 -10.78125 C 1.421875 -11.132812 1.523438 -11.414062 1.734375 -11.625 C 1.941406 -11.832031 2.222656 -11.9375 2.578125 -11.9375 C 2.921875 -11.9375 3.195312 -11.832031 3.40625 -11.625 C 3.625 -11.414062 3.734375 -11.132812 3.734375 -10.78125 C 3.734375 -10.425781 3.625 -10.144531 3.40625 -9.9375 C 3.195312 -9.738281 2.921875 -9.640625 2.578125 -9.640625 C 2.222656 -9.640625 1.941406 -9.738281 1.734375 -9.9375 C 1.523438 -10.144531 1.421875 -10.425781 1.421875 -10.78125 Z M 1.421875 -10.78125 "/></g></g></g><g fill="#000000" fill-opacity="1"><g transform="translate(93.869002, 35.172251)"><g><path d="M 0.578125 -3.34375 C 0.578125 -3.988281 0.664062 -4.582031 0.84375 -5.125 C 1.03125 -5.664062 1.289062 -6.132812 1.625 -6.53125 C 1.96875 -6.925781 2.382812 -7.234375 2.875 -7.453125 C 3.375 -7.671875 3.9375 -7.78125 4.5625 -7.78125 C 4.75 -7.78125 4.914062 -7.765625 5.0625 -7.734375 C 5.207031 -7.710938 5.34375 -7.679688 5.46875 -7.640625 C 5.59375 -7.597656 5.707031 -7.546875 5.8125 -7.484375 C 5.925781 -7.429688 6.035156 -7.375 6.140625 -7.3125 C 6.265625 -7.238281 6.410156 -7.117188 6.578125 -6.953125 C 6.742188 -6.785156 6.894531 -6.585938 7.03125 -6.359375 C 7.175781 -6.128906 7.296875 -5.882812 7.390625 -5.625 C 7.492188 -5.375 7.546875 -5.132812 7.546875 -4.90625 C 7.546875 -4.820312 7.53125 -4.734375 7.5 -4.640625 C 7.46875 -4.554688 7.414062 -4.515625 7.34375 -4.515625 L 2.484375 -4.515625 C 2.429688 -4.515625 2.394531 -4.460938 2.375 -4.359375 C 2.351562 -4.265625 2.34375 -4.144531 2.34375 -4 C 2.34375 -3.519531 2.410156 -3.085938 2.546875 -2.703125 C 2.691406 -2.328125 2.878906 -2.007812 3.109375 -1.75 C 3.347656 -1.488281 3.617188 -1.289062 3.921875 -1.15625 C 4.234375 -1.019531 4.5625 -0.953125 4.90625 -0.953125 C 5.125 -0.953125 5.332031 -0.976562 5.53125 -1.03125 C 5.726562 -1.09375 5.914062 -1.171875 6.09375 -1.265625 C 6.269531 -1.359375 6.4375 -1.460938 6.59375 -1.578125 C 6.757812 -1.691406 6.914062 -1.8125 7.0625 -1.9375 C 7.09375 -1.945312 7.113281 -1.953125 7.125 -1.953125 C 7.144531 -1.953125 7.164062 -1.9375 7.1875 -1.90625 C 7.238281 -1.863281 7.289062 -1.8125 7.34375 -1.75 C 7.394531 -1.695312 7.429688 -1.648438 7.453125 -1.609375 C 7.472656 -1.585938 7.484375 -1.570312 7.484375 -1.5625 C 7.484375 -1.539062 7.472656 -1.519531 7.453125 -1.5 C 7.265625 -1.28125 7.039062 -1.066406 6.78125 -0.859375 C 6.519531 -0.660156 6.238281 -0.476562 5.9375 -0.3125 C 5.632812 -0.15625 5.328125 -0.03125 5.015625 0.0625 C 4.703125 0.164062 4.40625 0.21875 4.125 0.21875 C 3.5625 0.21875 3.054688 0.117188 2.609375 -0.078125 C 2.171875 -0.285156 1.800781 -0.554688 1.5 -0.890625 C 1.195312 -1.234375 0.96875 -1.617188 0.8125 -2.046875 C 0.65625 -2.472656 0.578125 -2.90625 0.578125 -3.34375 Z M 5.421875 -5.140625 C 5.566406 -5.140625 5.640625 -5.207031 5.640625 -5.34375 C 5.640625 -5.550781 5.601562 -5.75 5.53125 -5.9375 C 5.457031 -6.132812 5.359375 -6.300781 5.234375 -6.4375 C 5.109375 -6.582031 4.957031 -6.695312 4.78125 -6.78125 C 4.601562 -6.863281 4.40625 -6.90625 4.1875 -6.90625 C 3.914062 -6.90625 3.679688 -6.847656 3.484375 -6.734375 C 3.285156 -6.628906 3.117188 -6.492188 2.984375 -6.328125 C 2.847656 -6.171875 2.742188 -6.003906 2.671875 -5.828125 C 2.609375 -5.660156 2.578125 -5.519531 2.578125 -5.40625 C 2.578125 -5.3125 2.585938 -5.242188 2.609375 -5.203125 C 2.640625 -5.160156 2.675781 -5.140625 2.71875 -5.140625 Z M 5.421875 -5.140625 "/></g></g></g><g fill="#000000" fill-opacity="1"><g transform="translate(102.233322, 35.172251)"><g><path d="M 1.625 -0.046875 C 1.570312 -0.046875 1.523438 -0.03125 1.484375 0 C 1.453125 0.0195312 1.414062 0.046875 1.375 0.078125 C 1.34375 0.117188 1.3125 0.148438 1.28125 0.171875 C 1.25 0.203125 1.207031 0.21875 1.15625 0.21875 L 0.859375 0.21875 C 0.847656 0.21875 0.832031 0.140625 0.8125 -0.015625 C 0.789062 -0.171875 0.765625 -0.359375 0.734375 -0.578125 C 0.710938 -0.804688 0.691406 -1.039062 0.671875 -1.28125 C 0.660156 -1.519531 0.65625 -1.71875 0.65625 -1.875 C 0.65625 -1.96875 0.6875 -2.023438 0.75 -2.046875 C 0.8125 -2.078125 0.878906 -2.09375 0.953125 -2.09375 C 0.992188 -2.09375 1.035156 -2.078125 1.078125 -2.046875 C 1.128906 -2.015625 1.175781 -1.976562 1.21875 -1.9375 C 1.257812 -1.894531 1.296875 -1.851562 1.328125 -1.8125 C 1.359375 -1.769531 1.382812 -1.734375 1.40625 -1.703125 C 1.5 -1.492188 1.59375 -1.304688 1.6875 -1.140625 C 1.78125 -0.984375 1.882812 -0.84375 2 -0.71875 C 2.125 -0.601562 2.269531 -0.515625 2.4375 -0.453125 C 2.601562 -0.390625 2.800781 -0.359375 3.03125 -0.359375 C 3.207031 -0.359375 3.347656 -0.390625 3.453125 -0.453125 C 3.566406 -0.515625 3.648438 -0.59375 3.703125 -0.6875 C 3.765625 -0.789062 3.804688 -0.90625 3.828125 -1.03125 C 3.847656 -1.15625 3.859375 -1.285156 3.859375 -1.421875 C 3.859375 -1.703125 3.773438 -1.9375 3.609375 -2.125 C 3.441406 -2.3125 3.234375 -2.488281 2.984375 -2.65625 C 2.742188 -2.820312 2.476562 -2.988281 2.1875 -3.15625 C 1.90625 -3.332031 1.640625 -3.53125 1.390625 -3.75 C 1.148438 -3.976562 0.945312 -4.242188 0.78125 -4.546875 C 0.613281 -4.859375 0.53125 -5.242188 0.53125 -5.703125 C 0.53125 -5.972656 0.613281 -6.234375 0.78125 -6.484375 C 0.945312 -6.734375 1.160156 -6.953125 1.421875 -7.140625 C 1.691406 -7.335938 1.988281 -7.492188 2.3125 -7.609375 C 2.632812 -7.722656 2.960938 -7.78125 3.296875 -7.78125 C 3.460938 -7.78125 3.628906 -7.765625 3.796875 -7.734375 C 3.972656 -7.703125 4.132812 -7.664062 4.28125 -7.625 C 4.425781 -7.59375 4.550781 -7.554688 4.65625 -7.515625 C 4.757812 -7.472656 4.820312 -7.445312 4.84375 -7.4375 C 4.882812 -7.40625 4.914062 -7.359375 4.9375 -7.296875 C 4.96875 -7.242188 4.984375 -7.15625 4.984375 -7.03125 C 4.992188 -6.90625 5 -6.734375 5 -6.515625 C 5.007812 -6.304688 5.015625 -6.03125 5.015625 -5.6875 C 5.015625 -5.59375 4.976562 -5.523438 4.90625 -5.484375 C 4.84375 -5.441406 4.773438 -5.421875 4.703125 -5.421875 C 4.648438 -5.421875 4.59375 -5.429688 4.53125 -5.453125 C 4.476562 -5.484375 4.441406 -5.519531 4.421875 -5.5625 C 4.359375 -5.738281 4.285156 -5.910156 4.203125 -6.078125 C 4.117188 -6.253906 4.019531 -6.410156 3.90625 -6.546875 C 3.800781 -6.691406 3.675781 -6.804688 3.53125 -6.890625 C 3.394531 -6.972656 3.234375 -7.015625 3.046875 -7.015625 C 2.929688 -7.015625 2.816406 -7 2.703125 -6.96875 C 2.597656 -6.945312 2.5 -6.894531 2.40625 -6.8125 C 2.320312 -6.738281 2.253906 -6.628906 2.203125 -6.484375 C 2.148438 -6.347656 2.125 -6.175781 2.125 -5.96875 C 2.125 -5.78125 2.207031 -5.601562 2.375 -5.4375 C 2.550781 -5.28125 2.769531 -5.117188 3.03125 -4.953125 C 3.289062 -4.796875 3.570312 -4.625 3.875 -4.4375 C 4.1875 -4.25 4.46875 -4.035156 4.71875 -3.796875 C 4.976562 -3.554688 5.195312 -3.273438 5.375 -2.953125 C 5.550781 -2.640625 5.640625 -2.269531 5.640625 -1.84375 C 5.640625 -1.519531 5.554688 -1.226562 5.390625 -0.96875 C 5.222656 -0.71875 5.007812 -0.503906 4.75 -0.328125 C 4.488281 -0.148438 4.203125 -0.015625 3.890625 0.078125 C 3.578125 0.171875 3.265625 0.21875 2.953125 0.21875 C 2.804688 0.21875 2.65625 0.203125 2.5 0.171875 C 2.34375 0.148438 2.203125 0.117188 2.078125 0.078125 C 1.953125 0.046875 1.847656 0.0195312 1.765625 0 C 1.679688 -0.03125 1.632812 -0.046875 1.625 -0.046875 Z M 1.625 -0.046875 "/></g></g></g></g></g></svg>